<?xml version="1.0" encoding="UTF-8" standalone="no"?>
<!-- Created with Inkscape (http://www.inkscape.org/) -->

<svg
   xmlns:dc="http://purl.org/dc/elements/1.1/"
   xmlns:cc="http://creativecommons.org/ns#"
   xmlns:rdf="http://www.w3.org/1999/02/22-rdf-syntax-ns#"
   xmlns:svg="http://www.w3.org/2000/svg"
   xmlns="http://www.w3.org/2000/svg"
   xmlns:sodipodi="http://sodipodi.sourceforge.net/DTD/sodipodi-0.dtd"
   xmlns:inkscape="http://www.inkscape.org/namespaces/inkscape"
   width="210mm"
   height="297mm"
   viewBox="0 0 210 297"
   version="1.1"
   id="svg848"
   inkscape:version="0.92.2 5c3e80d, 2017-08-06"
   sodipodi:docname="skype_merge.svg">
  <defs
     id="defs842" />
  <sodipodi:namedview
     id="base"
     pagecolor="#ffffff"
     bordercolor="#666666"
     borderopacity="1.0"
     inkscape:pageopacity="0.0"
     inkscape:pageshadow="2"
     inkscape:zoom="0.53291924"
     inkscape:cx="459.46868"
     inkscape:cy="506.10439"
     inkscape:document-units="mm"
     inkscape:current-layer="layer1"
     showgrid="false"
     inkscape:snap-nodes="true"
     inkscape:window-width="1680"
     inkscape:window-height="1005"
     inkscape:window-x="1033"
     inkscape:window-y="1081"
     inkscape:window-maximized="1"
     inkscape:snap-global="true" />
  <metadata
     id="metadata845">
    <rdf:RDF>
      <cc:Work
         rdf:about="">
        <dc:format>image/svg+xml</dc:format>
        <dc:type
           rdf:resource="http://purl.org/dc/dcmitype/StillImage" />
        <dc:title />
      </cc:Work>
    </rdf:RDF>
  </metadata>
  <g
     inkscape:label="Layer 1"
     inkscape:groupmode="layer"
     id="layer1">
    <rect
       style="opacity:1;vector-effect:none;fill:#0079e5;fill-opacity:1;stroke:none;stroke-width:23.84591103;stroke-linecap:butt;stroke-linejoin:miter;stroke-miterlimit:4;stroke-dasharray:none;stroke-dashoffset:0;stroke-opacity:1;paint-order:stroke fill markers"
       id="rect812"
       width="50.904255"
       height="99.351067"
       x="27.031914"
       y="161.13829"
       ry="6.4607544" />
    <rect
       style="opacity:1;vector-effect:none;fill:#b8d2eb;fill-opacity:0.60273975;stroke:none;stroke-width:20;stroke-linecap:butt;stroke-linejoin:miter;stroke-miterlimit:4;stroke-dasharray:none;stroke-dashoffset:0;stroke-opacity:1;paint-order:stroke fill markers"
       id="rect823"
       width="30.893618"
       height="9.1276598"
       x="44.936172"
       y="247.14893"
       ry="4.5638299" />
    <rect
       ry="4.5638299"
       y="236.56558"
       x="29.061171"
       height="9.1276598"
       width="30.893618"
       id="rect825"
       style="opacity:1;vector-effect:none;fill:#31da46;fill-opacity:0.98173517;stroke:none;stroke-width:20;stroke-linecap:butt;stroke-linejoin:miter;stroke-miterlimit:4;stroke-dasharray:none;stroke-dashoffset:0;stroke-opacity:1;paint-order:stroke fill markers" />
    <rect
       style="opacity:1;vector-effect:none;fill:#31da46;fill-opacity:0.98173517;stroke:none;stroke-width:20;stroke-linecap:butt;stroke-linejoin:miter;stroke-miterlimit:4;stroke-dasharray:none;stroke-dashoffset:0;stroke-opacity:1;paint-order:stroke fill markers"
       id="rect831"
       width="30.893618"
       height="9.1276598"
       x="29.061171"
       y="225.98224"
       ry="4.5638299" />
    <rect
       ry="4.5638299"
       y="215.3989"
       x="44.936172"
       height="9.1276598"
       width="30.893618"
       id="rect833"
       style="opacity:1;vector-effect:none;fill:#b8d2eb;fill-opacity:0.60273976;stroke:none;stroke-width:20;stroke-linecap:butt;stroke-linejoin:miter;stroke-miterlimit:4;stroke-dasharray:none;stroke-dashoffset:0;stroke-opacity:1;paint-order:stroke fill markers" />
    <rect
       style="opacity:1;vector-effect:none;fill:#b8d2eb;fill-opacity:0.60273976;stroke:none;stroke-width:20;stroke-linecap:butt;stroke-linejoin:miter;stroke-miterlimit:4;stroke-dasharray:none;stroke-dashoffset:0;stroke-opacity:1;paint-order:stroke fill markers"
       id="rect835"
       width="30.893618"
       height="9.1276598"
       x="44.936172"
       y="204.81555"
       ry="4.5638299" />
    <rect
       ry="4.5638299"
       y="194.23221"
       x="44.936172"
       height="9.1276598"
       width="30.893618"
       id="rect837"
       style="opacity:1;vector-effect:none;fill:#b8d2eb;fill-opacity:0.60273976;stroke:none;stroke-width:20;stroke-linecap:butt;stroke-linejoin:miter;stroke-miterlimit:4;stroke-dasharray:none;stroke-dashoffset:0;stroke-opacity:1;paint-order:stroke fill markers" />
    <rect
       style="opacity:1;vector-effect:none;fill:#b8d2eb;fill-opacity:0.60273976;stroke:none;stroke-width:20;stroke-linecap:butt;stroke-linejoin:miter;stroke-miterlimit:4;stroke-dasharray:none;stroke-dashoffset:0;stroke-opacity:1;paint-order:stroke fill markers"
       id="rect839"
       width="30.893618"
       height="9.1276598"
       x="44.936172"
       y="173.06552"
       ry="4.5638299" />
    <rect
       ry="4.5638299"
       y="162.48218"
       x="44.936172"
       height="9.1276598"
       width="30.893618"
       id="rect841"
       style="opacity:1;vector-effect:none;fill:#b8d2eb;fill-opacity:0.60273976;stroke:none;stroke-width:20;stroke-linecap:butt;stroke-linejoin:miter;stroke-miterlimit:4;stroke-dasharray:none;stroke-dashoffset:0;stroke-opacity:1;paint-order:stroke fill markers" />
    <rect
       ry="4.5638299"
       y="183.64886"
       x="29.061171"
       height="9.1276598"
       width="30.893618"
       id="rect843"
       style="opacity:1;vector-effect:none;fill:#31da46;fill-opacity:0.98173517;stroke:none;stroke-width:20;stroke-linecap:butt;stroke-linejoin:miter;stroke-miterlimit:4;stroke-dasharray:none;stroke-dashoffset:0;stroke-opacity:1;paint-order:stroke fill markers" />
    <path
       style="fill:#ff0000;stroke:#ff0000;stroke-width:1;stroke-linecap:butt;stroke-linejoin:miter;stroke-miterlimit:4;stroke-dasharray:none;stroke-opacity:1"
       d="M 29.061172,183.11969 H 76.180851"
       id="path845"
       inkscape:connector-curvature="0" />
    <rect
       ry="7.0771518"
       y="106.37234"
       x="83.227837"
       height="108.82979"
       width="50.904255"
       id="rect847"
       style="opacity:1;vector-effect:none;fill:#0079e5;fill-opacity:1;stroke:none;stroke-width:24.95752716;stroke-linecap:butt;stroke-linejoin:miter;stroke-miterlimit:4;stroke-dasharray:none;stroke-dashoffset:0;stroke-opacity:1;paint-order:stroke fill markers" />
    <rect
       ry="4.5638299"
       y="120.1489"
       x="101.1321"
       height="9.1276598"
       width="30.893618"
       id="rect849"
       style="opacity:1;vector-effect:none;fill:#b8d2eb;fill-opacity:0.60273976;stroke:none;stroke-width:20;stroke-linecap:butt;stroke-linejoin:miter;stroke-miterlimit:4;stroke-dasharray:none;stroke-dashoffset:0;stroke-opacity:1;paint-order:stroke fill markers" />
    <rect
       style="opacity:1;vector-effect:none;fill:#31da46;fill-opacity:0.98173517;stroke:none;stroke-width:20;stroke-linecap:butt;stroke-linejoin:miter;stroke-miterlimit:4;stroke-dasharray:none;stroke-dashoffset:0;stroke-opacity:1;paint-order:stroke fill markers"
       id="rect851"
       width="30.893618"
       height="9.1276598"
       x="85.257095"
       y="141.31549"
       ry="4.5638299" />
    <rect
       ry="4.5638299"
       y="130.73215"
       x="85.257095"
       height="9.1276598"
       width="30.893618"
       id="rect853"
       style="opacity:1;vector-effect:none;fill:#31da46;fill-opacity:0.98173517;stroke:none;stroke-width:20;stroke-linecap:butt;stroke-linejoin:miter;stroke-miterlimit:4;stroke-dasharray:none;stroke-dashoffset:0;stroke-opacity:1;paint-order:stroke fill markers" />
    <rect
       ry="4.5638299"
       y="204.81555"
       x="101.1321"
       height="9.1276598"
       width="30.893618"
       id="rect857"
       style="opacity:1;vector-effect:none;fill:#b8d2eb;fill-opacity:0.60273976;stroke:none;stroke-width:20;stroke-linecap:butt;stroke-linejoin:miter;stroke-miterlimit:4;stroke-dasharray:none;stroke-dashoffset:0;stroke-opacity:1;paint-order:stroke fill markers" />
    <rect
       style="opacity:1;vector-effect:none;fill:#b8d2eb;fill-opacity:0.60273976;stroke:none;stroke-width:20;stroke-linecap:butt;stroke-linejoin:miter;stroke-miterlimit:4;stroke-dasharray:none;stroke-dashoffset:0;stroke-opacity:1;paint-order:stroke fill markers"
       id="rect859"
       width="30.893618"
       height="9.1276598"
       x="101.1321"
       y="194.23221"
       ry="4.5638299" />
    <rect
       ry="4.5638299"
       y="173.06552"
       x="101.1321"
       height="9.1276598"
       width="30.893618"
       id="rect861"
       style="opacity:1;vector-effect:none;fill:#b8d2eb;fill-opacity:0.60273976;stroke:none;stroke-width:20;stroke-linecap:butt;stroke-linejoin:miter;stroke-miterlimit:4;stroke-dasharray:none;stroke-dashoffset:0;stroke-opacity:1;paint-order:stroke fill markers" />
    <rect
       style="opacity:1;vector-effect:none;fill:#b8d2eb;fill-opacity:0.60273976;stroke:none;stroke-width:20;stroke-linecap:butt;stroke-linejoin:miter;stroke-miterlimit:4;stroke-dasharray:none;stroke-dashoffset:0;stroke-opacity:1;paint-order:stroke fill markers"
       id="rect863"
       width="30.893618"
       height="9.1276598"
       x="101.1321"
       y="162.48218"
       ry="4.5638299" />
    <rect
       style="opacity:1;vector-effect:none;fill:#31da46;fill-opacity:0.98173517;stroke:none;stroke-width:20;stroke-linecap:butt;stroke-linejoin:miter;stroke-miterlimit:4;stroke-dasharray:none;stroke-dashoffset:0;stroke-opacity:1;paint-order:stroke fill markers"
       id="rect865"
       width="30.893618"
       height="9.1276598"
       x="85.257095"
       y="183.64886"
       ry="4.5638299" />
    <path
       inkscape:connector-curvature="0"
       id="path867"
       d="M 85.257098,183.11969 H 132.37678"
       style="fill:#ff0000;stroke:#ff0000;stroke-width:1;stroke-linecap:butt;stroke-linejoin:miter;stroke-miterlimit:4;stroke-dasharray:none;stroke-opacity:1" />
    <rect
       ry="4.5638299"
       y="151.89883"
       x="101.1321"
       height="9.1276598"
       width="30.893618"
       id="rect869"
       style="opacity:1;vector-effect:none;fill:#b8d2eb;fill-opacity:0.60273976;stroke:none;stroke-width:20;stroke-linecap:butt;stroke-linejoin:miter;stroke-miterlimit:4;stroke-dasharray:none;stroke-dashoffset:0;stroke-opacity:1;paint-order:stroke fill markers" />
    <path
       style="fill:#ff0000;stroke:#ff0000;stroke-width:1;stroke-linecap:butt;stroke-linejoin:miter;stroke-miterlimit:4;stroke-dasharray:none;stroke-opacity:1"
       d="M 85.257098,151.36967 H 132.37678"
       id="path871"
       inkscape:connector-curvature="0" />
    <rect
       style="opacity:1;vector-effect:none;fill:#31da46;fill-opacity:0.98173517;stroke:none;stroke-width:20;stroke-linecap:butt;stroke-linejoin:miter;stroke-miterlimit:4;stroke-dasharray:none;stroke-dashoffset:0;stroke-opacity:1;paint-order:stroke fill markers"
       id="rect873"
       width="30.893618"
       height="9.1276598"
       x="85.257095"
       y="109.56548"
       ry="4.5638299" />
    <rect
       style="opacity:1;vector-effect:none;fill:#0079e5;fill-opacity:1;stroke:none;stroke-width:22.14382744;stroke-linecap:butt;stroke-linejoin:miter;stroke-miterlimit:4;stroke-dasharray:none;stroke-dashoffset:0;stroke-opacity:1;paint-order:stroke fill markers"
       id="rect875"
       width="50.904255"
       height="85.674194"
       x="141.43619"
       y="87.751335"
       ry="5.5713539" />
    <rect
       style="opacity:1;vector-effect:none;fill:#b8d2eb;fill-opacity:0.60273976;stroke:none;stroke-width:20;stroke-linecap:butt;stroke-linejoin:miter;stroke-miterlimit:4;stroke-dasharray:none;stroke-dashoffset:0;stroke-opacity:1;paint-order:stroke fill markers"
       id="rect877"
       width="30.893618"
       height="9.1276598"
       x="159.34045"
       y="120.1489"
       ry="4.5638299" />
    <rect
       ry="4.5638299"
       y="141.31548"
       x="143.46545"
       height="9.1276598"
       width="30.893618"
       id="rect879"
       style="opacity:1;vector-effect:none;fill:#31da46;fill-opacity:0.98173517;stroke:none;stroke-width:20;stroke-linecap:butt;stroke-linejoin:miter;stroke-miterlimit:4;stroke-dasharray:none;stroke-dashoffset:0;stroke-opacity:1;paint-order:stroke fill markers" />
    <rect
       style="opacity:1;vector-effect:none;fill:#31da46;fill-opacity:0.98173517;stroke:none;stroke-width:20;stroke-linecap:butt;stroke-linejoin:miter;stroke-miterlimit:4;stroke-dasharray:none;stroke-dashoffset:0;stroke-opacity:1;paint-order:stroke fill markers"
       id="rect881"
       width="30.893618"
       height="9.1276598"
       x="143.46545"
       y="130.73215"
       ry="4.5638299" />
    <rect
       ry="4.5638299"
       y="162.48218"
       x="159.34045"
       height="9.1276598"
       width="30.893618"
       id="rect889"
       style="opacity:1;vector-effect:none;fill:#b8d2eb;fill-opacity:0.60273976;stroke:none;stroke-width:20;stroke-linecap:butt;stroke-linejoin:miter;stroke-miterlimit:4;stroke-dasharray:none;stroke-dashoffset:0;stroke-opacity:1;paint-order:stroke fill markers" />
    <rect
       style="opacity:1;vector-effect:none;fill:#b8d2eb;fill-opacity:0.60273976;stroke:none;stroke-width:20;stroke-linecap:butt;stroke-linejoin:miter;stroke-miterlimit:4;stroke-dasharray:none;stroke-dashoffset:0;stroke-opacity:1;paint-order:stroke fill markers"
       id="rect895"
       width="30.893618"
       height="9.1276598"
       x="159.34045"
       y="151.89882"
       ry="4.5638299" />
    <path
       inkscape:connector-curvature="0"
       id="path897"
       d="m 143.46544,151.36967 h 47.11968"
       style="fill:#ff0000;stroke:#ff0000;stroke-width:1;stroke-linecap:butt;stroke-linejoin:miter;stroke-miterlimit:4;stroke-dasharray:none;stroke-opacity:1" />
    <rect
       ry="4.5638299"
       y="109.56548"
       x="143.46545"
       height="9.1276598"
       width="30.893618"
       id="rect899"
       style="opacity:1;vector-effect:none;fill:#31da46;fill-opacity:0.98173517;stroke:none;stroke-width:20;stroke-linecap:butt;stroke-linejoin:miter;stroke-miterlimit:4;stroke-dasharray:none;stroke-dashoffset:0;stroke-opacity:1;paint-order:stroke fill markers" />
    <rect
       style="opacity:1;vector-effect:none;fill:#31da46;fill-opacity:0.98173517;stroke:none;stroke-width:20;stroke-linecap:butt;stroke-linejoin:miter;stroke-miterlimit:4;stroke-dasharray:none;stroke-dashoffset:0;stroke-opacity:1;paint-order:stroke fill markers"
       id="rect901"
       width="30.893618"
       height="9.1276598"
       x="143.46545"
       y="98.982155"
       ry="4.5638299" />
    <text
       xml:space="preserve"
       style="font-style:normal;font-variant:normal;font-weight:normal;font-stretch:normal;font-size:10.58333302px;line-height:1.25;font-family:Inconsolata;-inkscape-font-specification:Inconsolata;letter-spacing:0px;word-spacing:0px;fill:#000000;fill-opacity:1;stroke:none;stroke-width:0.26458332"
       x="31.595743"
       y="81.772179"
       id="text905"><tspan
         sodipodi:role="line"
         id="tspan903"
         x="31.595743"
         y="81.772179"
         style="stroke-width:0.26458332">Scroll 1</tspan></text>
    <text
       id="text913"
       y="81.772179"
       x="89.80407"
       style="font-style:normal;font-variant:normal;font-weight:normal;font-stretch:normal;font-size:10.58333302px;line-height:1.25;font-family:Inconsolata;-inkscape-font-specification:Inconsolata;letter-spacing:0px;word-spacing:0px;fill:#000000;fill-opacity:1;stroke:none;stroke-width:0.26458332"
       xml:space="preserve"><tspan
         style="stroke-width:0.26458332"
         y="81.772179"
         x="89.80407"
         id="tspan911"
         sodipodi:role="line">Scroll 2</tspan></text>
    <text
       xml:space="preserve"
       style="font-style:normal;font-variant:normal;font-weight:normal;font-stretch:normal;font-size:10.58333302px;line-height:1.25;font-family:Inconsolata;-inkscape-font-specification:Inconsolata;letter-spacing:0px;word-spacing:0px;fill:#000000;fill-opacity:1;stroke:none;stroke-width:0.26458332"
       x="148.01242"
       y="81.772179"
       id="text917"><tspan
         sodipodi:role="line"
         id="tspan915"
         x="148.01242"
         y="81.772179"
         style="stroke-width:0.26458332">Scroll 3</tspan></text>
    <rect
       style="opacity:1;vector-effect:none;fill:#ff0000;fill-opacity:0.53881273;stroke:none;stroke-width:1.80827749;stroke-linecap:butt;stroke-linejoin:miter;stroke-miterlimit:4;stroke-dasharray:none;stroke-dashoffset:0;stroke-opacity:1;paint-order:stroke fill markers"
       id="rect874"
       width="55.045799"
       height="64.176414"
       x="80.947739"
       y="151.70518"
       ry="3.7914984" />
    <rect
       ry="3.8501616"
       y="108.97529"
       x="139.74785"
       height="65.169373"
       width="55.045799"
       id="rect876"
       style="opacity:1;vector-effect:none;fill:#ff0000;fill-opacity:0.53881273;stroke:none;stroke-width:1.82221293;stroke-linecap:butt;stroke-linejoin:miter;stroke-miterlimit:4;stroke-dasharray:none;stroke-dashoffset:0;stroke-opacity:1;paint-order:stroke fill markers" />
    <path
       style="fill:#ff0000;stroke:#ff0000;stroke-width:1;stroke-linecap:butt;stroke-linejoin:miter;stroke-miterlimit:4;stroke-dasharray:none;stroke-opacity:1"
       d="m 143.46544,98.452973 h 47.11968"
       id="path878"
       inkscape:connector-curvature="0" />
    <rect
       ry="4.5638299"
       y="88.398827"
       x="143.46545"
       height="9.1276598"
       width="30.893618"
       id="rect880"
       style="opacity:1;vector-effect:none;fill:#31da46;fill-opacity:0.98173517;stroke:none;stroke-width:20;stroke-linecap:butt;stroke-linejoin:miter;stroke-miterlimit:4;stroke-dasharray:none;stroke-dashoffset:0;stroke-opacity:1;paint-order:stroke fill markers" />
    <rect
       ry="1.3716372"
       y="159.64886"
       x="23.852627"
       height="23.216879"
       width="55.045799"
       id="rect882"
       style="opacity:1;vector-effect:none;fill:#ffcc00;fill-opacity:0.53881273;stroke:none;stroke-width:1.08762515;stroke-linecap:butt;stroke-linejoin:miter;stroke-miterlimit:4;stroke-dasharray:none;stroke-dashoffset:0;stroke-opacity:1;paint-order:stroke fill markers" />
    <rect
       style="opacity:1;vector-effect:none;fill:#ffcc00;fill-opacity:0.53881273;stroke:none;stroke-width:1.53596973;stroke-linecap:butt;stroke-linejoin:miter;stroke-miterlimit:4;stroke-dasharray:none;stroke-dashoffset:0;stroke-opacity:1;paint-order:stroke fill markers"
       id="rect884"
       width="55.045799"
       height="46.303162"
       x="80.947739"
       y="104.87286"
       ry="2.735559" />
    <path
       style="opacity:1;vector-effect:none;fill:#ff0000;fill-opacity:0.95890407;stroke:none;stroke-width:1;stroke-linecap:butt;stroke-linejoin:miter;stroke-miterlimit:4;stroke-dasharray:none;stroke-dashoffset:0;stroke-opacity:1;paint-order:stroke fill markers"
       id="path892"
       d="m 145.18061,190.20864 c 0.37032,1.87118 0.73346,3.74151 0.99553,5.63124 0.26937,1.81214 0.47668,3.6326 0.62409,5.45856 0.0265,0.30925 0.0402,0.61928 0.069,0.92831 0,0 -1.31121,0.67752 -1.31121,0.67752 v 0 c -0.007,-0.31435 -0.0194,-0.62854 -0.0372,-0.94247 -0.11273,-1.832 -0.30291,-3.65805 -0.57465,-5.47359 -0.26416,-1.87926 -0.6226,-3.74146 -1.05712,-5.58905 0,0 1.29154,-0.69052 1.29154,-0.69052 z"
       inkscape:connector-curvature="0" />
    <path
       style="opacity:1;vector-effect:none;fill:#ff0000;fill-opacity:0.95890407;stroke:none;stroke-width:1;stroke-linecap:butt;stroke-linejoin:miter;stroke-miterlimit:4;stroke-dasharray:none;stroke-dashoffset:0;stroke-opacity:1;paint-order:stroke fill markers"
       id="path894"
       d="m 144.29092,193.15496 c -0.18003,-1.02612 0.10637,-1.86321 0.58918,-2.75731 0.12635,-0.17745 0.23795,-0.36639 0.37906,-0.53234 0.295,-0.34693 0.67033,-0.67118 1.06557,-0.89905 0.89539,-0.51621 1.65066,-1.07178 2.6598,-1.20495 0.26646,-0.0352 0.53739,-0.0123 0.80609,-0.0184 0.26412,0.0635 0.54001,0.09 0.79237,0.19053 1.28828,0.51325 1.97974,1.83597 2.24272,3.13115 0.086,0.42351 0.0932,0.85927 0.13974,1.2889 0.0468,2.47082 -0.64775,4.85727 -1.78813,7.03455 -0.19956,0.38102 -0.42905,0.7456 -0.64357,1.1184 -0.64526,0.96048 -1.33795,2.00386 -2.38903,2.56923 -1.73162,0.93145 -1.11136,0.91669 -2.1395,0.81929 0,0 1.18323,-0.85013 1.18323,-0.85013 v 0 c 0.78993,0.006 0.2193,-0.0726 -0.382,0.55157 -0.15134,0.1571 0.38318,-0.21147 0.55785,-0.34213 0.78383,-0.58629 1.37192,-1.37677 1.90552,-2.18573 0.5612,-0.95015 0.83661,-1.35143 1.28273,-2.3857 0.77695,-1.80127 1.23053,-3.71971 1.18652,-5.68772 -0.0454,-0.41995 -0.0516,-0.84599 -0.13617,-1.25983 -0.25506,-1.24799 -0.92905,-2.52978 -2.18981,-2.99071 -0.24656,-0.0901 -0.51407,-0.10682 -0.77111,-0.16024 -0.26281,0.0147 -0.52874,0.001 -0.78843,0.0441 -0.25618,0.0424 -0.5614,0.38885 -0.75004,0.2104 -0.16487,-0.15595 0.76936,-0.32523 0.55376,-0.39607 -0.27244,-0.0895 -1.32658,1.13617 -1.46472,1.36783 -0.46974,0.82441 -0.80002,1.69087 -0.59899,2.65331 0,0 -1.30264,0.69106 -1.30264,0.69106 z"
       inkscape:connector-curvature="0" />
    <path
       style="opacity:1;vector-effect:none;fill:#ff0000;fill-opacity:0.95890407;stroke:none;stroke-width:1;stroke-linecap:butt;stroke-linejoin:miter;stroke-miterlimit:4;stroke-dasharray:none;stroke-dashoffset:0;stroke-opacity:1;paint-order:stroke fill markers"
       id="path896"
       d="m 155.45671,196.77496 c 0.65106,-0.0275 1.2691,-0.20437 1.85912,-0.47509 0.17907,-0.0822 0.69643,-0.36817 0.52721,-0.26727 -0.24305,0.14492 -0.49935,0.26635 -0.74902,0.39953 0.51581,-0.4147 1.18834,-0.90645 1.21786,-1.62654 -0.30665,-0.67875 -1.17445,-0.69837 -1.81499,-0.68788 0.18238,-0.32046 -1.27408,0.53897 -0.99197,0.33372 0.22195,-0.16147 0.44947,-0.40548 0.72365,-0.39288 0.21126,0.01 -0.33473,0.25951 -0.48949,0.40365 -0.4211,0.39219 -0.47556,0.50822 -0.81311,0.96328 -0.45304,0.803 -0.83084,1.72668 -0.65322,2.66752 0.0309,0.16389 0.0933,0.32027 0.13988,0.48041 0.59042,1.26199 1.60959,1.62691 2.90112,1.8753 0.68996,0.012 0.92251,0.0651 1.60492,-0.12703 0.28311,-0.0797 0.53756,-0.24582 0.82194,-0.3209 0.14282,-0.0377 -0.26111,0.1382 -0.39166,0.2073 0,0 1.31692,-0.50639 1.31692,-0.50639 v 0 c -1.6441,0.9443 -2.63211,1.74237 -4.52452,1.56374 -1.34376,-0.28226 -2.38331,-0.68607 -2.99862,-1.99797 -0.0512,-0.16827 -0.11856,-0.33244 -0.15352,-0.50481 -0.1966,-0.96909 0.17064,-1.9233 0.61702,-2.76582 0.95815,-1.35506 2.38006,-2.48345 4.06383,-2.73121 0.73854,0.0139 1.61977,0.10334 1.95108,0.87258 0.0301,0.80272 -0.62025,1.29127 -1.18335,1.77081 -1.32529,0.78821 -2.58275,1.68018 -4.17224,1.73138 0,0 1.19116,-0.86543 1.19116,-0.86543 z"
       inkscape:connector-curvature="0" />
    <path
       style="opacity:1;vector-effect:none;fill:#ff0000;fill-opacity:0.95890407;stroke:none;stroke-width:1;stroke-linecap:butt;stroke-linejoin:miter;stroke-miterlimit:4;stroke-dasharray:none;stroke-dashoffset:0;stroke-opacity:1;paint-order:stroke fill markers"
       id="path898"
       d="m 160.30383,200.30338 c 0.4973,-0.83254 0.75934,-1.76946 0.93845,-2.7145 0.28693,-1.60447 -0.0379,-3.20152 -0.3711,-4.76964 -0.43145,-1.84713 -0.91389,-3.68155 -1.37526,-5.5214 -0.18103,-0.83559 -0.46909,-1.67219 -0.48104,-2.53438 0.0592,-0.73082 0.38325,-0.75495 1.41158,-1.11015 0.0886,-0.0306 0.10632,0.15579 0.14302,0.24201 0.10478,0.24615 0.23072,0.78822 0.28715,1.00738 0.54241,2.33894 1.05937,4.6796 1.68874,6.99737 0.54074,1.86579 1.20908,3.72366 2.374,5.29554 0.24522,0.30227 0.47938,0.50903 0.84968,0.6069 0,0 -1.2152,0.82332 -1.2152,0.82332 v 0 c -0.36854,-0.15159 -0.62921,-0.3728 -0.87303,-0.6981 -1.13763,-1.61113 -1.80841,-3.48428 -2.3475,-5.36914 -0.62494,-2.31311 -1.14603,-4.64892 -1.7409,-6.96917 -0.0554,-0.19595 -0.10567,-0.39343 -0.16625,-0.58784 -0.0387,-0.1243 -0.0822,-0.24729 -0.13153,-0.36775 -0.0141,-0.0344 -0.0882,-0.0731 -0.0582,-0.0951 0.37745,-0.27684 0.78786,-0.50646 1.19449,-0.73832 0.0917,-0.0523 -0.39864,0.3846 -0.10695,0.298 -0.034,0.85357 0.27332,1.69131 0.4284,2.52061 0.44446,1.84728 0.90889,3.68888 1.3582,5.53501 0.34861,1.57697 0.6946,3.18406 0.42724,4.80382 -0.16662,0.95677 -0.42581,1.89362 -0.88555,2.75553 0,0 -1.34842,0.58998 -1.34842,0.58998 z"
       inkscape:connector-curvature="0" />
    <path
       style="opacity:1;vector-effect:none;fill:#ff0000;fill-opacity:0.95890407;stroke:none;stroke-width:1;stroke-linecap:butt;stroke-linejoin:miter;stroke-miterlimit:4;stroke-dasharray:none;stroke-dashoffset:0;stroke-opacity:1;paint-order:stroke fill markers"
       id="path900"
       d="m 166.34323,194.7489 c 0.34997,-0.0802 0.705,-0.1768 1.0274,-0.33935 0.12561,-0.0633 0.48797,-0.27944 0.36192,-0.21701 -0.88506,0.43837 -1.19728,0.73728 -0.5906,0.2253 0.43265,-0.3971 0.63937,-0.90618 0.73606,-1.47162 0.0149,-0.44374 -0.23198,-0.80619 -0.53547,-1.10555 -0.25945,-0.20522 -0.5636,-0.3251 -0.89751,-0.22932 -0.0946,0.0271 -0.35417,0.17107 -0.26852,0.12264 0.32067,-0.18131 0.6495,-0.34778 0.97425,-0.52168 -0.78439,0.65897 -0.94494,1.67713 -1.07938,2.63739 -0.0953,1.14042 0.18578,1.80447 0.99995,2.57598 0.69811,0.48465 1.54824,0.77619 2.38221,0.4499 0.16814,-0.0658 0.31667,-0.17356 0.475,-0.26034 -0.25298,0.11522 -0.50099,0.44925 -0.75895,0.34566 -0.20069,-0.0806 0.31078,-0.30245 0.44575,-0.47143 0.13971,-0.17492 0.26469,-0.36228 0.37551,-0.55679 0.37263,-0.65406 0.51981,-1.32865 0.64713,-2.06049 0.0697,-1.92935 -0.596,-3.79006 -1.16113,-5.60892 -0.51572,-1.57124 -1.00771,-3.14722 -1.3799,-4.75914 -0.0281,-0.13057 -0.0569,-0.26098 -0.0843,-0.3917 -0.0195,-0.0931 -0.038,-0.18633 -0.0561,-0.27966 -0.0123,-0.0634 -0.0215,-0.12734 -0.0355,-0.19037 -0.004,-0.0187 -0.0367,-0.048 -0.0186,-0.0543 1.50703,-0.52806 1.26209,-0.86575 1.48951,0.0273 0.45812,1.98882 1.01213,3.95237 1.57179,5.91434 0.58275,1.97229 1.21028,3.9353 2.10913,5.78876 0.0927,0.15309 0.18026,0.30948 0.27826,0.45925 0.05,0.0764 0.29321,0.43672 0.41814,0.50926 0.0426,0.0247 0.19001,-0.0172 0.14765,0.008 -1.36229,0.81049 -1.40078,0.9045 -1.03475,0.43676 0.14323,-0.3233 0.19864,-0.67598 0.22632,-1.02614 0.0791,-1.33626 1.22134,-0.9138 1.87825,-0.79581 0.31523,0.0604 0.65249,0.0191 0.95254,-0.0978 0.1398,-0.0545 0.53142,-0.27875 0.40061,-0.20525 -1.09926,0.61768 -0.96016,0.54989 -0.33302,0.0791 0.98237,-0.77986 1.80977,-1.7199 2.54561,-2.72966 0.12739,-0.28728 0.87622,-1.03985 0.52828,-1.36814 -0.5566,-0.22494 -1.14058,-0.14506 -1.69497,0.0308 -0.1175,0.0646 -0.4727,0.25329 -0.3525,0.19384 0.30308,-0.14991 0.57416,-0.38008 0.90137,-0.46531 0.14649,-0.0382 -0.22605,0.20239 -0.32658,0.31558 -0.3627,0.40839 -0.58078,0.8759 -0.80647,1.36665 -0.32265,0.81728 -0.57188,1.83184 -0.006,2.61464 0.10767,0.14897 0.25642,0.26342 0.38462,0.39512 0.18753,0.10583 0.36158,0.24027 0.56259,0.31749 1.59041,0.61099 3.49266,-0.20091 4.94094,-0.82155 1.16531,-0.6293 1.52497,-0.71542 0.95806,-0.55949 0,0 1.29579,-0.50248 1.29579,-0.50248 v 0 c -2.58013,1.54473 -1.45464,0.92495 -3.34187,1.92087 -1.52209,0.63246 -3.40454,1.42228 -5.05615,0.74411 -0.21134,-0.0868 -0.39376,-0.23181 -0.59064,-0.34771 -0.13647,-0.14349 -0.29443,-0.26923 -0.4094,-0.43046 -0.58349,-0.81828 -0.38129,-1.86451 -0.0496,-2.73024 0.68814,-1.58226 1.29598,-2.15288 3.05049,-2.9007 0.58955,-0.15516 1.25514,-0.23182 1.80384,0.0952 0.0432,0.0541 0.10238,0.0987 0.12964,0.16238 0.17009,0.39719 -0.42965,1.08164 -0.59301,1.39454 -0.73817,1.01727 -1.55826,1.97128 -2.5351,2.77022 -0.89254,0.70088 -0.55693,0.46932 -2.14168,1.35955 -0.43506,0.24439 -0.93337,0.33221 -1.42239,0.2424 -0.13308,-0.0231 -0.26471,-0.0603 -0.39961,-0.0673 -0.0307,-0.002 -0.117,0.0314 -0.0911,0.0147 0.3921,-0.2523 0.79727,-0.48371 1.1959,-0.72557 -0.0711,0.004 -0.0484,-0.0139 -0.0526,0.0681 -0.0303,0.36933 -0.0944,0.7366 -0.20717,1.09014 -0.29844,0.68214 -0.11667,0.38499 -1.5259,0.99703 -0.21394,0.0929 -0.81539,-0.98453 -0.87467,-1.10606 -0.86797,-1.87825 -1.48991,-3.85134 -2.07797,-5.83231 -0.56466,-1.95577 -1.12794,-3.91161 -1.63219,-5.88409 -0.2616,-0.91975 -0.2657,-0.42189 1.08952,-1.42953 0.0107,-0.008 0.0109,0.05 0.0446,0.2651 0.0455,0.2906 0.0614,0.36159 0.11987,0.67662 0.33574,1.62005 0.82077,3.19779 1.33662,4.7688 0.56955,1.83734 1.24977,3.70867 1.21303,5.65613 -0.1531,0.97312 -0.37941,1.88302 -0.9806,2.68868 -0.13061,0.17503 -0.25764,0.36159 -0.43313,0.49158 -0.54249,0.40186 -1.13694,0.72838 -1.7054,1.09257 -0.16631,0.0773 -0.32434,0.1758 -0.49893,0.23195 -0.87806,0.2824 -1.75207,-0.0513 -2.46534,-0.56395 -0.83611,-0.80746 -1.1453,-1.515 -1.0603,-2.69824 0.12724,-0.97866 0.27203,-2.02034 1.015,-2.74008 1.01885,-0.60692 1.76729,-1.48797 2.80473,-0.67457 0.32989,0.33897 0.59285,0.73661 0.6033,1.22558 -0.0854,0.59013 -0.27761,1.13789 -0.70784,1.57051 -0.92598,0.8405 -2.10161,1.48907 -3.32673,1.76594 0,0 1.17849,-0.88633 1.17849,-0.88633 z"
       inkscape:connector-curvature="0" />
    <path
       style="opacity:1;vector-effect:none;fill:#ff0000;fill-opacity:0.95890407;stroke:none;stroke-width:1;stroke-linecap:butt;stroke-linejoin:miter;stroke-miterlimit:4;stroke-dasharray:none;stroke-dashoffset:0;stroke-opacity:1;paint-order:stroke fill markers"
       id="path902"
       d="m 170.10999,186.94918 c 1.39886,-0.71031 2.82724,-1.36602 4.25202,-2.0236 0.28676,-0.13167 0.57353,-0.26333 0.86029,-0.39499 0,0 -1.10541,0.87817 -1.10541,0.87817 v 0 c -0.28575,0.13105 -0.57151,0.26209 -0.85726,0.39314 -1.44087,0.66808 -2.88583,1.33273 -4.2957,2.06403 0,0 1.14606,-0.91675 1.14606,-0.91675 z"
       inkscape:connector-curvature="0" />
    <path
       style="opacity:1;vector-effect:none;fill:#ff0000;fill-opacity:0.95890407;stroke:none;stroke-width:1;stroke-linecap:butt;stroke-linejoin:miter;stroke-miterlimit:4;stroke-dasharray:none;stroke-dashoffset:0;stroke-opacity:1;paint-order:stroke fill markers"
       id="path904"
       d="m 159.42228,200.4605 c 0.11172,-0.0349 0.22382,-0.0687 0.33516,-0.10481 0.38352,-0.12446 0.6061,-0.19152 0.97685,-0.3757 0.19667,-0.0977 0.79493,-0.32974 0.57551,-0.32063 -0.25076,0.0104 -1.43723,0.90717 -0.0234,-0.10886 0,0 1.32831,-0.52599 1.32831,-0.52599 v 0 c -1.32708,0.97672 -2.76,1.90386 -4.37103,2.31813 0,0 1.17862,-0.88214 1.17862,-0.88214 z"
       inkscape:connector-curvature="0" />
    <path
       style="opacity:1;vector-effect:none;fill:#ffcc00;fill-opacity:0.95890407;stroke:none;stroke-width:1;stroke-linecap:butt;stroke-linejoin:miter;stroke-miterlimit:4;stroke-dasharray:none;stroke-dashoffset:0;stroke-opacity:1;paint-order:stroke fill markers"
       id="path908"
       d="m 116.92279,104.17017 c 0.77688,-1.00287 1.65302,-1.95918 2.74733,-2.62425 0.69203,-0.42058 1.40755,-0.80122 2.11132,-1.20183 2.1317,-1.063572 4.49571,-1.325665 6.83652,-1.506148 1.9317,-0.07893 3.87171,-0.182073 5.80483,-0.09347 0.63572,0.05324 0.34155,0.02267 0.88297,0.08694 0,0 -1.19098,0.843063 -1.19098,0.843063 v 0 c -0.52446,-0.06781 -0.23901,-0.03542 -0.8569,-0.0921 -1.91757,-0.09515 -3.84246,-0.0064 -5.75857,0.08182 -2.33776,0.187725 -4.69458,0.470565 -6.81066,1.561485 0.0978,-0.0655 0.38977,-0.26408 0.29339,-0.19651 -0.26236,0.18392 -0.53774,0.34979 -0.79134,0.54559 -0.7394,0.57087 -1.3636,1.2718 -1.92249,2.01561 0,0 -1.34542,0.5798 -1.34542,0.5798 z"
       inkscape:connector-curvature="0" />
    <path
       style="opacity:1;vector-effect:none;fill:#ffcc00;fill-opacity:0.95890407;stroke:none;stroke-width:1;stroke-linecap:butt;stroke-linejoin:miter;stroke-miterlimit:4;stroke-dasharray:none;stroke-dashoffset:0;stroke-opacity:1;paint-order:stroke fill markers"
       id="path910"
       d="m 133.38395,96.637127 c 0.88808,0.472199 1.78477,0.930881 2.6025,1.519396 0.88709,0.762506 0.87941,1.14708 0.26709,2.126467 -1.19547,1.43179 -2.92994,2.2503 -4.52338,3.14783 -0.55978,0.27568 -0.28796,0.17855 -0.80632,0.31585 0,0 1.15614,-0.89145 1.15614,-0.89145 v 0 c 0.48812,-0.15798 0.22819,-0.0557 0.77181,-0.32648 -0.23065,0.14057 -0.47682,0.25839 -0.69196,0.42172 -0.18385,0.13958 0.39997,-0.23065 0.59753,-0.35003 0.79596,-0.48099 1.57111,-1.01747 2.17192,-1.73708 0.60668,-0.87477 0.67339,-1.216553 -0.16786,-1.928713 -0.81568,-0.588384 -1.71162,-1.047571 -2.60976,-1.496473 0,0 1.23229,-0.801037 1.23229,-0.801037 z"
       inkscape:connector-curvature="0" />
    <path
       style="opacity:1;vector-effect:none;fill:#ffcc00;fill-opacity:0.95890407;stroke:none;stroke-width:1;stroke-linecap:butt;stroke-linejoin:miter;stroke-miterlimit:4;stroke-dasharray:none;stroke-dashoffset:0;stroke-opacity:1;paint-order:stroke fill markers"
       id="path912"
       d="m 85.778865,90.318973 c -0.293692,1.403646 -0.613343,2.801585 -0.960514,4.192936 -0.31102,1.251868 -0.678174,2.487753 -1.049261,3.722733 -0.22802,0.768463 -0.151984,0.800862 -1.501531,0.940128 -0.103796,0.01072 0.0028,-0.208979 0.01389,-0.312735 0.01579,-0.147646 0.04445,-0.293629 0.06667,-0.440444 0.236085,-1.535827 0.529469,-3.061912 0.775774,-4.596167 0.16096,-1.18328 0.353849,-2.361912 0.535126,-3.542197 0.842422,-2.736659 2.037045,-0.156771 2.406763,0.519766 0.686782,1.442072 1.370754,2.884644 2.064798,4.323064 0.447625,0.753446 0.688491,1.609985 1.123611,2.367288 0.429565,0.655238 0.374806,0.129059 -1.239938,0.954892 0,0 1.228323,-0.818634 1.228323,-0.818634 v 0 c -1.143323,0.873472 -0.881578,1.22274 -1.263674,0.597236 -0.415599,-0.772938 -0.648493,-1.63376 -1.090911,-2.396125 -0.683207,-1.43995 -1.362684,-2.881701 -2.067304,-4.311449 -0.116623,-0.205621 -0.430334,-0.774469 -0.584625,-0.993261 -0.06717,-0.09524 -0.142217,-0.185849 -0.226492,-0.266348 -0.03125,-0.02985 -0.149402,-0.0337 -0.115004,-0.05986 0.362678,-0.275873 0.750449,-0.521562 1.155023,-0.731234 0.05548,-0.02876 -0.05021,0.114451 -0.07532,0.171678 -0.213016,1.18383 -0.415798,2.370039 -0.577911,3.562011 -0.242512,1.527177 -0.534215,3.046571 -0.743439,4.578773 -0.0209,0.141039 -0.04644,0.281466 -0.06271,0.423114 -0.0109,0.09482 0.0536,0.223425 -0.01871,0.285705 -1.817619,1.565297 -1.3458,1.102458 -1.12263,0.367916 0.399796,-1.234479 0.779759,-2.475031 1.093618,-3.734625 0.344297,-1.37627 0.66062,-2.759853 0.911649,-4.156501 0,0 1.324747,-0.64766 1.324747,-0.64766 z"
       inkscape:connector-curvature="0" />
    <path
       style="opacity:1;vector-effect:none;fill:#ffcc00;fill-opacity:0.95890407;stroke:none;stroke-width:1;stroke-linecap:butt;stroke-linejoin:miter;stroke-miterlimit:4;stroke-dasharray:none;stroke-dashoffset:0;stroke-opacity:1;paint-order:stroke fill markers"
       id="path914"
       d="m 84.183237,95.244241 c 0.873102,-0.04231 1.69934,-0.252949 2.493323,-0.610867 0.147164,-0.0809 0.294327,-0.161793 0.441491,-0.242686 0,0 -1.128241,0.907555 -1.128241,0.907555 v 0 c -0.149529,0.07773 -0.299059,0.155464 -0.448588,0.233196 -0.815967,0.340233 -1.664303,0.543639 -2.551118,0.579665 0,0 1.193133,-0.866863 1.193133,-0.866863 z"
       inkscape:connector-curvature="0" />
    <path
       style="opacity:1;vector-effect:none;fill:#ffcc00;fill-opacity:0.95890407;stroke:none;stroke-width:1;stroke-linecap:butt;stroke-linejoin:miter;stroke-miterlimit:4;stroke-dasharray:none;stroke-dashoffset:0;stroke-opacity:1;paint-order:stroke fill markers"
       id="path916"
       d="m 92.65577,90.571832 c -0.536289,0.67745 -1.023348,1.388134 -1.422821,2.154463 -0.128212,0.401195 -0.557741,1.021032 -0.322942,1.4616 0.03514,0.06593 0.09857,0.112305 0.147854,0.168458 0.721815,0.361603 1.573578,0.38132 2.358091,0.547888 0.515239,0.1333 1.179211,0.451887 0.861962,1.096621 -0.05861,0.119119 -0.152939,0.217046 -0.229409,0.325568 -1.037892,0.924091 -2.308336,1.606306 -3.61782,2.068803 -0.403008,0.09289 -0.579689,0.08346 -0.811006,-0.261924 0,0 1.270645,-0.746726 1.270645,-0.746726 v 0 c 0.177544,0.250524 0.416444,0.190834 0.690703,0.109924 0.333227,-0.124881 0.376333,-0.13398 0.713068,-0.291751 0.146209,-0.0685 0.566356,-0.30739 0.434311,-0.214471 -0.251037,0.176652 -0.522589,0.322985 -0.793536,0.467254 -0.280416,0.149313 1.068091,-0.634817 0.774007,-0.556104 0.644125,-0.756827 0.377174,-0.897736 -0.485743,-1.167471 -0.809985,-0.16569 -1.711677,-0.174059 -2.424081,-0.621355 -0.05975,-0.07396 -0.134432,-0.138015 -0.179239,-0.221872 -0.260451,-0.487437 0.132347,-1.115301 0.288361,-1.566836 0.390766,-0.771213 0.872318,-1.483143 1.392296,-2.173034 0,0 1.355299,-0.579035 1.355299,-0.579035 z"
       inkscape:connector-curvature="0" />
    <path
       style="opacity:1;vector-effect:none;fill:#ffcc00;fill-opacity:0.95890407;stroke:none;stroke-width:1;stroke-linecap:butt;stroke-linejoin:miter;stroke-miterlimit:4;stroke-dasharray:none;stroke-dashoffset:0;stroke-opacity:1;paint-order:stroke fill markers"
       id="path918"
       d="m 96.898935,90.3392 c -0.393039,0.749345 -0.803592,1.488988 -1.183076,2.245503 -0.279125,0.624586 -0.453187,0.988245 0.140255,1.443386 0.72939,0.321242 1.529522,0.416709 2.263762,0.727033 0.777322,0.547746 0.572582,1.012793 -0.08884,1.533509 -1.074947,0.64946 -2.187919,1.385869 -3.47445,1.468102 -0.289224,-0.06732 -0.161423,-2.65e-4 -0.382397,-0.20292 0,0 1.249833,-0.781264 1.249833,-0.781264 v 0 c 0.174276,0.126756 0.07266,0.0837 0.311843,0.11121 0.338389,-0.03949 0.661419,-0.116854 0.985761,-0.224081 0.138679,-0.04585 0.520309,-0.248576 0.411155,-0.151519 -0.24533,0.218143 -0.562343,0.339701 -0.83252,0.52619 -0.118176,0.08157 0.250442,-0.140563 0.375661,-0.210841 0.578046,-0.367861 0.980625,-0.784958 0.229605,-1.256996 -0.748085,-0.303472 -1.566799,-0.393488 -2.290249,-0.758624 -0.628269,-0.516819 -0.543348,-0.917911 -0.225779,-1.623086 0.375369,-0.753452 0.789479,-1.486498 1.167339,-2.238397 0,0 1.342096,-0.607205 1.342096,-0.607205 z"
       inkscape:connector-curvature="0" />
    <path
       style="opacity:1;vector-effect:none;fill:#ffcc00;fill-opacity:0.95890407;stroke:none;stroke-width:1;stroke-linecap:butt;stroke-linejoin:miter;stroke-miterlimit:4;stroke-dasharray:none;stroke-dashoffset:0;stroke-opacity:1;paint-order:stroke fill markers"
       id="path920"
       d="m 99.528499,92.264284 c 0.40949,0.858793 0.824411,1.714543 1.304091,2.536593 0.20712,0.221228 0.64154,1.202465 0.9764,1.254032 0.0335,0.0052 0.0567,-0.03708 0.085,-0.05562 -1.25642,0.645956 -1.28006,1.045625 -1.13864,0.382278 0,0 1.31569,-0.651365 1.31569,-0.651365 v 0 c -0.0319,0.822627 0.0698,0.236051 -1.36659,1.14984 -0.56955,-0.142246 -0.783721,-0.956083 -1.125528,-1.354963 -0.477454,-0.82627 -0.890508,-1.685534 -1.330547,-2.531925 0,0 1.280104,-0.728872 1.280104,-0.728872 z"
       inkscape:connector-curvature="0" />
    <path
       style="opacity:1;vector-effect:none;fill:#ffcc00;fill-opacity:0.95890407;stroke:none;stroke-width:1;stroke-linecap:butt;stroke-linejoin:miter;stroke-miterlimit:4;stroke-dasharray:none;stroke-dashoffset:0;stroke-opacity:1;paint-order:stroke fill markers"
       id="path922"
       d="m 104.2119,93.511035 c -0.51745,-0.212309 -1.1293,-0.527994 -1.70471,-0.361381 -0.11388,0.03297 -0.21539,0.09911 -0.32309,0.148659 0.31229,-0.164134 0.59581,-0.402206 0.93688,-0.492405 0.13557,-0.03585 -0.19619,0.202221 -0.27588,0.317603 -0.3315,0.479941 -0.47401,1.017503 -0.44739,1.590244 0.177,0.547478 0.68805,0.932164 1.27237,0.71112 0.11758,-0.04448 0.22026,-0.121253 0.33039,-0.181877 -0.30465,0.154019 -0.58038,0.389512 -0.91395,0.462063 -0.14251,0.03099 0.20466,-0.209145 0.29111,-0.326599 0.089,-0.120946 0.16385,-0.25228 0.23305,-0.385561 0.19133,-0.368533 0.29191,-0.740082 0.35742,-1.146014 -0.002,-0.304033 0.10568,-0.732242 -0.16124,-0.958948 -0.0633,-0.03297 -0.0433,-0.03993 -0.0494,0.03986 0.41303,-0.211513 0.80537,-0.469546 1.23908,-0.634537 0.0481,-0.01828 0.0148,0.102523 0.0324,0.150852 0.0608,0.166963 0.14691,0.264165 0.25076,0.412308 0.86453,0.949278 1.55383,2.008921 2.14131,3.146237 0.67503,1.548009 0.93076,3.254907 0.57786,4.920671 -0.0738,0.3482 -0.19631,0.68425 -0.29447,1.02638 -0.513,1.26019 -1.31307,2.36318 -2.41853,3.16916 -0.74653,0.54428 -2.21086,1.20117 -2.83383,1.51315 -1.17636,0.29129 -2.30496,0.12125 -3.181146,-0.77762 -0.590815,-0.6061 -0.725728,-1.03943 -1.095195,-1.79303 -0.465426,-1.0864 -0.583679,-2.23626 -0.688089,-3.39727 0,0 1.237359,-0.64407 1.237359,-0.64407 v 0 c 0.09644,1.14522 0.205332,2.2786 0.668303,3.34898 0.360309,0.72669 0.493384,1.15339 1.074018,1.72972 0.86434,0.85795 1.97281,0.96674 3.09829,0.65772 -0.13071,0.12103 -0.56426,0.40891 -0.39212,0.36309 0.30055,-0.08 0.54926,-0.29493 0.80437,-0.47282 1.11361,-0.77658 1.92819,-1.85532 2.45945,-3.09633 0.10101,-0.33609 0.22646,-0.66579 0.30303,-1.00827 0.3654,-1.634502 0.1186,-3.315979 -0.55124,-4.83537 -0.59259,-1.130218 -1.29336,-2.1741 -2.17123,-3.105647 -0.0256,-0.03535 -0.43447,-0.561602 -0.3426,-0.647248 0.66912,-0.623829 0.89991,-1.247749 1.39487,-0.842124 0.27859,0.300263 0.22531,0.70897 0.20721,1.091967 -0.0731,0.54672 -0.37496,1.623463 -0.84058,1.960113 -0.50256,0.363344 -1.05101,0.658559 -1.57651,0.987838 -0.11997,0.04921 -0.23381,0.117393 -0.3599,0.147619 -0.66302,0.158927 -1.19859,-0.325869 -1.39705,-0.915691 -0.0106,-0.135266 -0.0393,-0.270336 -0.0317,-0.405797 0.0232,-0.410469 0.34825,-1.389965 0.69388,-1.636006 0.49684,-0.353693 1.04444,-0.630047 1.56666,-0.945071 0.11629,-0.03839 0.22839,-0.09324 0.34887,-0.115175 0.60563,-0.110263 1.21717,0.204885 1.76145,0.419822 0,0 -1.23058,0.80968 -1.23058,0.80968 z"
       inkscape:connector-curvature="0" />
    <path
       style="opacity:1;vector-effect:none;fill:#ffcc00;fill-opacity:0.95890407;stroke:none;stroke-width:1;stroke-linecap:butt;stroke-linejoin:miter;stroke-miterlimit:4;stroke-dasharray:none;stroke-dashoffset:0;stroke-opacity:1;paint-order:stroke fill markers"
       id="path924"
       d="m 105.95855,93.762615 c 0.22025,0.672255 0.47997,1.330282 0.72984,1.991891 0.065,0.212426 0.18361,0.410507 0.21623,0.631365 -0.48704,0.190976 -0.9507,0.458261 -1.46112,0.572934 -0.0884,0.01987 -0.12651,-0.130733 -0.17933,-0.204388 -0.35253,-0.491612 -0.41818,-1.087975 -0.47602,-1.671132 0.0161,-1.398445 0.63304,-2.633906 1.50938,-3.688551 0.99794,-0.944158 2.33948,-1.863209 3.63652,-1.03619 0.15834,0.100962 0.29186,0.236384 0.43779,0.354576 0.53866,0.515038 0.89395,1.171448 1.23092,1.826463 0,0 -1.25848,0.717699 -1.25848,0.717699 v 0 c -0.32179,-0.640094 -0.6633,-1.28092 -1.19514,-1.775109 -0.41844,-0.321923 -0.80536,-0.597961 -1.3618,-0.596926 -0.15885,2.65e-4 -0.56062,0.206105 -0.47057,0.07524 0.17185,-0.249743 0.48111,-0.381757 0.76124,-0.497652 0.18165,-0.07515 -0.30507,0.248023 -0.45761,0.372033 -0.91996,1.039648 -1.4977,2.169763 -1.55114,3.579953 0.0437,0.459933 0.0878,0.901694 0.29243,1.324234 0.0434,0.08963 0.0976,0.174389 0.1578,0.253682 0.0488,0.06419 0.22525,0.118203 0.1675,0.174453 -0.33405,0.325388 -0.77054,0.525489 -1.15582,0.788234 0.0195,0.01744 0.0333,0.04525 0.0585,0.05229 0.035,0.0098 -0.0222,-0.06919 -0.0337,-0.103667 -0.0487,-0.146523 -0.0993,-0.292438 -0.15036,-0.438152 -0.23691,-0.667544 -0.4925,-1.328018 -0.7382,-1.992196 0,0 1.29114,-0.711086 1.29114,-0.711086 z"
       inkscape:connector-curvature="0" />
    <path
       style="opacity:1;vector-effect:none;fill:#ffcc00;fill-opacity:0.95890407;stroke:none;stroke-width:1;stroke-linecap:butt;stroke-linejoin:miter;stroke-miterlimit:4;stroke-dasharray:none;stroke-dashoffset:0;stroke-opacity:1;paint-order:stroke fill markers"
       id="path926"
       d="m 118.86977,89.61721 c -0.47451,-0.0898 -0.9671,-0.06783 -1.41982,0.111533 -0.14481,0.05737 -0.55484,0.282858 -0.41973,0.205351 0.27117,-0.155562 0.55224,-0.293182 0.82836,-0.439775 -0.84953,0.650142 -1.25755,1.434412 -1.32041,2.491841 0.20596,1.211945 0.94011,1.412578 2.04558,1.425736 0.28587,-0.04192 1.83006,-0.474316 1.88896,-0.759407 0.10446,-0.505629 -1.79157,1.392219 -0.076,-0.22643 0,0 1.32113,-0.544775 1.32113,-0.544775 v 0 c -0.9995,0.993907 -0.42097,0.495382 -2.35646,1.670077 -0.6056,0.367551 -1.23366,0.639487 -1.94668,0.704429 -0.19654,-0.0096 -0.39513,0.0011 -0.5896,-0.02892 -0.84888,-0.130922 -1.46956,-0.740011 -1.58361,-1.587842 0.0406,-1.086895 0.41752,-1.915654 1.26807,-2.617075 1.26497,-0.756203 2.0939,-1.510692 3.56736,-1.25167 0,0 -1.20712,0.846923 -1.20712,0.846923 z"
       inkscape:connector-curvature="0" />
    <path
       style="opacity:1;vector-effect:none;fill:#ffcc00;fill-opacity:0.95890407;stroke:none;stroke-width:1;stroke-linecap:butt;stroke-linejoin:miter;stroke-miterlimit:4;stroke-dasharray:none;stroke-dashoffset:0;stroke-opacity:1;paint-order:stroke fill markers"
       id="path928"
       d="m 119.3382,83.689123 c 0.19403,1.410139 0.67334,2.765113 1.1574,4.097676 0.57165,1.412552 1.28927,2.765274 2.21551,3.976589 0.31045,0.419788 0.70944,0.683808 1.15811,0.927354 0,0 -1.2164,0.791769 -1.2164,0.791769 v 0 c -0.45451,-0.265086 -0.86317,-0.549032 -1.1766,-0.985502 -0.92298,-1.230606 -1.64394,-2.597565 -2.22205,-4.022016 -0.48968,-1.339662 -0.96735,-2.696985 -1.21592,-4.105288 0,0 1.29995,-0.680582 1.29995,-0.680582 z"
       inkscape:connector-curvature="0" />
    <path
       style="opacity:1;vector-effect:none;fill:#ffcc00;fill-opacity:0.95890407;stroke:none;stroke-width:1;stroke-linecap:butt;stroke-linejoin:miter;stroke-miterlimit:4;stroke-dasharray:none;stroke-dashoffset:0;stroke-opacity:1;paint-order:stroke fill markers"
       id="path930"
       d="m 127.31915,90.986066 c -0.4891,-0.397642 -1.00108,-0.739399 -1.57503,-1.001471 -0.45549,-0.165754 -0.93368,-0.28742 -1.41238,-0.13897 -0.13631,0.04227 -0.51679,0.239951 -0.39441,0.166529 0.27317,-0.16391 0.56589,-0.292793 0.84883,-0.43919 -0.68228,0.645999 -1.29745,1.494703 -1.39287,2.4614 -0.017,0.171913 0.009,0.345395 0.0128,0.518091 0.045,0.14482 0.0652,0.2998 0.1349,0.434459 0.31847,0.615053 1.06208,0.713076 1.67212,0.551649 0.19357,-0.05122 0.37221,-0.147757 0.55832,-0.221636 0.18761,-0.109366 0.77485,-0.281141 0.56283,-0.328094 -0.25308,-0.05605 -0.50493,0.437602 -0.72021,0.29324 -0.18063,-0.121118 0.308,-0.308547 0.44238,-0.479536 0.383,-0.487334 0.61235,-1.030462 0.82594,-1.604317 0.16957,-0.617974 0.2011,-1.259448 0.12463,-1.89326 -0.005,-0.02246 -0.0313,-0.08447 -0.0158,-0.06737 0.0243,0.02691 0.0298,0.06618 0.0447,0.09927 0.41556,-0.225287 0.80644,-0.503738 1.24669,-0.675862 0.0573,-0.02241 -0.003,0.124306 0.0103,0.184417 0.0367,0.165603 0.15886,0.397116 0.22627,0.539864 0.44869,0.874556 1.18565,1.426019 2.06582,1.811454 0.25444,0.08404 0.49366,0.188121 0.76788,0.187311 0.44858,-0.0013 1.28595,-0.590301 -0.72248,0.498626 0,0 1.36816,-0.526552 1.36816,-0.526552 v 0 c -1.37807,0.768077 -1.38491,1.115716 -2.62261,0.642966 -0.89765,-0.417721 -1.65211,-1.001638 -2.12754,-1.892297 -0.51136,-1.028764 -0.44619,-0.835763 0.97634,-1.665216 0.0592,-0.03454 0.0875,0.16415 0.0904,0.178258 0.0694,0.658915 0.0386,1.324313 -0.12539,1.968637 -0.70385,1.986942 -1.54488,2.607482 -3.55253,3.614785 -0.19462,0.06508 -0.38278,0.154324 -0.58387,0.195255 -0.97706,0.198863 -1.69649,-0.225457 -1.93292,-1.185326 -0.008,-0.183247 -0.038,-0.366823 -0.0244,-0.549743 0.0739,-0.99105 0.68014,-1.863074 1.34098,-2.56009 1.41466,-0.850027 2.00261,-1.525296 3.52658,-0.925824 0.57966,0.276145 1.09739,0.631399 1.60365,1.024617 0,0 -1.24803,0.783923 -1.24803,0.783923 z"
       inkscape:connector-curvature="0" />
    <path
       style="opacity:1;vector-effect:none;fill:#ffcc00;fill-opacity:0.95890407;stroke:none;stroke-width:1;stroke-linecap:butt;stroke-linejoin:miter;stroke-miterlimit:4;stroke-dasharray:none;stroke-dashoffset:0;stroke-opacity:1;paint-order:stroke fill markers"
       id="path932"
       d="m 127.03424,79.934381 c 0.10573,1.504889 0.51659,2.967852 0.98061,4.396087 0.52418,1.758637 1.29318,3.409891 2.37556,4.890388 0.53283,0.591262 1.36814,1.54921 2.25092,1.572549 0.11362,0.003 0.22348,-0.04161 0.33521,-0.06242 0,0 -1.17178,0.871953 -1.17178,0.871953 v 0 c -0.12059,0.0058 -0.24199,0.0326 -0.36176,0.01746 -0.9213,-0.116375 -1.71303,-1.027687 -2.27923,-1.674342 -1.07766,-1.500857 -1.84943,-3.166036 -2.38511,-4.935513 -0.47403,-1.429258 -0.88528,-2.890724 -1.04559,-4.392684 0,0 1.30117,-0.683491 1.30117,-0.683491 z"
       inkscape:connector-curvature="0" />
    <path
       style="opacity:1;vector-effect:none;fill:#ffcc00;fill-opacity:0.95890407;stroke:none;stroke-width:1;stroke-linecap:butt;stroke-linejoin:miter;stroke-miterlimit:4;stroke-dasharray:none;stroke-dashoffset:0;stroke-opacity:1;paint-order:stroke fill markers"
       id="path934"
       d="m 128.61081,85.523471 c 0.10084,-0.01199 0.20168,-0.024 0.30253,-0.03598 0,0 -1.17291,0.876316 -1.17291,0.876316 v 0 c -0.10271,0.01532 -0.20541,0.03066 -0.30812,0.04599 0,0 1.1785,-0.886325 1.1785,-0.886325 z"
       inkscape:connector-curvature="0" />
    <path
       style="opacity:1;vector-effect:none;fill:#ffcc00;fill-opacity:0.95890407;stroke:none;stroke-width:1;stroke-linecap:butt;stroke-linejoin:miter;stroke-miterlimit:4;stroke-dasharray:none;stroke-dashoffset:0;stroke-opacity:1;paint-order:stroke fill markers"
       id="path936"
       d="m 133.33468,86.555854 c 0.76597,0.0693 1.47815,-0.106818 2.18728,-0.376558 1.04786,-0.53236 -0.3131,0.223356 -0.48868,0.298017 -0.13139,0.05587 0.23208,-0.166535 0.34398,-0.255202 0.30845,-0.244398 0.56742,-0.518213 0.82727,-0.81177 0.33384,-0.397648 0.65316,-0.722091 0.27374,-1.198007 -0.79825,-0.511445 -1.56118,-0.317797 -2.3631,0.06584 0.24642,-0.1333 0.45912,-0.396592 0.73927,-0.399894 0.20726,-0.0024 -0.3316,0.250844 -0.47876,0.396822 -0.15001,0.148823 -0.28749,0.311428 -0.40926,0.484127 -0.40104,0.568743 -0.57074,1.171321 -0.71993,1.838817 -0.11402,1.149302 0.31632,2.23312 1.42944,2.715278 0.25502,0.110464 0.53205,0.160827 0.79808,0.241242 1.08643,0.22216 2.11876,-0.01595 3.17511,-0.250664 0,0 -1.10899,0.842257 -1.10899,0.842257 v 0 c -1.08015,0.22561 -2.13494,0.45321 -3.23924,0.207668 -0.27537,-0.0885 -0.56286,-0.145677 -0.82611,-0.26552 -1.15007,-0.523557 -1.6143,-1.663853 -1.51848,-2.866517 0.4553,-2.26101 1.24557,-2.722956 3.2914,-3.841527 0.87091,-0.363136 1.68058,-0.511212 2.4932,0.07962 0.41602,0.543896 0.22702,0.90502 -0.19192,1.382672 -0.85734,1.000633 -1.92731,1.747084 -3.17236,2.232078 -0.72714,0.257366 -1.4594,0.398815 -2.23507,0.348083 0,0 1.19313,-0.866862 1.19313,-0.866862 z"
       inkscape:connector-curvature="0" />
    <path
       style="opacity:1;vector-effect:none;fill:#ffcc00;fill-opacity:0.95890407;stroke:none;stroke-width:1;stroke-linecap:butt;stroke-linejoin:miter;stroke-miterlimit:4;stroke-dasharray:none;stroke-dashoffset:0;stroke-opacity:1;paint-order:stroke fill markers"
       id="path938"
       d="m 53.70745,160.12834 c 0.0097,-0.64281 0.0061,-1.28572 0.0045,-1.92857 0.02995,-0.55036 0.146042,-1.08589 0.332489,-1.60309 0.201766,-0.56573 0.412212,-1.1309 0.682632,-1.66783 0.175033,-0.39824 0.469773,-0.70553 0.776103,-1.00424 0.649412,-0.62812 1.50482,-0.98626 2.32995,-1.32852 0.417396,-0.16775 0.865494,-0.20914 1.309944,-0.23776 0.496117,-0.007 0.981906,-0.0145 1.470792,-0.10049 0.552852,-0.1003 1.115375,-0.12965 1.675852,-0.15123 0.533271,0.004 1.055997,-0.0147 1.582706,-0.0939 0.615032,-0.11258 1.242486,-0.10257 1.860016,-0.18731 0.680709,-0.11563 1.368623,-0.17099 2.057598,-0.20353 0.644168,-0.0259 1.289018,-0.0259 1.933596,-0.0256 0.670552,-2.6e-4 1.341099,0.002 2.011648,0.002 0.663634,0.0103 1.319417,-0.11926 1.978094,-0.18699 0.518681,-0.0498 1.039913,-0.0583 1.560555,-0.0634 0.564692,-0.002 1.129403,-8e-4 1.694095,5.2e-4 0.630706,-0.0777 1.261301,-0.15265 1.89438,-0.20837 0.347615,-0.0257 0.696127,-0.0386 1.044575,-0.0463 0.734372,-0.0784 -0.714052,1.09181 -1.29495,0.69382 -0.04999,-0.0259 -0.09998,-0.0518 -0.149969,-0.0776 0,0 1.234528,-0.80716 1.234528,-0.80716 v 0 c 0.05338,0.0296 0.106762,0.0592 0.160141,0.0888 0.570029,0.37921 -0.606753,1.00911 -1.147569,0.9756 -0.342469,0.004 -0.684901,0.0173 -1.026298,0.0455 -0.634545,0.0541 -1.264906,0.14412 -1.899438,0.19619 -0.56564,5.3e-4 -1.13129,-0.002 -1.696913,0.004 -0.517184,0.007 -1.034868,0.0189 -1.549736,0.0724 -0.659617,0.071 -1.317837,0.1893 -1.983409,0.17173 -0.670889,-5.3e-4 -1.341777,-5.3e-4 -2.012665,-7.9e-4 -0.642927,0.002 -1.286115,0.002 -1.92855,0.0308 -0.687274,0.0365 -1.371949,0.10252 -2.051706,0.21262 -0.619842,0.0698 -1.246061,0.0807 -1.86149,0.19229 -0.529116,0.0753 -1.058396,0.071 -1.592069,0.082 -0.558242,0.0249 -1.116957,0.0629 -1.666991,0.16692 -0.491392,0.0757 -0.983917,0.0655 -1.479564,0.0907 -0.439494,0.0373 -0.877204,0.0982 -1.285835,0.27472 -0.558496,0.20642 -0.999167,0.53989 0.696444,-0.50296 0.256538,-0.15778 -0.754523,0.38463 -0.505404,0.36062 -0.304975,0.2883 -0.622988,0.5749 -0.800402,0.96393 -0.291716,0.52033 -0.490185,1.09025 -0.689895,1.6508 -0.199044,0.49933 -0.310936,1.02082 -0.35823,1.55653 -0.0016,0.64133 -0.0052,1.28271 0.0045,1.92399 0,0 -1.31405,0.66954 -1.31405,0.66954 z"
       inkscape:connector-curvature="0" />
    <path
       style="opacity:1;vector-effect:none;fill:#ffcc00;fill-opacity:0.95890407;stroke:none;stroke-width:1;stroke-linecap:butt;stroke-linejoin:miter;stroke-miterlimit:4;stroke-dasharray:none;stroke-dashoffset:0;stroke-opacity:1;paint-order:stroke fill markers"
       id="path940"
       d="m 76.284679,147.48924 c 0.924361,0.43707 1.90292,0.73516 2.825451,1.17657 0.532648,0.28906 1.195096,0.73144 1.208841,1.41694 0.0024,0.11486 -0.03332,0.22734 -0.04998,0.34102 -0.411406,0.97382 -1.384536,1.55073 -2.203416,2.1596 -0.476861,0.34918 -0.941821,0.71405 -1.406274,1.07942 0,0 -1.34263,0.5374 -1.34263,0.5374 v 0 c 0.467315,-0.36637 0.933937,-0.73379 1.411983,-1.08619 0.793059,-0.58335 1.754741,-1.16515 2.224455,-2.05118 0.02437,-0.098 0.06753,-0.19324 0.07308,-0.2941 0.03524,-0.63947 -0.651444,-1.04408 -1.124244,-1.30481 -0.925256,-0.44079 -1.903648,-0.74638 -2.841234,-1.159 0,0 1.223963,-0.81567 1.223963,-0.81567 z"
       inkscape:connector-curvature="0" />
    <path
       style="opacity:1;vector-effect:none;fill:#ffcc00;fill-opacity:0.95890407;stroke:none;stroke-width:1;stroke-linecap:butt;stroke-linejoin:miter;stroke-miterlimit:4;stroke-dasharray:none;stroke-dashoffset:0;stroke-opacity:1;paint-order:stroke fill markers"
       id="path942"
       d="m 32.183456,132.26053 c -0.0098,1.46118 -0.02109,2.91926 -0.126939,4.37714 -0.108882,1.24059 -0.221531,2.48085 -0.32647,3.72179 -0.06144,0.73137 0.111334,0.61478 -1.358325,0.86828 -0.09251,0.0159 0.0016,-0.18775 0.0024,-0.28163 0.0013,-0.13635 0.0026,-0.27271 0.0038,-0.40907 0.112596,-1.52904 0.181443,-3.05998 0.222112,-4.5925 0.0515,-1.15195 0.02236,-2.32889 0.229468,-3.46807 1.020024,-2.17056 2.211906,-0.29365 2.821961,0.53584 0.875422,1.28421 1.73205,2.58124 2.641759,3.84171 0.393795,0.54554 0.773425,1.10232 1.049213,1.71787 0.275892,0.6668 -0.359399,0.47401 -1.306632,1.00028 0,0 1.182572,-0.89192 1.182572,-0.89192 v 0 c -0.391232,0.24196 -0.791623,0.4697 -1.173695,0.72589 -0.01611,0.0108 0.03599,0.0373 0.05195,0.0262 0.03945,-0.0273 -0.109342,-0.12452 -0.04307,-0.13726 -0.246584,-0.61682 -0.618239,-1.16859 -0.996103,-1.71169 -0.895602,-1.26889 -1.746248,-2.56871 -2.639425,-3.83924 -0.30742,-0.40273 -0.41946,-0.58018 -0.762707,-0.92551 -0.09318,-0.0937 -0.189468,-0.18579 -0.296611,-0.2632 -0.0647,-0.0467 -0.272979,-0.0517 -0.214622,-0.10616 0.325268,-0.30347 0.743191,-0.48911 1.114785,-0.73367 -0.03693,0.041 -0.07386,0.082 -0.110789,0.12293 -0.268531,1.12572 -0.217691,2.31911 -0.283546,3.46596 -0.04207,1.52467 -0.09649,3.04869 -0.1894,4.57123 0.0019,0.13451 0.0029,0.26901 0.0053,0.40351 0.0016,0.0909 0.07796,0.21641 0.0066,0.2728 -1.638324,1.29449 -1.348084,1.16168 -1.269175,0.45968 0.142182,-1.24604 0.266404,-2.49404 0.377764,-3.7432 0.106887,-1.44506 0.116131,-2.89018 0.07381,-4.3385 0,0 1.31405,-0.66954 1.31405,-0.66954 z"
       inkscape:connector-curvature="0" />
    <path
       style="opacity:1;vector-effect:none;fill:#ffcc00;fill-opacity:0.95890407;stroke:none;stroke-width:1;stroke-linecap:butt;stroke-linejoin:miter;stroke-miterlimit:4;stroke-dasharray:none;stroke-dashoffset:0;stroke-opacity:1;paint-order:stroke fill markers"
       id="path944"
       d="m 32.052921,137.19674 c 0.890876,-0.0716 1.725798,-0.4038 2.534994,-0.76108 0.695569,-0.40886 0.585195,-0.33385 -0.366498,0.16109 0,0 1.345414,-0.52983 1.345414,-0.52983 v 0 c -1.813266,1.11134 -1.096772,0.70938 -2.114134,1.26682 -0.827792,0.35377 -1.684727,0.6774 -2.592909,0.72986 0,0 1.193133,-0.86686 1.193133,-0.86686 z"
       inkscape:connector-curvature="0" />
    <path
       style="opacity:1;vector-effect:none;fill:#ffcc00;fill-opacity:0.95890407;stroke:none;stroke-width:1;stroke-linecap:butt;stroke-linejoin:miter;stroke-miterlimit:4;stroke-dasharray:none;stroke-dashoffset:0;stroke-opacity:1;paint-order:stroke fill markers"
       id="path946"
       d="m 40.793982,131.07671 c -0.353317,0.72483 -0.613667,1.48592 -0.785874,2.27251 -0.126214,0.83234 0.275077,1.10363 0.926989,1.49786 0.694502,0.38737 1.331653,0.70675 1.649151,1.47042 0.190669,1.25526 -1.323107,1.75248 -2.166321,2.24314 -0.662869,0.30637 -0.884807,0.15555 -0.986915,-0.56152 0,0 1.297382,-0.68126 1.297382,-0.68126 v 0 c 0.06973,0.68616 0.295103,0.57585 0.828421,0.32131 -0.330345,0.19396 -0.656682,0.39492 -0.991042,0.58188 -0.09587,0.0536 0.18895,-0.11329 0.275032,-0.18152 0.316249,-0.25065 0.526267,-0.59743 0.464836,-1.00772 -0.275381,-0.71187 -0.960086,-1.03606 -1.593406,-1.39484 -0.692311,-0.42644 -1.12986,-0.76958 -1.019077,-1.65252 0.167844,-0.79185 0.42454,-1.55805 0.764331,-2.29358 0,0 1.336493,-0.61416 1.336493,-0.61416 z"
       inkscape:connector-curvature="0" />
    <path
       style="opacity:1;vector-effect:none;fill:#ffcc00;fill-opacity:0.95890407;stroke:none;stroke-width:1;stroke-linecap:butt;stroke-linejoin:miter;stroke-miterlimit:4;stroke-dasharray:none;stroke-dashoffset:0;stroke-opacity:1;paint-order:stroke fill markers"
       id="path948"
       d="m 44.54612,131.28904 c -0.228836,0.7008 -0.362223,1.41265 -0.19226,2.13741 0.193609,0.61536 0.676524,1.00962 1.117465,1.44337 0.41533,0.46475 0.559658,0.79904 0.137399,1.30842 -0.782588,0.5283 -1.731204,1.28856 -2.75009,1.30651 -0.06161,-0.0334 -0.123227,-0.0669 -0.184843,-0.10031 0,0 1.227976,-0.81668 1.227976,-0.81668 v 0 c 0.04743,0.0145 0.09486,0.029 0.14229,0.0435 0.240869,-0.0292 0.45988,-0.0905 0.686025,-0.18098 0.09342,-0.0374 0.360654,-0.17637 0.276416,-0.12133 -0.243105,0.15884 -1.506525,0.90892 -0.755063,0.43456 0.469511,-0.41684 0.369917,-0.66037 -0.02889,-1.10709 -0.460152,-0.45283 -0.949632,-0.87745 -1.15525,-1.5157 -0.184031,-0.74587 -0.06617,-1.47371 0.144627,-2.20513 0,0 1.334193,-0.62659 1.334193,-0.62659 z"
       inkscape:connector-curvature="0" />
    <path
       style="opacity:1;vector-effect:none;fill:#ffcc00;fill-opacity:0.95890407;stroke:none;stroke-width:1;stroke-linecap:butt;stroke-linejoin:miter;stroke-miterlimit:4;stroke-dasharray:none;stroke-dashoffset:0;stroke-opacity:1;paint-order:stroke fill markers"
       id="path950"
       d="m 46.405223,132.23086 c 0.437914,0.81445 1.005848,1.53939 1.613434,2.2319 0.257538,0.18267 0.87199,1.01034 1.184812,1.04562 0.03563,0.004 0.06154,-0.0368 0.09231,-0.0552 0,0 -1.186783,0.88377 -1.186783,0.88377 v 0 c -0.534765,-0.10239 -0.927499,-0.80437 -1.331349,-1.12521 -0.612513,-0.7054 -1.18087,-1.44325 -1.652532,-2.252 0,0 1.280105,-0.72887 1.280105,-0.72887 z"
       inkscape:connector-curvature="0" />
    <path
       style="opacity:1;vector-effect:none;fill:#ffcc00;fill-opacity:0.95890407;stroke:none;stroke-width:1;stroke-linecap:butt;stroke-linejoin:miter;stroke-miterlimit:4;stroke-dasharray:none;stroke-dashoffset:0;stroke-opacity:1;paint-order:stroke fill markers"
       id="path952"
       d="m 51.845074,130.82499 c -0.377795,0.0199 -0.739566,0.0991 -1.084355,0.25824 -0.148714,0.0686 -0.581025,0.30219 -0.432342,0.23349 0.909878,-0.42042 1.107953,-0.67956 0.474972,-0.0717 -0.323884,0.41358 -0.918641,1.19232 -0.46699,1.72723 0.06212,0.0736 0.151427,0.11896 0.227143,0.17844 0.10279,0.0316 0.201482,0.083 0.308374,0.0947 0.260326,0.0284 0.522568,-0.043 0.754187,-0.15537 0.133157,-0.0646 0.515152,-0.28726 0.376637,-0.23513 -0.872551,0.3284 -1.154073,0.74417 -0.554681,0.0604 0.422765,-0.5943 0.698228,-1.29497 0.687195,-2.02902 -0.02297,-0.18997 -0.03746,-0.39463 -0.127535,-0.56809 1.597631,-0.82507 0.970807,-0.92024 1.703314,-0.1955 0.10514,0.0915 0.206404,0.18773 0.315415,0.27462 0.532106,0.42412 1.09742,0.80324 1.619774,1.24088 0.701466,0.5877 0.701029,0.62069 1.357754,1.28918 1.180206,1.39132 1.943574,3.11616 1.997342,4.95925 0.0109,0.37335 -0.03938,0.74598 -0.05907,1.11897 -0.212439,1.3876 -0.791993,2.66568 -1.83048,3.63115 -0.774438,0.71998 -1.806787,1.17591 -2.698335,1.67985 -1.18455,0.47781 -2.539904,0.48092 -3.49359,-0.48602 -0.176977,-0.17943 -0.305101,-0.40123 -0.457655,-0.60184 -1.036386,-1.9984 -0.60248,-3.8043 0.04994,-5.84246 0.403884,-1.14615 1.027965,-2.18548 1.643502,-3.22512 0,0 1.273016,-0.56461 1.273016,-0.56461 v 0 c -0.619074,1.03013 -1.248949,2.05899 -1.657209,3.19693 -0.647124,1.9802 -1.093531,3.75734 -0.08126,5.70475 0.1465,0.18945 0.269116,0.40005 0.439502,0.56834 0.937882,0.9263 2.263159,0.84363 3.388588,0.36114 -0.14781,0.0986 -0.579179,0.41028 -0.443429,0.29568 0.232945,-0.19665 0.507487,-0.34108 0.736097,-0.54275 1.051984,-0.92802 1.654033,-2.17717 1.881884,-3.54755 0.02334,-0.36619 0.07742,-0.73172 0.06998,-1.09858 -0.03675,-1.81386 -0.792284,-3.51081 -1.961279,-4.87106 -0.227013,-0.22732 -0.445903,-0.46305 -0.681033,-0.68196 -0.828622,-0.77146 -1.786461,-1.37425 -2.656879,-2.09197 -0.77384,-0.74011 -0.517763,-0.50925 0.809442,-1.34865 0.01402,-0.009 0.01405,0.0542 0.02682,0.0419 0.0948,0.19643 0.118896,0.41923 0.142912,0.63307 0.02668,0.76283 -0.244594,1.49902 -0.660535,2.13273 -0.685263,0.86048 -0.234326,0.378 -1.908683,1.42019 -0.491368,0.30584 -1.01691,0.43358 -1.551019,0.1576 -0.08581,-0.0757 -0.186695,-0.13715 -0.257429,-0.2271 -0.475695,-0.60493 0.02777,-1.39979 0.400748,-1.90045 0.772248,-0.79924 0.325353,-0.39638 1.992749,-1.38846 0.483661,-0.28777 1.031066,-0.4439 1.59362,-0.43232 0,0 -1.207122,0.84693 -1.207122,0.84693 z"
       inkscape:connector-curvature="0" />
    <path
       style="opacity:1;vector-effect:none;fill:#ffcc00;fill-opacity:0.95890407;stroke:none;stroke-width:1;stroke-linecap:butt;stroke-linejoin:miter;stroke-miterlimit:4;stroke-dasharray:none;stroke-dashoffset:0;stroke-opacity:1;paint-order:stroke fill markers"
       id="path954"
       d="m 57.352347,128.25141 c 0.357029,0.6497 0.748851,1.27927 1.093124,1.93591 0.07939,0.15495 0.156776,0.31095 0.22992,0.46895 0.01847,0.0399 0.07569,0.15856 0.05366,0.1205 -0.01667,-0.0288 -0.02984,-0.0594 -0.04476,-0.0892 -0.422924,0.23964 -0.819087,0.53432 -1.268767,0.71892 -0.05655,0.0232 -0.0444,-0.11403 -0.06238,-0.17246 -0.169709,-0.5515 -0.228547,-1.10487 -0.256399,-1.6789 0.01116,-1.09337 0.409987,-2.18337 1.197038,-2.96348 0.162886,-0.16145 0.355232,-0.29017 0.53285,-0.43525 0.601517,-0.32504 1.170715,-0.71875 1.804556,-0.9751 0.195458,-0.0791 0.424799,-0.0472 0.632431,-0.0105 1.239163,0.21861 1.537168,1.47759 1.819299,2.49429 0,0 -1.234284,0.67212 -1.234284,0.67212 v 0 c -0.221668,-0.77829 -0.403617,-1.67717 -1.169236,-2.13154 -0.173109,-0.10273 -0.375365,-0.16096 -0.575429,-0.18322 -0.199065,-0.0221 -0.625086,0.25112 -0.59857,0.0526 0.03498,-0.26191 0.434536,-0.30076 0.651801,-0.45114 -0.181319,0.13664 -0.376886,0.25618 -0.543962,0.40991 -0.795602,0.73205 -1.211442,1.79323 -1.231678,2.85896 0.02164,0.4605 0.06134,0.89426 0.175128,1.34213 0.0241,0.0948 0.05172,0.18892 0.08374,0.2814 0.02133,0.0616 0.123626,0.1356 0.07604,0.18014 -0.367231,0.3438 -0.812612,0.5932 -1.218916,0.8898 -0.151456,-0.1976 -0.191765,-0.4614 -0.324432,-0.67273 -0.330026,-0.6578 -0.714881,-1.28573 -1.090663,-1.91799 0,0 1.269883,-0.74412 1.269883,-0.74412 z"
       inkscape:connector-curvature="0" />
    <path
       style="opacity:1;vector-effect:none;fill:#ffcc00;fill-opacity:0.95890407;stroke:none;stroke-width:1;stroke-linecap:butt;stroke-linejoin:miter;stroke-miterlimit:4;stroke-dasharray:none;stroke-dashoffset:0;stroke-opacity:1;paint-order:stroke fill markers"
       id="path956"
       d="m 40.177812,149.44296 c -0.666136,-0.11192 -1.377098,-0.0344 -1.965335,0.3026 0.33542,-0.1782 0.65061,-0.40127 1.006255,-0.5346 0.102849,-0.0386 -0.157885,0.15391 -0.224258,0.24143 -0.314444,0.41461 -0.40477,0.85017 -0.414811,1.35705 0.0961,0.58032 0.433064,1.18603 1.078066,1.27837 0.115085,0.0165 0.232338,-0.009 0.348506,-0.0137 1.013325,-0.4941 -0.293399,0.25518 -0.473956,0.26341 -0.185896,0.008 0.256641,-0.26954 0.384961,-0.4043 0,0 1.330589,-0.55906 1.330589,-0.55906 v 0 c -0.652306,0.7605 -1.419682,1.32608 -2.423993,1.55569 -0.12601,-0.009 -0.255029,0.002 -0.378029,-0.0271 -0.68394,-0.16028 -1.041511,-0.7947 -1.16441,-1.43202 -0.02689,-1.60181 0.682091,-1.81334 2.072111,-2.6396 0.634217,-0.28749 1.345001,-0.35013 2.031426,-0.23515 0,0 -1.207122,0.84693 -1.207122,0.84693 z"
       inkscape:connector-curvature="0" />
    <path
       style="opacity:1;vector-effect:none;fill:#ffcc00;fill-opacity:0.95890407;stroke:none;stroke-width:1;stroke-linecap:butt;stroke-linejoin:miter;stroke-miterlimit:4;stroke-dasharray:none;stroke-dashoffset:0;stroke-opacity:1;paint-order:stroke fill markers"
       id="path958"
       d="m 38.982618,142.15283 c 0.746,1.14211 1.450956,2.31023 2.162238,3.47411 0.662276,1.13395 1.496282,2.13904 2.408846,3.0767 0.350097,0.30746 0.170114,0.18538 0.529204,0.38158 0,0 -1.22945,0.79671 -1.22945,0.79671 v 0 c -0.367739,-0.23271 -0.185356,-0.0952 -0.539327,-0.42262 -0.899953,-0.96104 -1.73369,-1.97631 -2.398201,-3.11859 -0.712791,-1.16137 -1.413624,-2.33211 -2.203194,-3.44378 0,0 1.269884,-0.74411 1.269884,-0.74411 z"
       inkscape:connector-curvature="0" />
    <path
       style="opacity:1;vector-effect:none;fill:#ffcc00;fill-opacity:0.95890407;stroke:none;stroke-width:1;stroke-linecap:butt;stroke-linejoin:miter;stroke-miterlimit:4;stroke-dasharray:none;stroke-dashoffset:0;stroke-opacity:1;paint-order:stroke fill markers"
       id="path960"
       d="m 45.875593,147.13079 c -0.728012,-0.33662 -1.125429,-0.50895 -1.842323,-0.0554 0.326215,-0.15137 0.621991,-0.40801 0.978646,-0.4541 0.13765,-0.0178 -0.158864,0.22939 -0.216606,0.3556 -0.23952,0.52354 -0.219604,1.05025 -0.03039,1.5767 0.294796,0.45685 0.732298,0.55008 1.232707,0.35859 0.14062,-0.0538 0.537175,-0.2722 0.401317,-0.2073 -0.293756,0.14033 -0.583411,0.28909 -0.875115,0.43363 0.611352,-0.60039 0.829464,-1.4107 0.953659,-2.2314 0.04964,-0.77133 0.157467,-2.22776 1.669352,-1.20437 0.787336,0.55843 1.654294,0.84405 2.611614,0.89368 0.689446,-0.10228 0.354783,-0.0162 1.004319,-0.25691 0,0 -1.14178,0.88814 -1.14178,0.88814 v 0 c -0.674177,0.20929 -0.328269,0.13825 -1.038183,0.21088 -0.973669,-0.0806 -1.857817,-0.38961 -2.671244,-0.93899 -0.06501,-0.0362 -0.248346,-0.0568 -0.195021,-0.10874 1.407358,-1.37055 1.141581,-0.95623 1.074422,-0.12831 -0.127457,0.84375 -0.332994,1.6846 -0.919945,2.33674 -0.557089,0.34978 -1.895679,1.56071 -2.838366,1.17263 -0.302516,-0.12454 -0.355018,-0.26332 -0.543203,-0.51138 -0.211473,-0.57666 -0.250634,-1.1018 -0.02228,-1.6906 0.0523,-0.13487 0.0893,-0.29248 0.200667,-0.3848 0.466998,-0.3871 1.001554,-0.68458 1.502331,-1.02688 0.778767,-0.374 1.187876,-0.16788 1.936017,0.16291 0,0 -1.230585,0.80968 -1.230585,0.80968 z"
       inkscape:connector-curvature="0" />
    <path
       style="opacity:1;vector-effect:none;fill:#ffcc00;fill-opacity:0.95890407;stroke:none;stroke-width:1;stroke-linecap:butt;stroke-linejoin:miter;stroke-miterlimit:4;stroke-dasharray:none;stroke-dashoffset:0;stroke-opacity:1;paint-order:stroke fill markers"
       id="path962"
       d="m 47.126278,135.99641 c 0.452737,1.49936 1.209546,2.87576 1.948339,4.24783 0.923388,1.62872 1.841365,3.26934 2.94658,4.78329 0.523608,0.55607 1.315895,1.54174 2.218195,1.2745 0.132141,-0.0391 0.242605,-0.13081 0.363908,-0.19622 -1.044363,0.47335 -1.085321,0.66672 -0.593003,-7.9e-4 0,0 1.327272,-0.57763 1.327272,-0.57763 v 0 c -0.632193,0.96384 -0.13988,0.33763 -1.873922,1.48289 -0.133202,0.05 -0.259302,0.12635 -0.3996,0.14992 -0.949762,0.15959 -1.718408,-0.80216 -2.268784,-1.40806 -1.09516,-1.52827 -2.010576,-3.17632 -2.940327,-4.80826 -0.748814,-1.37714 -1.50521,-2.75727 -2.020824,-4.24317 0,0 1.292166,-0.70436 1.292166,-0.70436 z"
       inkscape:connector-curvature="0" />
    <path
       style="opacity:1;vector-effect:none;fill:#ffcc00;fill-opacity:0.95890407;stroke:none;stroke-width:1;stroke-linecap:butt;stroke-linejoin:miter;stroke-miterlimit:4;stroke-dasharray:none;stroke-dashoffset:0;stroke-opacity:1;paint-order:stroke fill markers"
       id="path964"
       d="m 49.724346,140.35165 c 0.71301,-0.18079 1.430981,-0.34269 2.147287,-0.51075 0,0 -1.144778,0.87277 -1.144778,0.87277 v 0 c -0.724688,0.17037 -1.451395,0.33481 -2.169694,0.53047 0,0 1.167185,-0.89249 1.167185,-0.89249 z"
       inkscape:connector-curvature="0" />
    <path
       style="opacity:1;vector-effect:none;fill:#ffcc00;fill-opacity:0.95890407;stroke:none;stroke-width:1;stroke-linecap:butt;stroke-linejoin:miter;stroke-miterlimit:4;stroke-dasharray:none;stroke-dashoffset:0;stroke-opacity:1;paint-order:stroke fill markers"
       id="path966"
       d="m 55.918639,141.704 c 1.027597,0.17856 2.016604,-0.0822 2.971123,-0.44173 0.17082,-0.0899 0.682712,-0.36085 0.512461,-0.26983 -0.266124,0.14226 -0.510554,0.33852 -0.800079,0.42358 -0.143833,0.0423 0.23586,-0.18586 0.344072,-0.28961 0.258757,-0.24808 0.417152,-0.50172 0.539742,-0.83257 0.0054,-0.0849 0.03182,-0.171 0.01622,-0.2546 -0.130487,-0.69981 -1.239121,-0.75341 -1.758889,-0.8115 -0.598781,0.0391 -0.666827,0.002 -1.250744,0.21756 -0.210643,0.0778 -0.800529,0.40428 -0.610714,0.28431 0.209825,-0.13262 0.482047,-0.48328 0.671193,-0.32253 0.173794,0.1477 -0.347322,0.29845 -0.49565,0.47171 -0.153381,0.17916 -0.269949,0.38682 -0.404923,0.58022 -0.570381,1.04526 -0.762813,2.35286 0.156199,3.28076 0.176768,0.17847 0.401733,0.30168 0.602597,0.45253 0.267298,0.0824 0.525486,0.20434 0.801888,0.24729 1.14168,0.17737 2.311882,-0.19515 3.340812,-0.6535 1.237453,-0.55125 1.025985,-0.27146 1.364046,-0.80943 0,0 1.271675,-0.4963 1.271675,-0.4963 v 0 c -1.952953,1.20636 -4.638281,3.21653 -7.149926,2.75673 -0.288874,-0.0529 -0.556082,-0.18908 -0.834122,-0.28363 -0.2095,-0.16223 -0.444101,-0.29641 -0.628494,-0.48669 -0.94098,-0.97103 -0.80727,-2.32223 -0.235614,-3.4347 0.130553,-0.20199 0.241744,-0.4179 0.39166,-0.60597 0.687729,-0.86275 2.385864,-1.84733 3.55905,-2.00971 0.207169,-0.0287 0.418045,-0.0142 0.627068,-0.0213 0.772941,0.10307 1.932189,0.26325 1.892456,1.27547 -0.393311,1.34798 -1.919975,1.88925 -3.057123,2.47897 -0.981778,0.34973 -1.992489,0.57306 -3.039168,0.40282 0,0 1.203177,-0.84834 1.203177,-0.84834 z"
       inkscape:connector-curvature="0" />
    <rect
       ry="11.529628"
       y="83.191055"
       x="230.68401"
       height="177.29831"
       width="50.904255"
       id="rect894"
       style="opacity:1;vector-effect:none;fill:#0079e5;fill-opacity:1;stroke:none;stroke-width:31.8551712;stroke-linecap:butt;stroke-linejoin:miter;stroke-miterlimit:4;stroke-dasharray:none;stroke-dashoffset:0;stroke-opacity:1;paint-order:stroke fill markers" />
    <rect
       ry="4.5638299"
       y="247.14893"
       x="248.58826"
       height="9.1276598"
       width="30.893618"
       id="rect896"
       style="opacity:1;vector-effect:none;fill:#b8d2eb;fill-opacity:0.60273976;stroke:none;stroke-width:20;stroke-linecap:butt;stroke-linejoin:miter;stroke-miterlimit:4;stroke-dasharray:none;stroke-dashoffset:0;stroke-opacity:1;paint-order:stroke fill markers" />
    <rect
       style="opacity:1;vector-effect:none;fill:#31da46;fill-opacity:0.98173517;stroke:none;stroke-width:20;stroke-linecap:butt;stroke-linejoin:miter;stroke-miterlimit:4;stroke-dasharray:none;stroke-dashoffset:0;stroke-opacity:1;paint-order:stroke fill markers"
       id="rect898"
       width="30.893618"
       height="9.1276598"
       x="232.71324"
       y="236.56558"
       ry="4.5638299" />
    <rect
       ry="4.5638299"
       y="225.98224"
       x="232.71324"
       height="9.1276598"
       width="30.893618"
       id="rect900"
       style="opacity:1;vector-effect:none;fill:#31da46;fill-opacity:0.98173517;stroke:none;stroke-width:20;stroke-linecap:butt;stroke-linejoin:miter;stroke-miterlimit:4;stroke-dasharray:none;stroke-dashoffset:0;stroke-opacity:1;paint-order:stroke fill markers" />
    <rect
       style="opacity:1;vector-effect:none;fill:#b8d2eb;fill-opacity:0.60273976;stroke:none;stroke-width:20;stroke-linecap:butt;stroke-linejoin:miter;stroke-miterlimit:4;stroke-dasharray:none;stroke-dashoffset:0;stroke-opacity:1;paint-order:stroke fill markers"
       id="rect902"
       width="30.893618"
       height="9.1276598"
       x="248.58826"
       y="215.3989"
       ry="4.5638299" />
    <rect
       ry="4.5638299"
       y="204.81555"
       x="248.58826"
       height="9.1276598"
       width="30.893618"
       id="rect904"
       style="opacity:1;vector-effect:none;fill:#b8d2eb;fill-opacity:0.60273976;stroke:none;stroke-width:20;stroke-linecap:butt;stroke-linejoin:miter;stroke-miterlimit:4;stroke-dasharray:none;stroke-dashoffset:0;stroke-opacity:1;paint-order:stroke fill markers" />
    <rect
       style="opacity:1;vector-effect:none;fill:#b8d2eb;fill-opacity:0.60273976;stroke:none;stroke-width:20;stroke-linecap:butt;stroke-linejoin:miter;stroke-miterlimit:4;stroke-dasharray:none;stroke-dashoffset:0;stroke-opacity:1;paint-order:stroke fill markers"
       id="rect906"
       width="30.893618"
       height="9.1276598"
       x="248.58826"
       y="194.23221"
       ry="4.5638299" />
    <rect
       ry="4.5638299"
       y="173.06552"
       x="248.58826"
       height="9.1276598"
       width="30.893618"
       id="rect908"
       style="opacity:1;vector-effect:none;fill:#b8d2eb;fill-opacity:0.60273976;stroke:none;stroke-width:20;stroke-linecap:butt;stroke-linejoin:miter;stroke-miterlimit:4;stroke-dasharray:none;stroke-dashoffset:0;stroke-opacity:1;paint-order:stroke fill markers" />
    <rect
       style="opacity:1;vector-effect:none;fill:#b8d2eb;fill-opacity:0.60273976;stroke:none;stroke-width:20;stroke-linecap:butt;stroke-linejoin:miter;stroke-miterlimit:4;stroke-dasharray:none;stroke-dashoffset:0;stroke-opacity:1;paint-order:stroke fill markers"
       id="rect910"
       width="30.893618"
       height="9.1276598"
       x="248.58826"
       y="162.48218"
       ry="4.5638299" />
    <rect
       style="opacity:1;vector-effect:none;fill:#31da46;fill-opacity:0.98173517;stroke:none;stroke-width:20;stroke-linecap:butt;stroke-linejoin:miter;stroke-miterlimit:4;stroke-dasharray:none;stroke-dashoffset:0;stroke-opacity:1;paint-order:stroke fill markers"
       id="rect912"
       width="30.893618"
       height="9.1276598"
       x="232.71324"
       y="183.64886"
       ry="4.5638299" />
    <path
       inkscape:connector-curvature="0"
       id="path915"
       d="m 232.71325,183.11969 h 47.11968"
       style="fill:#ff0000;stroke:#ff0000;stroke-width:1;stroke-linecap:butt;stroke-linejoin:miter;stroke-miterlimit:4;stroke-dasharray:none;stroke-opacity:1" />
    <rect
       style="opacity:1;vector-effect:none;fill:#b8d2eb;fill-opacity:0.60273976;stroke:none;stroke-width:20;stroke-linecap:butt;stroke-linejoin:miter;stroke-miterlimit:4;stroke-dasharray:none;stroke-dashoffset:0;stroke-opacity:1;paint-order:stroke fill markers"
       id="rect919"
       width="30.893618"
       height="9.1276598"
       x="248.71471"
       y="120.1489"
       ry="4.5638299" />
    <rect
       ry="4.5638299"
       y="141.31549"
       x="232.83971"
       height="9.1276598"
       width="30.893618"
       id="rect921"
       style="opacity:1;vector-effect:none;fill:#31da46;fill-opacity:0.98173517;stroke:none;stroke-width:20;stroke-linecap:butt;stroke-linejoin:miter;stroke-miterlimit:4;stroke-dasharray:none;stroke-dashoffset:0;stroke-opacity:1;paint-order:stroke fill markers" />
    <rect
       style="opacity:1;vector-effect:none;fill:#31da46;fill-opacity:0.98173517;stroke:none;stroke-width:20;stroke-linecap:butt;stroke-linejoin:miter;stroke-miterlimit:4;stroke-dasharray:none;stroke-dashoffset:0;stroke-opacity:1;paint-order:stroke fill markers"
       id="rect923"
       width="30.893618"
       height="9.1276598"
       x="232.83971"
       y="130.73215"
       ry="4.5638299" />
    <path
       inkscape:connector-curvature="0"
       id="path939"
       d="M 233.30351,151.36967 H 280.4232"
       style="fill:#ff0000;stroke:#ff0000;stroke-width:1;stroke-linecap:butt;stroke-linejoin:miter;stroke-miterlimit:4;stroke-dasharray:none;stroke-opacity:1" />
    <rect
       ry="4.5638299"
       y="109.56548"
       x="232.83971"
       height="9.1276598"
       width="30.893618"
       id="rect941"
       style="opacity:1;vector-effect:none;fill:#31da46;fill-opacity:0.98173517;stroke:none;stroke-width:20;stroke-linecap:butt;stroke-linejoin:miter;stroke-miterlimit:4;stroke-dasharray:none;stroke-dashoffset:0;stroke-opacity:1;paint-order:stroke fill markers" />
    <path
       inkscape:connector-curvature="0"
       id="path977"
       d="m 231.18963,98.452973 h 47.11968"
       style="fill:#ff0000;stroke:#ff0000;stroke-width:1;stroke-linecap:butt;stroke-linejoin:miter;stroke-miterlimit:4;stroke-dasharray:none;stroke-opacity:1" />
    <rect
       ry="4.5638299"
       y="151.89883"
       x="248.71471"
       height="9.1276598"
       width="30.893618"
       id="rect1059"
       style="opacity:1;vector-effect:none;fill:#b8d2eb;fill-opacity:0.60273976;stroke:none;stroke-width:20;stroke-linecap:butt;stroke-linejoin:miter;stroke-miterlimit:4;stroke-dasharray:none;stroke-dashoffset:0;stroke-opacity:1;paint-order:stroke fill markers" />
    <rect
       style="opacity:1;vector-effect:none;fill:#31da46;fill-opacity:0.98173517;stroke:none;stroke-width:20;stroke-linecap:butt;stroke-linejoin:miter;stroke-miterlimit:4;stroke-dasharray:none;stroke-dashoffset:0;stroke-opacity:1;paint-order:stroke fill markers"
       id="rect1065"
       width="30.893618"
       height="9.1276598"
       x="232.83971"
       y="98.982155"
       ry="4.5638299" />
    <rect
       ry="4.5638299"
       y="88.398827"
       x="232.83971"
       height="9.1276598"
       width="30.893618"
       id="rect1067"
       style="opacity:1;vector-effect:none;fill:#31da46;fill-opacity:0.98173517;stroke:none;stroke-width:20;stroke-linecap:butt;stroke-linejoin:miter;stroke-miterlimit:4;stroke-dasharray:none;stroke-dashoffset:0;stroke-opacity:1;paint-order:stroke fill markers" />
    <path
       style="opacity:1;vector-effect:none;fill:#000000;fill-opacity:0.95890407;stroke:none;stroke-width:1;stroke-linecap:butt;stroke-linejoin:miter;stroke-miterlimit:4;stroke-dasharray:none;stroke-dashoffset:0;stroke-opacity:1;paint-order:stroke fill markers"
       id="path1075"
       d="m 201.58777,155.39806 c 2.51388,-1.07851 5.13985,-1.80879 7.81056,-2.37102 2.73759,-0.51487 5.51746,-0.72595 8.29611,-0.85241 0.56653,-0.024 1.1334,-0.0386 1.70041,-0.0433 0,0 -2.40075,1.74154 -2.40075,1.74154 v 0 c -0.54724,-0.0134 -1.09481,0.006 -1.64187,0.0184 -2.75212,0.10329 -5.5048,0.32113 -8.21174,0.85037 -2.68942,0.58942 -5.34499,1.34212 -7.85336,2.49674 0,0 2.30064,-1.8403 2.30064,-1.8403 z"
       inkscape:connector-curvature="0" />
    <path
       style="opacity:1;vector-effect:none;fill:#000000;fill-opacity:0.95890407;stroke:none;stroke-width:1;stroke-linecap:butt;stroke-linejoin:miter;stroke-miterlimit:4;stroke-dasharray:none;stroke-dashoffset:0;stroke-opacity:1;paint-order:stroke fill markers"
       id="path1077"
       d="m 213.20127,146.49414 c 2.05575,1.1376 4.26108,1.94158 6.44152,2.79674 1.55291,0.71184 3.48426,1.05158 4.49345,2.54944 0.0394,0.18546 0.12622,0.36696 0.1182,0.55639 -0.0575,1.35739 -1.88209,2.70378 -2.82709,3.47016 -2.05273,1.61315 -4.22114,3.07047 -6.5906,4.18944 -0.11908,0.0498 -0.23815,0.0997 -0.35722,0.1495 0,0 2.31181,-1.82863 2.31181,-1.82863 v 0 c 0.11363,-0.0511 0.22727,-0.10212 0.34091,-0.15317 0.91198,-0.45847 1.50415,-0.76838 -1.4867,0.91158 -0.22346,0.12552 0.43398,-0.2729 0.64792,-0.41404 0.84427,-0.55698 1.6443,-1.17197 2.45255,-1.7793 0.80322,-0.62826 2.73214,-2.08615 2.91528,-3.16686 0.0253,-0.14937 -0.0393,-0.30042 -0.059,-0.45063 -0.94199,-1.43814 -2.90017,-1.72051 -4.3476,-2.43192 -2.19619,-0.86483 -4.40432,-1.70016 -6.5055,-2.78534 0,0 2.45205,-1.61336 2.45205,-1.61336 z"
       inkscape:connector-curvature="0" />
    <path
       style="opacity:1;vector-effect:none;fill:#ff0000;fill-opacity:0.95890407;stroke:none;stroke-width:1;stroke-linecap:butt;stroke-linejoin:miter;stroke-miterlimit:4;stroke-dasharray:none;stroke-dashoffset:0;stroke-opacity:1;paint-order:stroke fill markers"
       id="path1079"
       d="m 161.57821,205.37756 c -0.95258,2.30548 -2.83772,3.98927 -4.63131,5.64256 -3.42162,2.78841 -7.28201,5.08359 -11.46606,6.5135 -1.34157,0.3761 -2.29257,0.23694 -3.57857,-0.15435 0,0 2.38594,-1.63401 2.38594,-1.63401 v 0 c 1.24399,0.33132 2.1712,0.42382 3.44532,0.0337 0.46917,-0.16577 0.94489,-0.31407 1.40752,-0.49733 0.508,-0.20122 0.95931,-0.59606 1.50249,-0.65536 0.34128,-0.0373 -1.15832,0.73164 -0.84839,0.58396 1.65812,-0.79012 3.0666,-2.02726 4.5253,-3.11504 1.75516,-1.60961 3.62331,-3.22993 4.58937,-5.46442 0,0 2.66839,-1.25317 2.66839,-1.25317 z"
       inkscape:connector-curvature="0" />
    <path
       style="opacity:1;vector-effect:none;fill:#ff0000;fill-opacity:0.95890407;stroke:none;stroke-width:1;stroke-linecap:butt;stroke-linejoin:miter;stroke-miterlimit:4;stroke-dasharray:none;stroke-dashoffset:0;stroke-opacity:1;paint-order:stroke fill markers"
       id="path1081"
       d="m 146.58616,208.84108 c -1.25378,1.80251 -2.44771,3.6491 -3.58049,5.53009 -0.7688,1.42622 -1.72077,2.85676 -1.97221,4.48642 0.30532,1.39806 2.20179,1.47596 3.36073,1.64355 1.56841,0.11879 3.12786,0.21335 4.6862,0.43404 0,0 -2.39425,1.68785 -2.39425,1.68785 v 0 c -1.55059,-0.226 -3.10762,-0.29275 -4.6653,-0.45165 -1.37104,-0.2183 -3.25318,-0.40714 -3.61819,-2.0161 0.18394,-1.68539 1.19463,-3.15172 1.9712,-4.61781 1.12278,-1.87404 2.3276,-3.69704 3.50171,-5.53832 0,0 2.7106,-1.15807 2.7106,-1.15807 z"
       inkscape:connector-curvature="0" />
    <path
       style="opacity:1;vector-effect:none;fill:#ff0000;fill-opacity:0.95890407;stroke:none;stroke-width:1;stroke-linecap:butt;stroke-linejoin:miter;stroke-miterlimit:4;stroke-dasharray:none;stroke-dashoffset:0;stroke-opacity:1;paint-order:stroke fill markers"
       id="path1083"
       d="m 182.58644,187.51174 c 0.95184,-1.52009 1.52662,-3.20745 1.92458,-4.94442 0.2497,-1.17614 0.34212,-2.37315 0.37029,-3.57228 -0.0623,-0.61923 -0.004,-0.31305 -0.17536,-0.91823 0,0 2.57826,-1.40845 2.57826,-1.40845 v 0 c 0.20309,0.66022 0.13143,0.32723 0.21849,0.9982 -0.0246,1.22244 -0.12104,2.44037 -0.37455,3.63955 -0.38947,1.75606 -0.95322,3.45369 -1.84487,5.02568 0,0 -2.69684,1.17995 -2.69684,1.17995 z"
       inkscape:connector-curvature="0" />
    <path
       style="opacity:1;vector-effect:none;fill:#ff0000;fill-opacity:0.95890407;stroke:none;stroke-width:1;stroke-linecap:butt;stroke-linejoin:miter;stroke-miterlimit:4;stroke-dasharray:none;stroke-dashoffset:0;stroke-opacity:1;paint-order:stroke fill markers"
       id="path1085"
       d="m 180.60052,177.58216 c 0.87018,-1.08462 1.41745,-2.36119 2.0814,-3.56946 0.79369,-1.45034 2.52136,-2.62111 4.19718,-2.42805 1.37203,0.41224 2.51849,1.40526 3.61192,2.30087 0.59216,0.46532 1.20816,0.89864 1.83248,1.3193 0,0 -2.48581,1.5848 -2.48581,1.5848 v 0 c -0.61388,-0.44028 -1.2226,-0.88795 -1.81497,-1.35699 -1.05259,-0.85534 -2.17403,-1.85197 -3.5346,-2.12703 -0.12674,0.004 -0.25487,-0.006 -0.38023,0.0129 -0.11444,0.0175 -0.43038,0.15989 -0.3337,0.0962 4.14264,-2.72849 2.15533,-1.56997 1.58739,-0.59818 -0.69215,1.19471 -1.20818,2.48881 -2.06422,3.58571 0,0 -2.69684,1.17996 -2.69684,1.17996 z"
       inkscape:connector-curvature="0" />
  </g>
</svg>
