<?xml version="1.0" encoding="UTF-8" standalone="no"?>
<!-- Created with Inkscape (http://www.inkscape.org/) -->

<svg
   xmlns:dc="http://purl.org/dc/elements/1.1/"
   xmlns:cc="http://creativecommons.org/ns#"
   xmlns:rdf="http://www.w3.org/1999/02/22-rdf-syntax-ns#"
   xmlns:svg="http://www.w3.org/2000/svg"
   xmlns="http://www.w3.org/2000/svg"
   xmlns:sodipodi="http://sodipodi.sourceforge.net/DTD/sodipodi-0.dtd"
   xmlns:inkscape="http://www.inkscape.org/namespaces/inkscape"
   width="210mm"
   height="297mm"
   viewBox="0 0 210 297"
   version="1.1"
   id="svg848"
   inkscape:version="0.92.2 5c3e80d, 2017-08-06"
   sodipodi:docname="skype_redundancy.svg">
  <defs
     id="defs842" />
  <sodipodi:namedview
     id="base"
     pagecolor="#ffffff"
     bordercolor="#666666"
     borderopacity="1.0"
     inkscape:pageopacity="0.0"
     inkscape:pageshadow="2"
     inkscape:zoom="0.75366162"
     inkscape:cx="396.85039"
     inkscape:cy="581.16267"
     inkscape:document-units="mm"
     inkscape:current-layer="layer1"
     showgrid="false"
     inkscape:snap-nodes="true"
     inkscape:window-width="1680"
     inkscape:window-height="1005"
     inkscape:window-x="0"
     inkscape:window-y="1"
     inkscape:window-maximized="1" />
  <metadata
     id="metadata845">
    <rdf:RDF>
      <cc:Work
         rdf:about="">
        <dc:format>image/svg+xml</dc:format>
        <dc:type
           rdf:resource="http://purl.org/dc/dcmitype/StillImage" />
        <dc:title />
      </cc:Work>
    </rdf:RDF>
  </metadata>
  <g
     inkscape:label="Layer 1"
     inkscape:groupmode="layer"
     id="layer1">
    <rect
       style="opacity:1;vector-effect:none;fill:#0079e5;fill-opacity:1;stroke:none;stroke-width:23.84591103;stroke-linecap:butt;stroke-linejoin:miter;stroke-miterlimit:4;stroke-dasharray:none;stroke-dashoffset:0;stroke-opacity:1;paint-order:stroke fill markers"
       id="rect812"
       width="50.904255"
       height="99.351067"
       x="27.031914"
       y="161.13829"
       ry="6.4607544" />
    <rect
       style="opacity:1;vector-effect:none;fill:#b8d2eb;fill-opacity:0.60273975;stroke:none;stroke-width:20;stroke-linecap:butt;stroke-linejoin:miter;stroke-miterlimit:4;stroke-dasharray:none;stroke-dashoffset:0;stroke-opacity:1;paint-order:stroke fill markers"
       id="rect823"
       width="30.893618"
       height="9.1276598"
       x="44.936172"
       y="247.14893"
       ry="4.5638299" />
    <rect
       ry="4.5638299"
       y="236.56558"
       x="29.061171"
       height="9.1276598"
       width="30.893618"
       id="rect825"
       style="opacity:1;vector-effect:none;fill:#31da46;fill-opacity:0.98173517;stroke:none;stroke-width:20;stroke-linecap:butt;stroke-linejoin:miter;stroke-miterlimit:4;stroke-dasharray:none;stroke-dashoffset:0;stroke-opacity:1;paint-order:stroke fill markers" />
    <rect
       style="opacity:1;vector-effect:none;fill:#31da46;fill-opacity:0.98173517;stroke:none;stroke-width:20;stroke-linecap:butt;stroke-linejoin:miter;stroke-miterlimit:4;stroke-dasharray:none;stroke-dashoffset:0;stroke-opacity:1;paint-order:stroke fill markers"
       id="rect831"
       width="30.893618"
       height="9.1276598"
       x="29.061171"
       y="225.98224"
       ry="4.5638299" />
    <rect
       ry="4.5638299"
       y="215.3989"
       x="44.936172"
       height="9.1276598"
       width="30.893618"
       id="rect833"
       style="opacity:1;vector-effect:none;fill:#b8d2eb;fill-opacity:0.60273976;stroke:none;stroke-width:20;stroke-linecap:butt;stroke-linejoin:miter;stroke-miterlimit:4;stroke-dasharray:none;stroke-dashoffset:0;stroke-opacity:1;paint-order:stroke fill markers" />
    <rect
       style="opacity:1;vector-effect:none;fill:#b8d2eb;fill-opacity:0.60273976;stroke:none;stroke-width:20;stroke-linecap:butt;stroke-linejoin:miter;stroke-miterlimit:4;stroke-dasharray:none;stroke-dashoffset:0;stroke-opacity:1;paint-order:stroke fill markers"
       id="rect835"
       width="30.893618"
       height="9.1276598"
       x="44.936172"
       y="204.81555"
       ry="4.5638299" />
    <rect
       ry="4.5638299"
       y="194.23221"
       x="44.936172"
       height="9.1276598"
       width="30.893618"
       id="rect837"
       style="opacity:1;vector-effect:none;fill:#b8d2eb;fill-opacity:0.60273976;stroke:none;stroke-width:20;stroke-linecap:butt;stroke-linejoin:miter;stroke-miterlimit:4;stroke-dasharray:none;stroke-dashoffset:0;stroke-opacity:1;paint-order:stroke fill markers" />
    <rect
       style="opacity:1;vector-effect:none;fill:#b8d2eb;fill-opacity:0.60273976;stroke:none;stroke-width:20;stroke-linecap:butt;stroke-linejoin:miter;stroke-miterlimit:4;stroke-dasharray:none;stroke-dashoffset:0;stroke-opacity:1;paint-order:stroke fill markers"
       id="rect839"
       width="30.893618"
       height="9.1276598"
       x="44.936172"
       y="173.06552"
       ry="4.5638299" />
    <rect
       ry="4.5638299"
       y="162.48218"
       x="44.936172"
       height="9.1276598"
       width="30.893618"
       id="rect841"
       style="opacity:1;vector-effect:none;fill:#b8d2eb;fill-opacity:0.60273976;stroke:none;stroke-width:20;stroke-linecap:butt;stroke-linejoin:miter;stroke-miterlimit:4;stroke-dasharray:none;stroke-dashoffset:0;stroke-opacity:1;paint-order:stroke fill markers" />
    <rect
       ry="4.5638299"
       y="183.64886"
       x="29.061171"
       height="9.1276598"
       width="30.893618"
       id="rect843"
       style="opacity:1;vector-effect:none;fill:#31da46;fill-opacity:0.98173517;stroke:none;stroke-width:20;stroke-linecap:butt;stroke-linejoin:miter;stroke-miterlimit:4;stroke-dasharray:none;stroke-dashoffset:0;stroke-opacity:1;paint-order:stroke fill markers" />
    <path
       style="fill:#ff0000;stroke:#ff0000;stroke-width:1;stroke-linecap:butt;stroke-linejoin:miter;stroke-miterlimit:4;stroke-dasharray:none;stroke-opacity:1"
       d="M 29.061172,183.11969 H 76.180851"
       id="path845"
       inkscape:connector-curvature="0" />
    <rect
       ry="7.0771518"
       y="106.37234"
       x="83.227837"
       height="108.82979"
       width="50.904255"
       id="rect847"
       style="opacity:1;vector-effect:none;fill:#0079e5;fill-opacity:1;stroke:none;stroke-width:24.95752716;stroke-linecap:butt;stroke-linejoin:miter;stroke-miterlimit:4;stroke-dasharray:none;stroke-dashoffset:0;stroke-opacity:1;paint-order:stroke fill markers" />
    <rect
       ry="4.5638299"
       y="120.1489"
       x="101.1321"
       height="9.1276598"
       width="30.893618"
       id="rect849"
       style="opacity:1;vector-effect:none;fill:#b8d2eb;fill-opacity:0.60273976;stroke:none;stroke-width:20;stroke-linecap:butt;stroke-linejoin:miter;stroke-miterlimit:4;stroke-dasharray:none;stroke-dashoffset:0;stroke-opacity:1;paint-order:stroke fill markers" />
    <rect
       style="opacity:1;vector-effect:none;fill:#31da46;fill-opacity:0.98173517;stroke:none;stroke-width:20;stroke-linecap:butt;stroke-linejoin:miter;stroke-miterlimit:4;stroke-dasharray:none;stroke-dashoffset:0;stroke-opacity:1;paint-order:stroke fill markers"
       id="rect851"
       width="30.893618"
       height="9.1276598"
       x="85.257095"
       y="141.31549"
       ry="4.5638299" />
    <rect
       ry="4.5638299"
       y="130.73215"
       x="85.257095"
       height="9.1276598"
       width="30.893618"
       id="rect853"
       style="opacity:1;vector-effect:none;fill:#31da46;fill-opacity:0.98173517;stroke:none;stroke-width:20;stroke-linecap:butt;stroke-linejoin:miter;stroke-miterlimit:4;stroke-dasharray:none;stroke-dashoffset:0;stroke-opacity:1;paint-order:stroke fill markers" />
    <rect
       ry="4.5638299"
       y="204.81555"
       x="101.1321"
       height="9.1276598"
       width="30.893618"
       id="rect857"
       style="opacity:1;vector-effect:none;fill:#b8d2eb;fill-opacity:0.60273976;stroke:none;stroke-width:20;stroke-linecap:butt;stroke-linejoin:miter;stroke-miterlimit:4;stroke-dasharray:none;stroke-dashoffset:0;stroke-opacity:1;paint-order:stroke fill markers" />
    <rect
       style="opacity:1;vector-effect:none;fill:#b8d2eb;fill-opacity:0.60273976;stroke:none;stroke-width:20;stroke-linecap:butt;stroke-linejoin:miter;stroke-miterlimit:4;stroke-dasharray:none;stroke-dashoffset:0;stroke-opacity:1;paint-order:stroke fill markers"
       id="rect859"
       width="30.893618"
       height="9.1276598"
       x="101.1321"
       y="194.23221"
       ry="4.5638299" />
    <rect
       ry="4.5638299"
       y="173.06552"
       x="101.1321"
       height="9.1276598"
       width="30.893618"
       id="rect861"
       style="opacity:1;vector-effect:none;fill:#b8d2eb;fill-opacity:0.60273976;stroke:none;stroke-width:20;stroke-linecap:butt;stroke-linejoin:miter;stroke-miterlimit:4;stroke-dasharray:none;stroke-dashoffset:0;stroke-opacity:1;paint-order:stroke fill markers" />
    <rect
       style="opacity:1;vector-effect:none;fill:#b8d2eb;fill-opacity:0.60273976;stroke:none;stroke-width:20;stroke-linecap:butt;stroke-linejoin:miter;stroke-miterlimit:4;stroke-dasharray:none;stroke-dashoffset:0;stroke-opacity:1;paint-order:stroke fill markers"
       id="rect863"
       width="30.893618"
       height="9.1276598"
       x="101.1321"
       y="162.48218"
       ry="4.5638299" />
    <rect
       style="opacity:1;vector-effect:none;fill:#31da46;fill-opacity:0.98173517;stroke:none;stroke-width:20;stroke-linecap:butt;stroke-linejoin:miter;stroke-miterlimit:4;stroke-dasharray:none;stroke-dashoffset:0;stroke-opacity:1;paint-order:stroke fill markers"
       id="rect865"
       width="30.893618"
       height="9.1276598"
       x="85.257095"
       y="183.64886"
       ry="4.5638299" />
    <path
       inkscape:connector-curvature="0"
       id="path867"
       d="M 85.257098,183.11969 H 132.37678"
       style="fill:#ff0000;stroke:#ff0000;stroke-width:1;stroke-linecap:butt;stroke-linejoin:miter;stroke-miterlimit:4;stroke-dasharray:none;stroke-opacity:1" />
    <rect
       ry="4.5638299"
       y="151.89883"
       x="101.1321"
       height="9.1276598"
       width="30.893618"
       id="rect869"
       style="opacity:1;vector-effect:none;fill:#b8d2eb;fill-opacity:0.60273976;stroke:none;stroke-width:20;stroke-linecap:butt;stroke-linejoin:miter;stroke-miterlimit:4;stroke-dasharray:none;stroke-dashoffset:0;stroke-opacity:1;paint-order:stroke fill markers" />
    <path
       style="fill:#ff0000;stroke:#ff0000;stroke-width:1;stroke-linecap:butt;stroke-linejoin:miter;stroke-miterlimit:4;stroke-dasharray:none;stroke-opacity:1"
       d="M 85.257098,151.36967 H 132.37678"
       id="path871"
       inkscape:connector-curvature="0" />
    <rect
       style="opacity:1;vector-effect:none;fill:#31da46;fill-opacity:0.98173517;stroke:none;stroke-width:20;stroke-linecap:butt;stroke-linejoin:miter;stroke-miterlimit:4;stroke-dasharray:none;stroke-dashoffset:0;stroke-opacity:1;paint-order:stroke fill markers"
       id="rect873"
       width="30.893618"
       height="9.1276598"
       x="85.257095"
       y="109.56548"
       ry="4.5638299" />
    <rect
       style="opacity:1;vector-effect:none;fill:#0079e5;fill-opacity:1;stroke:none;stroke-width:21.02480888;stroke-linecap:butt;stroke-linejoin:miter;stroke-miterlimit:4;stroke-dasharray:none;stroke-dashoffset:0;stroke-opacity:1;paint-order:stroke fill markers"
       id="rect875"
       width="50.904255"
       height="77.234047"
       x="136.14452"
       y="96.191483"
       ry="5.0224948" />
    <rect
       style="opacity:1;vector-effect:none;fill:#b8d2eb;fill-opacity:0.60273976;stroke:none;stroke-width:20;stroke-linecap:butt;stroke-linejoin:miter;stroke-miterlimit:4;stroke-dasharray:none;stroke-dashoffset:0;stroke-opacity:1;paint-order:stroke fill markers"
       id="rect877"
       width="30.893618"
       height="9.1276598"
       x="154.04878"
       y="120.1489"
       ry="4.5638299" />
    <rect
       ry="4.5638299"
       y="141.31548"
       x="138.17378"
       height="9.1276598"
       width="30.893618"
       id="rect879"
       style="opacity:1;vector-effect:none;fill:#31da46;fill-opacity:0.98173517;stroke:none;stroke-width:20;stroke-linecap:butt;stroke-linejoin:miter;stroke-miterlimit:4;stroke-dasharray:none;stroke-dashoffset:0;stroke-opacity:1;paint-order:stroke fill markers" />
    <rect
       style="opacity:1;vector-effect:none;fill:#31da46;fill-opacity:0.98173517;stroke:none;stroke-width:20;stroke-linecap:butt;stroke-linejoin:miter;stroke-miterlimit:4;stroke-dasharray:none;stroke-dashoffset:0;stroke-opacity:1;paint-order:stroke fill markers"
       id="rect881"
       width="30.893618"
       height="9.1276598"
       x="138.17378"
       y="130.73215"
       ry="4.5638299" />
    <rect
       ry="4.5638299"
       y="162.48218"
       x="154.04878"
       height="9.1276598"
       width="30.893618"
       id="rect889"
       style="opacity:1;vector-effect:none;fill:#b8d2eb;fill-opacity:0.60273976;stroke:none;stroke-width:20;stroke-linecap:butt;stroke-linejoin:miter;stroke-miterlimit:4;stroke-dasharray:none;stroke-dashoffset:0;stroke-opacity:1;paint-order:stroke fill markers" />
    <rect
       style="opacity:1;vector-effect:none;fill:#b8d2eb;fill-opacity:0.60273976;stroke:none;stroke-width:20;stroke-linecap:butt;stroke-linejoin:miter;stroke-miterlimit:4;stroke-dasharray:none;stroke-dashoffset:0;stroke-opacity:1;paint-order:stroke fill markers"
       id="rect895"
       width="30.893618"
       height="9.1276598"
       x="154.04878"
       y="151.89882"
       ry="4.5638299" />
    <path
       inkscape:connector-curvature="0"
       id="path897"
       d="m 138.17377,151.36967 h 47.11968"
       style="fill:#ff0000;stroke:#ff0000;stroke-width:1;stroke-linecap:butt;stroke-linejoin:miter;stroke-miterlimit:4;stroke-dasharray:none;stroke-opacity:1" />
    <rect
       ry="4.5638299"
       y="109.56548"
       x="138.17378"
       height="9.1276598"
       width="30.893618"
       id="rect899"
       style="opacity:1;vector-effect:none;fill:#31da46;fill-opacity:0.98173517;stroke:none;stroke-width:20;stroke-linecap:butt;stroke-linejoin:miter;stroke-miterlimit:4;stroke-dasharray:none;stroke-dashoffset:0;stroke-opacity:1;paint-order:stroke fill markers" />
    <rect
       style="opacity:1;vector-effect:none;fill:#31da46;fill-opacity:0.98173517;stroke:none;stroke-width:20;stroke-linecap:butt;stroke-linejoin:miter;stroke-miterlimit:4;stroke-dasharray:none;stroke-dashoffset:0;stroke-opacity:1;paint-order:stroke fill markers"
       id="rect901"
       width="30.893618"
       height="9.1276598"
       x="138.17378"
       y="98.982155"
       ry="4.5638299" />
    <text
       xml:space="preserve"
       style="font-style:normal;font-variant:normal;font-weight:normal;font-stretch:normal;font-size:10.58333302px;line-height:1.25;font-family:Inconsolata;-inkscape-font-specification:Inconsolata;letter-spacing:0px;word-spacing:0px;fill:#000000;fill-opacity:1;stroke:none;stroke-width:0.26458332"
       x="31.595743"
       y="87.063843"
       id="text905"><tspan
         sodipodi:role="line"
         id="tspan903"
         x="31.595743"
         y="87.063843"
         style="stroke-width:0.26458332">Scroll 1</tspan></text>
    <text
       id="text913"
       y="87.063843"
       x="89.80407"
       style="font-style:normal;font-variant:normal;font-weight:normal;font-stretch:normal;font-size:10.58333302px;line-height:1.25;font-family:Inconsolata;-inkscape-font-specification:Inconsolata;letter-spacing:0px;word-spacing:0px;fill:#000000;fill-opacity:1;stroke:none;stroke-width:0.26458332"
       xml:space="preserve"><tspan
         style="stroke-width:0.26458332"
         y="87.063843"
         x="89.80407"
         id="tspan911"
         sodipodi:role="line">Scroll 2</tspan></text>
    <text
       xml:space="preserve"
       style="font-style:normal;font-variant:normal;font-weight:normal;font-stretch:normal;font-size:10.58333302px;line-height:1.25;font-family:Inconsolata;-inkscape-font-specification:Inconsolata;letter-spacing:0px;word-spacing:0px;fill:#000000;fill-opacity:1;stroke:none;stroke-width:0.26458332"
       x="142.72075"
       y="87.063843"
       id="text917"><tspan
         sodipodi:role="line"
         id="tspan915"
         x="142.72075"
         y="87.063843"
         style="stroke-width:0.26458332">Scroll 3</tspan></text>
    <path
       style="opacity:1;vector-effect:none;fill:#ff0000;fill-opacity:0.98173517;stroke:#ff0000;stroke-width:1;stroke-linecap:butt;stroke-linejoin:miter;stroke-miterlimit:4;stroke-dasharray:none;stroke-dashoffset:0;stroke-opacity:1;paint-order:stroke fill markers"
       id="path927"
       d="m 84.424487,151.09455 c -0.419812,-0.64235 -0.918922,-1.21994 -1.475721,-1.74591 -1.08711,-0.98138 -2.290511,-1.39203 -3.687289,-1.72974 -1.759323,-0.34078 -3.558895,-0.40242 -5.346293,-0.39041 -1.214966,0.0478 -2.440831,0.13166 -3.619669,0.45188 -0.821309,0.2231 -1.090268,0.3649 -1.883645,0.69337 -0.331764,0.1809 -0.676095,0.34046 -0.995289,0.54272 -0.08702,0.0551 -0.135292,0.15642 -0.213627,0.22332 -0.344271,0.294 -0.716187,0.55531 -1.052735,0.85812 -1.136975,1.02301 -2.069721,2.19915 -2.996959,3.40725 -1.189225,1.70288 -2.28038,3.5098 -2.884606,5.51159 -0.07688,0.25468 -0.129083,0.51617 -0.193625,0.77425 -0.02976,0.21188 -0.05952,0.42376 -0.08928,0.63563 0,0 -0.897226,0.44109 -0.897226,0.44109 v 0 c 0.03209,-0.21686 0.06418,-0.43372 0.09627,-0.65058 0.06728,-0.26256 0.122092,-0.52864 0.20184,-0.78768 0.620556,-2.01582 1.719548,-3.83792 2.91592,-5.55863 0.921089,-1.20937 1.847551,-2.39088 2.974083,-3.42099 1.156375,-1.0574 2.503334,-1.86862 3.895709,-2.57519 0.807517,-0.32841 1.065313,-0.46425 1.900399,-0.68483 1.184683,-0.31292 2.414728,-0.39387 3.633838,-0.4369 1.794277,-0.006 3.600966,0.0571 5.365946,0.40581 1.433523,0.35111 2.614824,0.75976 3.736813,1.7591 0.564386,0.5316 1.071848,1.11189 1.513094,1.75056 0,0 -0.897943,0.52617 -0.897943,0.52617 z"
       inkscape:connector-curvature="0" />
    <path
       style="opacity:1;vector-effect:none;fill:#ff0000;fill-opacity:0.98173517;stroke:#ff0000;stroke-width:1;stroke-linecap:butt;stroke-linejoin:miter;stroke-miterlimit:4;stroke-dasharray:none;stroke-dashoffset:0;stroke-opacity:1;paint-order:stroke fill markers"
       id="path929"
       d="m 57.528901,155.09653 c 0.16899,1.10994 0.362244,2.21676 0.561655,3.32176 0.205602,1.10438 0.347692,2.22527 0.655447,3.30768 0.06969,0.12593 0.138115,0.52694 0.374325,0.48517 0.06526,-0.0115 0.234561,-0.12311 0.17414,-0.0959 -0.731686,0.32954 -0.815017,0.49221 -0.301582,-0.0348 0.851781,-1.07877 1.836824,-2.02945 2.861823,-2.93992 0.708792,-0.62298 1.422511,-1.24093 2.094682,-1.90362 0,0 0.936972,-0.38759 0.936972,-0.38759 v 0 c -0.673275,0.67022 -1.394415,1.28923 -2.108428,1.91537 -1.022945,0.90208 -2.018458,1.83587 -2.848599,2.92444 -0.553244,0.61093 -0.354132,0.4532 -1.452938,1.06188 -0.136165,0.0754 -0.286044,0.0476 -0.392412,-0.0582 -0.107243,-0.10675 -0.186004,-0.35236 -0.236177,-0.47832 -0.291815,-1.09216 -0.428157,-2.21871 -0.635789,-3.32842 -0.202782,-1.10184 -0.390858,-2.20617 -0.603184,-3.30623 0,0 0.920065,-0.4833 0.920065,-0.4833 z"
       inkscape:connector-curvature="0" />
    <path
       style="opacity:1;vector-effect:none;fill:#ff0000;fill-opacity:0.98173517;stroke:#ff0000;stroke-width:1;stroke-linecap:butt;stroke-linejoin:miter;stroke-miterlimit:4;stroke-dasharray:none;stroke-dashoffset:0;stroke-opacity:1;paint-order:stroke fill markers"
       id="path931"
       d="m 38.867995,135.10311 c -0.330973,1.07248 -0.6017,2.16002 -0.863698,3.25121 -0.231624,0.9413 -0.467344,1.88139 -0.719836,2.81733 -0.153101,0.57453 -0.08683,0.51657 -1.051893,0.75302 -0.05617,0.0138 0.0011,-0.11595 0.0085,-0.1733 0.01124,-0.0864 0.03163,-0.17136 0.04745,-0.25705 0.210031,-1.10857 0.34902,-2.2284 0.497123,-3.34641 0.132188,-1.18967 0.295743,-2.37463 0.502269,-3.55357 0.164327,-0.73169 0.276034,-0.83581 1.198615,-1.16318 0.07041,-0.025 0.222705,0.23307 0.319765,0.37787 0.566724,1.1635 0.951119,2.41057 1.374032,3.63215 0.358023,1.12118 0.77012,2.21951 1.272413,3.28347 0.07393,0.28423 0.350636,0.52902 0.372528,0.82538 0,0 -0.941152,0.46087 -0.941152,0.46087 v 0 c 0.009,-0.0118 0.02915,-0.0208 0.02694,-0.0355 -0.03293,-0.2184 -0.31586,-0.52878 -0.346475,-0.74866 -0.487415,-1.07565 -0.891897,-2.18163 -1.250471,-3.30715 -0.4207,-1.20982 -0.803907,-2.44914 -1.395716,-3.58774 -0.05117,-0.07 -0.09276,-0.14815 -0.153504,-0.21004 -0.02997,-0.0305 -0.145756,-0.034 -0.112776,-0.0613 0.242901,-0.20073 0.532503,-0.33707 0.798753,-0.5056 -0.02937,0.0352 -0.06665,0.065 -0.0881,0.10549 -0.0536,0.10113 -0.131624,0.39954 -0.156776,0.48707 -0.22987,1.17866 -0.402299,2.36627 -0.528791,3.56062 -0.143936,1.11281 -0.275336,2.2274 -0.460576,3.33433 -0.0149,0.0814 -0.0314,0.16261 -0.04469,0.24433 -0.0075,0.0459 0.02069,0.11186 -0.01752,0.13826 -1.262393,0.87218 -0.952738,0.72779 -0.801357,0.18928 0.276077,-0.93617 0.517689,-1.88131 0.752777,-2.82851 0.257617,-1.08288 0.523182,-2.16292 0.825124,-3.23387 0,0 0.936998,-0.44887 0.936998,-0.44887 z"
       inkscape:connector-curvature="0" />
    <path
       style="opacity:1;vector-effect:none;fill:#ff0000;fill-opacity:0.98173517;stroke:#ff0000;stroke-width:1;stroke-linecap:butt;stroke-linejoin:miter;stroke-miterlimit:4;stroke-dasharray:none;stroke-dashoffset:0;stroke-opacity:1;paint-order:stroke fill markers"
       id="path933"
       d="m 36.725862,140.82444 c 0.646814,-0.52412 1.324361,-1.01042 1.992138,-1.50779 0,0 0.937477,-0.37235 0.937477,-0.37235 v 0 c -0.661371,0.49061 -1.329375,0.97481 -1.970926,1.49049 0,0 -0.958689,0.38965 -0.958689,0.38965 z"
       inkscape:connector-curvature="0" />
    <path
       style="opacity:1;vector-effect:none;fill:#ff0000;fill-opacity:0.98173517;stroke:#ff0000;stroke-width:1;stroke-linecap:butt;stroke-linejoin:miter;stroke-miterlimit:4;stroke-dasharray:none;stroke-dashoffset:0;stroke-opacity:1;paint-order:stroke fill markers"
       id="path935"
       d="m 45.821385,133.64969 c -0.56079,0.46098 -1.016458,1.02887 -1.428692,1.62199 -0.129029,0.2646 -0.553111,0.71949 -0.378073,1.05651 0.02418,0.0466 0.07026,0.078 0.105394,0.11701 0.614963,0.31226 1.329711,0.35367 1.989436,0.54133 0.543886,0.18088 1.29286,0.45087 1.388679,1.11495 0.01537,0.10658 -0.0068,0.21526 -0.01024,0.32289 -0.04302,0.11973 -0.06881,0.24713 -0.129046,0.35919 -0.498369,0.92718 -1.880216,1.54019 -2.71109,2.00372 -0.308554,0.11463 -0.650671,0.32944 -0.999283,0.26678 -0.07428,-0.0134 -0.138332,-0.0604 -0.2075,-0.0906 0,0 0.860039,-0.57791 0.860039,-0.57791 v 0 c 0.437271,0.14124 0.734713,-0.0629 1.138013,-0.23301 -0.149421,0.0946 -0.306364,0.17833 -0.44826,0.28392 -0.132546,0.0986 0.283466,-0.17013 0.420124,-0.26298 0.484224,-0.329 0.962332,-0.71811 1.158221,-1.288 0.009,-0.0963 0.0362,-0.19268 0.02714,-0.28903 -0.05944,-0.6319 -0.832276,-0.86885 -1.32575,-1.03437 -0.553776,-0.1495 -0.276662,-0.0856 -0.834017,-0.19296 -0.332407,-0.064 -0.696519,-0.11332 -1.006415,-0.26061 -0.07127,-0.0339 -0.132908,-0.0851 -0.199363,-0.12766 -0.04417,-0.0535 -0.10033,-0.099 -0.132514,-0.16048 -0.196921,-0.37604 0.196231,-0.83941 0.35656,-1.14018 0.41038,-0.5967 0.862042,-1.16001 1.397445,-1.65127 0,0 0.969198,-0.37922 0.969198,-0.37922 z"
       inkscape:connector-curvature="0" />
    <path
       style="opacity:1;vector-effect:none;fill:#ff0000;fill-opacity:0.98173517;stroke:#ff0000;stroke-width:1;stroke-linecap:butt;stroke-linejoin:miter;stroke-miterlimit:4;stroke-dasharray:none;stroke-dashoffset:0;stroke-opacity:1;paint-order:stroke fill markers"
       id="path937"
       d="m 48.995819,133.50248 c -0.399124,0.49422 -0.745125,1.03226 -1.033632,1.59792 -0.283774,0.58773 -0.03434,0.72206 0.517115,0.86401 0.52302,0.12398 1.066869,0.19739 1.563698,0.41352 0.333563,0.14511 0.38826,0.21004 0.675338,0.42208 0.459732,0.41624 0.659773,0.98766 0.35994,1.56765 -0.05712,0.1105 -0.140915,0.20503 -0.211373,0.30754 -0.499782,0.54385 -1.129269,0.83996 -1.785388,1.19349 -0.261699,0.14101 -0.505343,0.19974 -0.795144,0.17183 -0.0569,-0.0368 -0.113792,-0.0737 -0.170688,-0.11051 0,0 0.871053,-0.56526 0.871053,-0.56526 v 0 c 0.04691,0.0236 0.09383,0.0471 0.14074,0.0707 0.232275,-0.002 0.202893,0.0161 0.449826,-0.076 0.102696,-0.0383 0.386588,-0.20101 0.300863,-0.1327 -0.168124,0.13395 -0.360032,0.23679 -0.552257,0.333 -0.22919,0.11472 0.875567,-0.52861 0.601851,-0.47851 0.07346,-0.0941 0.15934,-0.17973 0.220392,-0.28233 0.316064,-0.53115 0.146281,-1.06254 -0.292565,-1.45164 -0.278445,-0.20088 -0.332428,-0.26347 -0.655675,-0.39877 -0.500105,-0.20933 -1.045223,-0.27623 -1.568368,-0.40232 -0.581348,-0.17042 -0.902023,-0.38871 -0.607716,-1.02148 0.283051,-0.57042 0.63273,-1.10684 1.015066,-1.61562 0,0 0.956924,-0.40657 0.956924,-0.40657 z"
       inkscape:connector-curvature="0" />
    <path
       style="opacity:1;vector-effect:none;fill:#ff0000;fill-opacity:0.98173517;stroke:#ff0000;stroke-width:1;stroke-linecap:butt;stroke-linejoin:miter;stroke-miterlimit:4;stroke-dasharray:none;stroke-dashoffset:0;stroke-opacity:1;paint-order:stroke fill markers"
       id="path939"
       d="m 52.614525,133.28591 c 0.09139,0.72439 0.248386,1.44049 0.425051,2.14846 0.193058,0.59665 0.365889,1.21305 0.659219,1.77051 0.09042,0.13998 0.03519,0.10163 0.135666,0.14927 0,0 -0.883066,0.56187 -0.883066,0.56187 v 0 c -0.11149,-0.0993 -0.05614,-0.0372 -0.153175,-0.19702 -0.286859,-0.57051 -0.457343,-1.19563 -0.652444,-1.80113 -0.179255,-0.7076 -0.336899,-1.42248 -0.452353,-2.14331 0,0 0.921102,-0.48865 0.921102,-0.48865 z"
       inkscape:connector-curvature="0" />
    <path
       style="opacity:1;vector-effect:none;fill:#ff0000;fill-opacity:0.98173517;stroke:#ff0000;stroke-width:1;stroke-linecap:butt;stroke-linejoin:miter;stroke-miterlimit:4;stroke-dasharray:none;stroke-dashoffset:0;stroke-opacity:1;paint-order:stroke fill markers"
       id="path941"
       d="m 58.608025,132.3687 c -0.400685,-0.27601 -0.873551,-0.40759 -1.348128,-0.23771 -0.118547,0.0424 -0.22597,0.11114 -0.338958,0.16671 0.173723,-0.0914 0.325837,-0.29362 0.521171,-0.27418 0.148508,0.0148 -0.235061,0.18534 -0.339146,0.2923 -0.106317,0.10926 -0.203491,0.22816 -0.289687,0.3539 -0.261072,0.38085 -0.393742,0.79165 -0.505708,1.23288 -0.07124,0.65057 0.204988,1.05174 0.904385,0.91252 0.141909,-0.0283 0.275455,-0.0887 0.413184,-0.13305 0.144981,-0.0791 0.459862,-0.074 0.434943,-0.23731 -0.02413,-0.15807 -0.376049,0.32902 -0.443103,0.18385 -0.07138,-0.15454 0.249486,-0.23256 0.361331,-0.36088 0.299485,-0.34361 0.482928,-0.72476 0.656622,-1.14001 0.115385,-0.35403 0.311256,-0.77191 0.07665,-1.11602 0.0074,-0.13182 -0.174758,0.0437 -0.156425,0.0343 0.284721,-0.14526 0.549326,-0.32892 0.8382,-0.46573 0.02601,-0.0123 -0.02543,0.0531 -0.02752,0.0818 -0.0028,0.0375 0.0089,0.0747 0.01333,0.11208 0.145807,0.34537 0.449636,0.5909 0.712761,0.84515 0.41942,0.40529 0.34898,0.34139 0.787424,0.79986 1.003594,1.16912 1.906466,2.44771 2.50095,3.87737 0.134199,0.32273 0.237625,0.65742 0.356439,0.98613 0.429413,1.49076 0.58103,3.16903 -0.213958,4.57753 -0.135208,0.23955 -0.32331,0.44512 -0.484966,0.66768 -0.617701,0.55996 -0.578961,0.59854 -1.334616,0.98327 -0.548386,0.2792 -1.09641,0.56372 -1.669304,0.78837 -0.774068,0.30355 -1.797902,0.3321 -2.618497,0.34828 -0.832559,-0.0675 -1.879097,-0.17727 -2.349521,-0.99364 -0.269928,-0.46843 -0.202663,-0.77188 -0.213947,-1.29978 0.05416,-0.28569 0.108328,-0.57138 0.162494,-0.85707 0,0 0.88365,-0.42944 0.88365,-0.42944 v 0 c -0.05346,0.27774 -0.106929,0.55548 -0.160393,0.83322 0.0067,0.48717 -0.05907,0.79773 0.190018,1.23189 0.451885,0.78762 1.487104,0.87148 2.282188,0.93469 0.788545,-0.022 0.931142,0.006 1.720752,-0.15078 0.295304,-0.0587 0.575037,-0.2034 0.875548,-0.22205 0.05671,-0.004 -0.07543,0.18745 -0.02167,0.16906 0.557972,-0.19093 0.918041,-0.57372 1.348131,-0.94564 0.165241,-0.21592 0.356992,-0.41393 0.495721,-0.64776 0.817824,-1.3785 0.682424,-3.0431 0.262154,-4.51906 -0.11749,-0.32591 -0.219418,-0.65785 -0.352472,-0.97772 -0.591132,-1.42109 -1.497121,-2.68687 -2.513825,-3.83216 -0.472514,-0.47773 -0.352838,-0.36604 -0.800261,-0.7866 -0.284808,-0.26771 -0.603107,-0.52582 -0.765392,-0.89147 -0.0036,-0.0165 -0.06472,-0.23508 -0.02458,-0.26617 0.288277,-0.22321 0.796166,-0.85807 1.180071,-0.51312 0.243827,0.38951 0.09321,0.8134 -0.05295,1.21618 -0.567737,1.40812 -1.294146,1.92921 -2.74135,2.60256 -0.144796,0.0383 -0.285898,0.0953 -0.434385,0.11484 -0.75016,0.0988 -1.058693,-0.39182 -0.996241,-1.07481 0.169746,-0.71126 0.459753,-1.52137 1.103836,-1.94969 0.396706,-0.26381 0.81883,-0.48725 1.228244,-0.73088 0.118853,-0.0497 0.232822,-0.1133 0.356558,-0.14922 0.502406,-0.14583 0.994703,0.0206 1.412718,0.3012 0,0 -0.882491,0.55431 -0.882491,0.55431 z"
       inkscape:connector-curvature="0" />
    <path
       style="opacity:1;vector-effect:none;fill:#ff0000;fill-opacity:0.98173517;stroke:#ff0000;stroke-width:1;stroke-linecap:butt;stroke-linejoin:miter;stroke-miterlimit:4;stroke-dasharray:none;stroke-dashoffset:0;stroke-opacity:1;paint-order:stroke fill markers"
       id="path943"
       d="m 62.461245,131.52351 c 0.193768,0.60513 0.474779,1.17529 0.765085,1.73858 0.142618,0.29089 0.281347,0.58397 0.406276,0.88297 0.0046,0.0115 0.0205,0.0449 0.01392,0.0344 -0.230783,-0.36638 0.645088,-0.0712 -0.948396,0.3841 -0.03936,0.0112 -0.158057,-0.66718 -0.166923,-0.71902 -0.09089,-0.87604 0.208092,-1.73843 0.656418,-2.48425 0.116318,-0.1935 0.258683,-0.3701 0.388024,-0.55515 0.711354,-0.78686 1.762355,-1.77388 2.896928,-1.69333 0.498639,0.0354 0.698823,0.21118 1.122863,0.44846 0.968454,0.74782 1.490229,1.82462 1.916689,2.93884 0,0 -0.87241,0.48499 -0.87241,0.48499 v 0 c -0.409697,-1.09749 -0.918459,-2.15608 -1.883596,-2.87567 -0.420301,-0.22136 -0.60199,-0.38128 -1.090617,-0.39438 -0.184492,-0.005 -0.40191,0.19601 -0.547481,0.0826 -0.108554,-0.0846 0.431678,-0.34157 0.322275,-0.25808 -0.611941,0.46702 -0.409128,0.29928 -0.949235,0.86941 -0.130894,0.18051 -0.275349,0.35192 -0.392678,0.54153 -0.444736,0.71869 -0.744768,1.56169 -0.659638,2.4126 0.04273,0.23712 0.04844,0.31163 0.113739,0.53056 0.01704,0.0571 0.09947,0.12447 0.05941,0.16857 -0.08528,0.0939 -0.739539,1.05268 -0.894995,0.59427 -0.110262,-0.30195 -0.244052,-0.59486 -0.382312,-0.88482 -0.286962,-0.5701 -0.570069,-1.14271 -0.786318,-1.74439 0,0 0.912974,-0.50281 0.912974,-0.50281 z"
       inkscape:connector-curvature="0" />
    <path
       style="opacity:1;vector-effect:none;fill:#ff0000;fill-opacity:0.98173517;stroke:#ff0000;stroke-width:1;stroke-linecap:butt;stroke-linejoin:miter;stroke-miterlimit:4;stroke-dasharray:none;stroke-dashoffset:0;stroke-opacity:1;paint-order:stroke fill markers"
       id="path945"
       d="m 41.053247,152.66818 c -0.38331,-0.0101 -0.774742,0.0335 -1.133224,0.17771 -0.112882,0.0454 -0.430813,0.22549 -0.327348,0.16147 0.175962,-0.10888 0.363623,-0.19761 0.545434,-0.29642 -0.764654,0.53813 -1.117571,1.19654 -1.37912,2.07158 -0.129013,0.72809 0.09118,1.45349 0.702189,1.90394 0.117266,0.0864 0.251457,0.14722 0.377187,0.22083 0.760849,0.27272 1.328859,0.0174 2.02633,-0.28648 0.103592,-0.0451 -0.372319,0.23288 -0.30906,0.13925 0.122203,-0.18088 0.333597,-0.28163 0.500396,-0.42244 0,0 0.925938,-0.37553 0.925938,-0.37553 v 0 c -0.164975,0.14514 -0.312597,0.31279 -0.494927,0.43541 -0.808365,0.54366 -1.95799,1.35952 -3.040136,1.19882 -0.158845,-0.0236 -0.307949,-0.0912 -0.461923,-0.13682 -0.129797,-0.0795 -0.26851,-0.14605 -0.38939,-0.23857 -0.628219,-0.48082 -0.871365,-1.2377 -0.755295,-2.00259 0.251309,-0.8889 0.587409,-1.57102 1.345784,-2.13814 0.999432,-0.58769 1.568755,-1.05579 2.710839,-1.02498 0,0 -0.843674,0.61296 -0.843674,0.61296 z"
       inkscape:connector-curvature="0" />
    <path
       style="opacity:1;vector-effect:none;fill:#ff0000;fill-opacity:0.98173517;stroke:#ff0000;stroke-width:1;stroke-linecap:butt;stroke-linejoin:miter;stroke-miterlimit:4;stroke-dasharray:none;stroke-dashoffset:0;stroke-opacity:1;paint-order:stroke fill markers"
       id="path947"
       d="m 40.661396,147.5116 c 0.126344,1.22946 0.591315,2.3886 1.04706,3.52613 0.594587,1.37695 1.308663,2.70072 2.239735,3.8791 0.25927,0.29986 0.406095,0.46326 0.781044,0.57029 0,0 -0.855355,0.57888 -0.855355,0.57888 v 0 c -0.351179,-0.14194 -0.556244,-0.32698 -0.792634,-0.63284 -0.913484,-1.20174 -1.627748,-2.53386 -2.230572,-3.9161 -0.464918,-1.1447 -0.930193,-2.30348 -1.118452,-3.53202 0,0 0.929174,-0.47344 0.929174,-0.47344 z"
       inkscape:connector-curvature="0" />
    <path
       style="opacity:1;vector-effect:none;fill:#ff0000;fill-opacity:0.98173517;stroke:#ff0000;stroke-width:1;stroke-linecap:butt;stroke-linejoin:miter;stroke-miterlimit:4;stroke-dasharray:none;stroke-dashoffset:0;stroke-opacity:1;paint-order:stroke fill markers"
       id="path949"
       d="m 48.065115,152.43677 c -0.620098,-0.17681 -1.200787,-0.26059 -1.841756,-0.1641 0.189214,-0.17734 -0.921052,0.40162 -0.691248,0.30017 0.192029,-0.0848 0.353367,-0.28043 0.563274,-0.28158 0.132696,-7.9e-4 -0.196347,0.1795 -0.282945,0.28004 -0.234368,0.27212 -0.254247,0.36132 -0.414804,0.68114 -0.247766,0.65565 -0.142509,1.33089 0.417441,1.79238 0.109829,0.0905 0.238782,0.15494 0.35817,0.23241 0.425034,0.19151 0.874627,0.25175 1.333246,0.14581 0.155622,-0.0359 0.45431,-0.31939 0.451768,-0.15969 -0.0027,0.17138 -0.318749,0.34958 -0.453097,0.24314 -0.124962,-0.099 0.235977,-0.21446 0.353963,-0.32169 0.579196,-0.66512 0.857604,-1.47128 0.864475,-2.34431 -0.01053,-0.1907 -0.03731,-0.38034 -0.09317,-0.56325 -0.0089,-0.029 -0.01786,-0.0583 -0.03078,-0.0858 -0.0043,-0.009 -0.02949,-0.0187 -0.02019,-0.0228 0.29432,-0.12892 0.596122,-0.24004 0.894183,-0.36006 -0.04007,0.62803 0.328584,1.12024 0.763095,1.52825 0.485614,0.35095 0.713042,0.45571 1.308021,0.40184 0,0 -0.826622,0.60731 -0.826622,0.60731 v 0 c -0.604541,0.0105 -0.866351,-0.10489 -1.351071,-0.47307 -0.457089,-0.43805 -0.830913,-0.94898 -0.830998,-1.60969 0.315878,-0.20912 0.621321,-0.43493 0.947637,-0.62735 0.01386,-0.008 0.07412,0.16973 0.09748,0.28343 0.04124,0.20076 0.03728,0.23517 0.05726,0.45569 -0.0039,0.89394 -0.270179,1.72482 -0.841925,2.42432 -0.115353,0.11428 -0.21068,0.25318 -0.346059,0.34284 -0.819229,0.54257 -1.688759,1.11845 -2.705388,0.8523 -0.148434,-0.0389 -0.285555,-0.11238 -0.428332,-0.16858 -0.123854,-0.0838 -0.257751,-0.15445 -0.371565,-0.25148 -0.577257,-0.49212 -0.717441,-1.20125 -0.475736,-1.9004 0.05804,-0.1257 0.10609,-0.25652 0.174122,-0.37711 0.491427,-0.87105 1.47592,-1.35459 2.399874,-1.63647 0.637003,-0.0704 1.268248,0.0146 1.884183,0.1911 0,0 -0.862492,0.58519 -0.862492,0.58519 z"
       inkscape:connector-curvature="0" />
    <path
       style="opacity:1;vector-effect:none;fill:#ff0000;fill-opacity:0.98173517;stroke:#ff0000;stroke-width:1;stroke-linecap:butt;stroke-linejoin:miter;stroke-miterlimit:4;stroke-dasharray:none;stroke-dashoffset:0;stroke-opacity:1;paint-order:stroke fill markers"
       id="path951"
       d="m 47.874978,142.43603 c 0.270502,1.33217 0.854779,2.57645 1.388263,3.81864 0.749226,1.80121 1.6607,3.5215 2.653136,5.1982 0.34467,0.46795 0.936178,1.61155 1.575406,1.75391 0.0686,0.0153 0.140422,-0.006 0.210635,-0.009 0.578601,-0.32949 -0.323025,0.18916 -0.522322,0.24058 -0.07882,0.0203 0.09845,-0.13019 0.138993,-0.20077 0.04035,-0.0703 0.06853,-0.14683 0.102799,-0.22024 0,0 0.938781,-0.4305 0.938781,-0.4305 v 0 c -0.284152,0.69143 -0.689438,0.99375 -1.498309,1.21552 -0.0772,-0.01 -0.157937,-0.004 -0.231592,-0.0289 -0.673473,-0.229 -1.187117,-1.3002 -1.56745,-1.82735 -0.978128,-1.68922 -1.886487,-3.41514 -2.64886,-5.21431 -0.543174,-1.24538 -1.131388,-2.48628 -1.460209,-3.81002 0,0 0.920729,-0.48571 0.920729,-0.48571 z"
       inkscape:connector-curvature="0" />
    <path
       style="opacity:1;vector-effect:none;fill:#ff0000;fill-opacity:0.98173517;stroke:#ff0000;stroke-width:1;stroke-linecap:butt;stroke-linejoin:miter;stroke-miterlimit:4;stroke-dasharray:none;stroke-dashoffset:0;stroke-opacity:1;paint-order:stroke fill markers"
       id="path953"
       d="m 48.157561,148.37006 c 0.995333,0.072 1.958517,-0.1644 2.913856,-0.41034 0.844894,-0.20824 0.424148,-0.10336 1.262248,-0.31459 0,0 -0.794383,0.60761 -0.794383,0.60761 v 0 c -0.837837,0.21024 -0.417248,0.10531 -1.261782,0.31477 -0.971978,0.24754 -1.94999,0.4669 -2.96082,0.41349 0,0 0.840881,-0.61094 0.840881,-0.61094 z"
       inkscape:connector-curvature="0" />
    <path
       style="opacity:1;vector-effect:none;fill:#ff0000;fill-opacity:0.98173517;stroke:#ff0000;stroke-width:1;stroke-linecap:butt;stroke-linejoin:miter;stroke-miterlimit:4;stroke-dasharray:none;stroke-dashoffset:0;stroke-opacity:1;paint-order:stroke fill markers"
       id="path955"
       d="m 55.489305,148.89564 c 0.746972,-0.0613 1.470263,-0.28035 2.17184,-0.53357 0.36897,-0.13677 0.345131,-0.12132 0.691737,-0.27422 0.08899,-0.0393 0.347213,-0.17408 0.265089,-0.12197 -1.28384,0.81476 -0.64516,0.4228 -0.447873,0.15468 0.03085,-0.49879 -0.779616,-0.64548 -1.132049,-0.72879 -0.606417,-0.12438 -1.229799,-0.0952 -1.795076,0.17645 -0.150874,0.0725 -0.497377,0.10236 -0.431792,0.25637 0.06504,0.15273 0.309723,-0.11958 0.464587,-0.17937 -0.626436,0.68649 -0.979422,1.58996 -0.924804,2.52801 0.01148,0.19705 0.05983,0.39019 0.08975,0.58529 0.250637,0.78615 0.729554,1.44366 1.514557,1.76564 0.570079,0.23382 0.784471,0.18846 1.398651,0.21668 0.895707,-0.048 1.666303,-0.42261 2.452507,-0.81146 0,0 -0.764349,0.60998 -0.764349,0.60998 v 0 c -0.801185,0.38246 -1.585468,0.74999 -2.493542,0.7798 -0.633047,-0.0414 -0.847828,5.2e-4 -1.432729,-0.25001 -0.805855,-0.34534 -1.297417,-1.02998 -1.562188,-1.84086 -0.03302,-0.20056 -0.08466,-0.39894 -0.09907,-0.60168 -0.06789,-0.95507 0.271402,-1.88115 0.883643,-2.60354 1.312211,-0.86961 1.942642,-1.51674 3.540117,-1.21164 0.48343,0.12099 1.199112,0.28239 1.24316,0.88817 -0.346734,0.68184 -1.545899,0.98737 -2.26291,1.28834 -0.716211,0.24818 -1.452718,0.46854 -2.21293,0.52067 0,0 0.843672,-0.61297 0.843672,-0.61297 z"
       inkscape:connector-curvature="0" />
    <path
       style="opacity:1;vector-effect:none;fill:#ff0000;fill-opacity:0.98173517;stroke:#ff0000;stroke-width:1;stroke-linecap:butt;stroke-linejoin:miter;stroke-miterlimit:4;stroke-dasharray:none;stroke-dashoffset:0;stroke-opacity:1;paint-order:stroke fill markers"
       id="path959"
       d="m 131.46585,163.52583 c 0.79165,-0.48943 1.58408,-0.99805 2.55018,-0.88712 0.15153,0.0174 0.29928,0.0591 0.44892,0.0887 0.92814,0.30743 1.65916,0.96342 2.12509,1.82033 0.11178,0.20557 0.19378,0.42599 0.29066,0.63898 0.58581,1.56697 0.55538,3.22227 0.36917,4.85735 -0.30343,1.96408 -0.78732,3.89318 -1.16918,5.84265 -0.34419,2.14759 -0.59959,4.32851 -0.5616,6.50775 0.008,0.44083 0.0418,0.8808 0.0627,1.32121 0.16712,1.45831 0.46473,2.94836 1.30289,4.18602 0.41157,0.60774 0.58089,0.69895 1.11202,1.16331 0.72475,0.53129 1.55325,0.84536 2.44181,0.94142 0.1151,-0.0102 0.32259,0.0535 0.41261,-0.0427 0.14831,0.209 -0.089,0.4007 -0.21945,0.55969 -0.57785,0.63197 -0.83733,1.46004 -1.09809,2.25726 -0.50272,1.80592 -0.54229,3.69358 -0.48821,5.5542 0.13577,2.28454 0.49268,4.54707 0.72529,6.82245 0.0897,1.25043 -0.0996,2.32896 -0.85757,3.3555 -0.48337,0.6547 -0.83622,0.91157 -1.44416,1.45495 -1.09566,0.88173 -2.30214,1.59137 -3.54027,2.25343 -0.40702,0.21764 -1.06468,0.5294 -1.54857,0.59813 -0.18563,0.0264 -0.37462,-0.0165 -0.56194,-0.0248 -0.1411,-0.0983 -0.2822,-0.19668 -0.42331,-0.29502 0,0 0.85338,-0.54587 0.85338,-0.54587 v 0 c 0.12914,0.0836 0.25828,0.16714 0.38741,0.25072 0.17701,0.003 0.35631,0.0368 0.53101,0.008 1.21941,-0.19927 2.45096,-1.18505 3.40727,-1.88041 0.60488,-0.53115 0.95761,-0.78488 1.44334,-1.42378 0.76496,-1.00621 0.97004,-2.06042 0.89215,-3.30152 -0.21695,-2.28096 -0.56542,-4.54764 -0.71531,-6.83479 -0.0662,-1.8613 -0.0453,-3.7505 0.43205,-5.56389 0.2491,-0.79775 0.49196,-1.63688 1.05069,-2.28058 0.2327,-0.26019 0.0408,-0.0313 0.20921,-0.26587 0.14218,-0.19795 -0.005,0.0114 0.0867,-0.0937 0.004,-0.004 0.001,-0.0188 0.005,-0.0151 0.0213,0.02 0.0353,0.0465 0.0529,0.0698 -0.14169,-0.0228 -0.29595,0.0267 -0.4369,-0.0191 -0.8907,-0.13222 -1.71862,-0.46581 -2.43845,-1.01638 -0.53094,-0.47917 -0.70526,-0.5793 -1.11571,-1.19923 -0.83393,-1.25953 -1.12966,-2.76488 -1.29739,-4.23973 -0.0209,-0.44246 -0.0547,-0.8845 -0.0627,-1.32738 -0.0396,-2.1807 0.2071,-4.36308 0.537,-6.51464 0.37121,-1.94535 0.84537,-3.86984 1.15357,-5.82677 0.18938,-1.61627 0.22486,-3.25378 -0.35703,-4.80297 -0.0955,-0.20807 -0.17611,-0.42364 -0.28651,-0.62421 -0.45908,-0.83411 -1.18002,-1.46721 -2.09455,-1.74267 -0.44056,-0.0738 -0.81709,-0.10953 -1.2565,0.001 -0.11431,0.0287 -0.22581,0.0684 -0.33593,0.11038 -0.0941,0.0359 -0.35866,0.18055 -0.27593,0.12311 0.21357,-0.14829 0.44741,-0.265 0.67112,-0.3975 0,0 -0.9692,0.37922 -0.9692,0.37922 z"
       inkscape:connector-curvature="0" />
    <path
       style="opacity:1;vector-effect:none;fill:#ff0000;fill-opacity:0.98173517;stroke:#ff0000;stroke-width:1;stroke-linecap:butt;stroke-linejoin:miter;stroke-miterlimit:4;stroke-dasharray:none;stroke-dashoffset:0;stroke-opacity:1;paint-order:stroke fill markers"
       id="path973"
       d="m 186.95241,107.41488 c 0.55754,-0.24018 1.13982,-0.40361 1.73689,-0.50734 0.80819,-0.12943 1.60933,-0.13704 2.41075,0.0245 0.71446,0.16901 1.27679,0.6019 1.74525,1.14898 0.4534,0.56133 0.59941,1.23495 0.63399,1.93825 -0.008,0.14248 -0.008,0.28578 -0.0249,0.42744 -0.0666,0.54369 -0.23355,1.07812 -0.37117,1.60616 -0.21042,0.80738 -0.14321,0.54761 -0.35283,1.3872 -0.46358,1.90507 -0.88269,3.81623 -1.1609,5.75753 -0.17735,1.63236 -0.35964,3.29331 -0.14533,4.93241 0.0353,0.26979 0.095,0.53582 0.14244,0.80373 0.18828,0.78532 0.46605,1.55104 0.94006,2.21156 0.11642,0.16223 0.3322,0.39887 0.46907,0.55322 0.17611,0.17197 0.33436,0.37308 0.5395,0.51346 0.0316,0.028 0.003,-0.0249 0.004,-0.02 0.0457,0.20096 0.0123,0.18822 -0.0531,0.39813 -0.30407,1.06276 -0.60031,2.12774 -0.86673,3.20061 -0.39107,1.69367 -0.6563,3.42769 -0.69115,5.16848 -0.008,0.38994 0.009,0.77997 0.0137,1.16996 0.12618,2.61199 0.8521,5.14129 1.56879,7.64064 0.54692,1.83229 1.0783,3.67311 1.43662,5.55334 0.21787,1.14322 0.25044,1.52159 0.39918,2.66381 0.14785,1.58151 0.10661,3.18707 -0.24517,4.74115 -0.2148,0.9489 -0.3911,1.35492 -0.71933,2.27766 -1.06413,2.67751 -2.49434,5.18956 -3.89795,7.69943 -0.59513,0.98909 -1.1521,2.00395 -1.79682,2.96268 -0.14398,0.21409 -0.49759,0.75563 -0.77163,0.92132 -0.36901,0.22312 -0.77179,0.38491 -1.15768,0.57737 0,0 0.81717,-0.62603 0.81717,-0.62603 v 0 c -0.19914,0.14397 -0.37684,0.32358 -0.59741,0.43189 -0.14752,0.0724 0.26378,-0.19949 0.37343,-0.3219 0.16436,-0.18351 0.30339,-0.38855 0.44406,-0.59079 0.66563,-0.95702 1.23102,-1.97976 1.83703,-2.974 1.40535,-2.49931 2.8269,-5.00644 3.88654,-7.67672 0.32398,-0.90767 0.50434,-1.32765 0.7201,-2.26072 0.3576,-1.54643 0.40988,-3.14519 0.27124,-4.72167 -0.14431,-1.14707 -0.1731,-1.51272 -0.38867,-2.66081 -0.35286,-1.87918 -0.88367,-3.71815 -1.43329,-5.54739 -0.72445,-2.50352 -1.46202,-5.03604 -1.59816,-7.6537 -0.006,-0.39152 -0.0247,-0.78304 -0.0183,-1.17456 0.0283,-1.74082 0.28289,-3.47556 0.65838,-5.1727 0.25282,-1.06609 0.54214,-2.12248 0.81801,-3.18277 0.0163,-0.0587 0.0336,-0.11713 0.0488,-0.17613 0.009,-0.0339 -0.009,-0.0889 0.0229,-0.10256 0.0205,-0.009 0.11718,0.0998 0.0271,0.0164 -0.19281,-0.16429 -0.35914,-0.3574 -0.52952,-0.5439 -0.74925,-0.879 -1.14928,-1.68665 -1.40094,-2.83204 -0.0473,-0.27124 -0.10674,-0.54063 -0.14184,-0.81371 -0.21188,-1.6485 -0.0244,-3.31741 0.14921,-4.95923 0.27264,-1.9392 0.68413,-3.84883 1.13225,-5.75458 0.19319,-0.79359 0.14855,-0.61895 0.3427,-1.38362 0.13213,-0.52039 0.2963,-1.04764 0.36555,-1.58184 0.0179,-0.13793 0.0181,-0.27757 0.0272,-0.41636 -0.0285,-0.68037 -0.16559,-1.33421 -0.60506,-1.87675 -0.45514,-0.53169 -1.00834,-0.93915 -1.70369,-1.09402 -0.79519,-0.1476 -1.59176,-0.13019 -2.38966,0.007 -0.59953,0.11602 -1.1801,0.29385 -1.7436,0.53071 0,0 0.82308,-0.63945 0.82308,-0.63945 z"
       inkscape:connector-curvature="0" />
    <path
       style="opacity:1;vector-effect:none;fill:#ff0000;fill-opacity:0.98173517;stroke:#ff0000;stroke-width:1;stroke-linecap:butt;stroke-linejoin:miter;stroke-miterlimit:4;stroke-dasharray:none;stroke-dashoffset:0;stroke-opacity:1;paint-order:stroke fill markers"
       id="path975"
       d="m 197.38921,117.81236 c 1.85624,2.76123 3.80236,5.46088 5.77087,8.14277 2.20493,2.90425 4.48849,5.75078 6.87524,8.50781 0.75392,0.83655 0.42257,0.45346 1.00257,1.14183 0,0 -1.76658,1.05649 -1.76658,1.05649 v 0 c -0.53988,-0.70414 -0.22645,-0.31212 -0.95475,-1.16435 -2.33063,-2.80515 -4.60032,-5.66174 -6.8145,-8.55969 -1.98366,-2.6801 -3.9332,-5.38493 -5.898,-8.07881 0,0 1.78515,-1.04605 1.78515,-1.04605 z"
       inkscape:connector-curvature="0" />
    <path
       style="opacity:1;vector-effect:none;fill:#ff0000;fill-opacity:0.98173517;stroke:#ff0000;stroke-width:1;stroke-linecap:butt;stroke-linejoin:miter;stroke-miterlimit:4;stroke-dasharray:none;stroke-dashoffset:0;stroke-opacity:1;paint-order:stroke fill markers"
       id="path977"
       d="m 209.66848,114.98372 c -1.8574,3.1498 -3.46857,6.44182 -5.16211,9.68197 -2.23733,4.08363 -4.23683,8.29441 -6.49811,12.36464 0,0 -1.81634,0.81032 -1.81634,0.81032 v 0 c 2.34767,-4.05391 4.36593,-8.28839 6.60199,-12.40346 1.65827,-3.20493 3.24203,-6.45013 4.96762,-9.61912 0,0 1.90695,-0.83435 1.90695,-0.83435 z"
       inkscape:connector-curvature="0" />
    <path
       style="opacity:1;vector-effect:none;fill:#ff0000;fill-opacity:0.98173517;stroke:#ff0000;stroke-width:1;stroke-linecap:butt;stroke-linejoin:miter;stroke-miterlimit:4;stroke-dasharray:none;stroke-dashoffset:0;stroke-opacity:1;paint-order:stroke fill markers"
       id="path979"
       d="m 149.71468,181.59845 c 2.24195,2.18553 4.11861,4.69098 5.9385,7.22711 2.27626,3.33508 4.2065,6.88654 6.28301,10.34593 0.65301,1.00905 1.28553,2.03952 2.06154,2.96031 0,0 -1.77273,1.06001 -1.77273,1.06001 v 0 c -0.73645,-0.96148 -1.3575,-2.0046 -1.99677,-3.03165 -2.03347,-3.47742 -3.9467,-7.03319 -6.23716,-10.3522 -1.83184,-2.51664 -3.71571,-5.01882 -6.03386,-7.11638 0,0 1.75747,-1.09313 1.75747,-1.09313 z"
       inkscape:connector-curvature="0" />
    <path
       style="opacity:1;vector-effect:none;fill:#ff0000;fill-opacity:0.98173517;stroke:#ff0000;stroke-width:1;stroke-linecap:butt;stroke-linejoin:miter;stroke-miterlimit:4;stroke-dasharray:none;stroke-dashoffset:0;stroke-opacity:1;paint-order:stroke fill markers"
       id="path981"
       d="m 165.60898,180.91195 c -0.20571,0.11766 -0.83873,0.437 -0.61714,0.35298 0.28927,-0.10969 1.02608,-0.66332 0.82212,-0.43071 -0.31524,0.35951 -0.79089,0.53838 -1.17095,0.82852 -0.46507,0.35505 -0.92009,0.72374 -1.36307,1.10601 -1.47442,1.27236 -1.80626,1.66649 -3.21785,3.09143 -3.41594,3.52798 -6.22451,7.5518 -8.58196,11.84496 -1.02232,2.13565 -0.56314,1.10319 -1.39252,3.09067 0,0 -1.79787,0.8275 -1.79787,0.8275 v 0 c 0.85637,-2.01303 0.38473,-0.96779 1.42879,-3.12941 2.367,-4.30229 5.17477,-8.34307 8.57743,-11.90039 2.70364,-2.77148 5.39386,-5.2763 8.9338,-6.97803 0,0 -1.62078,1.29647 -1.62078,1.29647 z"
       inkscape:connector-curvature="0" />
  </g>
</svg>
