<?xml version="1.0" encoding="UTF-8" standalone="no"?>
<!-- Created with Inkscape (http://www.inkscape.org/) -->

<svg
   xmlns:dc="http://purl.org/dc/elements/1.1/"
   xmlns:cc="http://creativecommons.org/ns#"
   xmlns:rdf="http://www.w3.org/1999/02/22-rdf-syntax-ns#"
   xmlns:svg="http://www.w3.org/2000/svg"
   xmlns="http://www.w3.org/2000/svg"
   xmlns:sodipodi="http://sodipodi.sourceforge.net/DTD/sodipodi-0.dtd"
   xmlns:inkscape="http://www.inkscape.org/namespaces/inkscape"
   width="210mm"
   height="297mm"
   viewBox="0 0 210 297"
   version="1.1"
   id="svg848"
   inkscape:version="0.92.2 5c3e80d, 2017-08-06"
   sodipodi:docname="xpath_anatomy.svg">
  <defs
     id="defs842" />
  <sodipodi:namedview
     id="base"
     pagecolor="#ffffff"
     bordercolor="#666666"
     borderopacity="1.0"
     inkscape:pageopacity="0.0"
     inkscape:pageshadow="2"
     inkscape:zoom="0.6"
     inkscape:cx="647.03884"
     inkscape:cy="827.61424"
     inkscape:document-units="mm"
     inkscape:current-layer="layer1"
     showgrid="false"
     inkscape:window-width="1680"
     inkscape:window-height="1005"
     inkscape:window-x="1033"
     inkscape:window-y="1081"
     inkscape:window-maximized="1" />
  <metadata
     id="metadata845">
    <rdf:RDF>
      <cc:Work
         rdf:about="">
        <dc:format>image/svg+xml</dc:format>
        <dc:type
           rdf:resource="http://purl.org/dc/dcmitype/StillImage" />
        <dc:title />
      </cc:Work>
    </rdf:RDF>
  </metadata>
  <g
     inkscape:label="Layer 1"
     inkscape:groupmode="layer"
     id="layer1">
    <flowRoot
       xml:space="preserve"
       id="flowRoot812"
       style="font-style:normal;font-variant:normal;font-weight:normal;font-stretch:normal;font-size:40px;line-height:1.25;font-family:Inconsolata;-inkscape-font-specification:Inconsolata;letter-spacing:0px;word-spacing:0px;fill:#000000;fill-opacity:1;stroke:none"
       transform="matrix(0.31529278,0,0,0.31529278,-86.893321,-25.428431)"><flowRegion
         id="flowRegion814"><rect
           id="rect816"
           width="1477.6238"
           height="74.381897"
           x="33.333332"
           y="309.18634" /></flowRegion><flowPara
         id="flowPara818">xpath  = <flowSpan
   style="fill:#ff0000"
   id="flowSpan820">//div</flowSpan>[<flowSpan
   style="fill:#0000ff"
   id="flowSpan828">@class=&quot;flexcolumn&quot;</flowSpan>]<flowSpan
   style="fill:#ff0000"
   id="flowSpan887">/div</flowSpan>[<flowSpan
   style="fill:#0000ff"
   id="flowSpan832">@role=&quot;option&quot;</flowSpan>]<flowSpan
   style="fill:#ff0000"
   id="flowSpan901">/*/span</flowSpan>[<flowSpan
   style="fill:#ffcc00"
   id="flowSpan1001">1</flowSpan>]</flowPara></flowRoot>    <path
       style="opacity:0.95999995;vector-effect:none;fill:#ff0000;fill-opacity:1;stroke:none;stroke-width:2;stroke-linecap:butt;stroke-linejoin:miter;stroke-miterlimit:4;stroke-dasharray:none;stroke-dashoffset:0;stroke-opacity:0.96078431;paint-order:stroke fill markers"
       id="path903"
       d="m 19.359142,51.205606 c -1.678059,1.47085 -3.220494,3.095392 -4.735927,4.731578 -2.198115,2.340144 -3.870753,5.061852 -5.3790904,7.876886 -1.564517,3.059015 -2.6038582,6.346071 -3.5213073,9.646457 0,0 -2.3005748,1.092832 -2.3005748,1.092832 v 0 c 0.9670709,-3.311424 2.0036335,-6.624343 3.5507879,-9.718333 1.483383,-2.825896 3.1260776,-5.563574 5.3085326,-7.916479 1.49361,-1.633873 3.030541,-3.238167 4.662491,-4.734234 0,0 2.415088,-0.978707 2.415088,-0.978707 z"
       inkscape:connector-curvature="0" />
    <path
       style="opacity:0.95999995;vector-effect:none;fill:#ff0000;fill-opacity:1;stroke:none;stroke-width:2;stroke-linecap:butt;stroke-linejoin:miter;stroke-miterlimit:4;stroke-dasharray:none;stroke-dashoffset:0;stroke-opacity:0.96078431;paint-order:stroke fill markers"
       id="path905"
       d="m 5.1784982,64.751301 c 0.2076112,1.859902 0.2599127,3.73316 0.3215005,5.602343 0.029742,1.048377 0.057449,2.09681 0.083811,3.145277 -0.068359,0.201975 0.2760623,-0.182052 0.2365026,-0.161195 -0.6705487,0.353539 -2.6227357,1.5197 -1.983943,1.111573 0.9855555,-0.629677 2.0242565,-1.172022 3.0362599,-1.758246 1.1076035,-0.554604 2.3013101,-0.907799 3.4129258,-1.450253 -3.1018716,1.794304 -1.5728556,1.152287 -1.0833495,0.01349 0,0 2.3648285,-1.101442 2.3648285,-1.101442 v 0 c -0.493519,1.563645 -1.7472288,1.884383 -3.315224,2.705854 -1.1287439,0.503809 -2.3101741,0.887645 -3.4034687,1.471472 -0.1455594,0.08364 -0.5813425,0.336087 -0.4366786,0.250912 0.6198843,-0.364982 2.4805555,-1.458171 1.8623586,-1.09034 -0.8354549,0.497105 -1.660866,1.012312 -2.514144,1.478159 -0.072813,0.03975 -0.1663454,0.0482 -0.2471349,0.02936 -0.1937872,-0.0452 -0.206797,-0.157511 -0.2712522,-0.304244 0.014581,-1.056711 9.79e-4,-2.113669 -0.02127,-3.170171 -0.049811,-1.850837 -0.096359,-3.709292 -0.3557236,-5.54496 0,0 2.3140006,-1.227593 2.3140006,-1.227593 z"
       inkscape:connector-curvature="0" />
    <path
       style="opacity:0.95999995;vector-effect:none;fill:#ff0000;fill-opacity:1;stroke:none;stroke-width:2;stroke-linecap:butt;stroke-linejoin:miter;stroke-miterlimit:4;stroke-dasharray:none;stroke-dashoffset:0;stroke-opacity:0.96078431;paint-order:stroke fill markers"
       id="path907"
       d="m 22.331874,43.657477 c 0.02292,1.999694 -0.08969,3.992168 -0.222491,5.986314 -0.07587,1.176724 -0.14391,2.354027 -0.195188,3.532098 -0.03797,0.957373 0.02014,0.601588 -2.356001,1.063511 -0.151613,0.02947 0.0019,-0.308898 0.0031,-0.463344 0.0017,-0.220046 0.0043,-0.440086 0.0059,-0.660135 0.0075,-1.057934 0.01557,-0.556329 -0.03979,-1.689822 -0.14937,-1.85778 -0.254506,-3.718095 -0.342118,-5.579642 -0.10596,-1.073462 0.03957,-5.889233 2.854052,-2.81241 1.309837,1.865689 2.327358,3.915238 3.403065,5.919693 0.920645,1.708348 1.793817,3.445734 2.899497,5.044241 0.809141,0.63995 0.577922,0.357526 -1.986005,1.228188 -0.126655,0.04301 0.122048,-0.241927 0.147209,-0.373298 0.05232,-0.273164 0.05771,-0.55327 0.08331,-0.83022 0.10391,-1.124146 0.113417,-1.337329 0.199978,-2.518244 0.261532,-2.326878 0.341627,-4.675748 0.740468,-6.985134 0.302101,-1.712812 0.947047,-1.421985 2.926371,-2.452828 0,0 -2.106538,1.56632 -2.106538,1.56632 v 0 c 0.671512,-0.41842 1.343022,-0.83684 2.014534,-1.25526 -0.07446,0.04736 -0.168976,0.07261 -0.223395,0.142087 -0.162976,0.208068 -0.23155,0.644842 -0.284962,0.868076 -0.461417,2.300513 -0.557146,4.652116 -0.801745,6.981812 -0.06764,1.116153 -0.128749,2.233358 -0.200171,3.34912 -0.01151,0.180017 0.09743,0.433678 -0.04907,0.538929 -2.278867,1.637279 -1.867847,1.914385 -2.705618,1.056963 -1.061503,-1.636961 -1.926519,-3.385502 -2.848339,-5.102802 -1.063066,-1.979588 -2.074216,-4.011025 -3.436339,-5.80703 -0.845707,-0.65147 -0.358534,-0.171439 1.84944,-1.466987 0.06744,-0.03957 -0.119902,0.109585 -0.14672,0.183039 -0.177424,0.485957 0.02927,1.049226 -0.03184,1.543806 0.0598,1.863188 0.16781,3.723923 0.328928,5.581251 0.05188,0.78469 0.06102,1.559115 0.0731,2.344729 0.0023,0.150937 0.125615,0.357042 0.0089,0.452774 -0.710337,0.58261 -1.538353,1.007237 -2.338776,1.458169 -0.04288,0.02416 0.0078,-0.09813 0.01173,-0.147196 0.09267,-1.188061 0.177561,-2.376723 0.258229,-3.565657 0.136065,-1.979554 0.270796,-3.958159 0.176899,-5.943706 0,0 2.330414,-1.187405 2.330414,-1.187405 z"
       inkscape:connector-curvature="0" />
    <path
       style="opacity:0.95999995;vector-effect:none;fill:#ff0000;fill-opacity:1;stroke:none;stroke-width:2;stroke-linecap:butt;stroke-linejoin:miter;stroke-miterlimit:4;stroke-dasharray:none;stroke-dashoffset:0;stroke-opacity:0.96078431;paint-order:stroke fill markers"
       id="path909"
       d="m 33.889127,49.432127 c -1.271889,-0.230804 -2.279079,-0.361444 -3.504962,0.137422 0.56702,-0.315658 1.107789,-0.683953 1.701062,-0.946973 0.193982,-0.086 -0.337048,0.25967 -0.487733,0.409065 -0.622885,0.617537 -0.9022,1.363829 -1.060209,2.205043 -0.07547,1.35618 0.611528,2.384051 1.6115,3.222336 0.715973,0.416706 1.539528,0.87253 2.395577,0.611741 0.207047,-0.06308 0.779738,-0.375301 0.589992,-0.271172 -0.549336,0.301456 -1.113129,0.575784 -1.669693,0.863674 1.174417,-1.168932 1.716386,-2.312252 1.553607,-3.971636 -0.450369,-1.368155 -1.590985,-2.242762 -2.939111,-2.62042 -0.474424,-0.02318 -0.788559,-0.08356 -1.251172,0.06974 -0.184857,0.06126 -0.688877,0.363648 -0.51652,0.273002 0.598215,-0.314616 1.196057,-0.629936 1.794084,-0.944904 0,0 -2.412973,0.969442 -2.412973,0.969442 v 0 c 1.66987,-1.030846 2.642669,-2.128838 4.5261,-1.825681 1.417034,0.478393 2.603582,1.419524 3.090233,2.87922 0.221691,1.764397 -0.276646,2.887403 -1.438609,4.214114 -2.562876,1.565579 -3.377268,2.736633 -5.919269,1.123219 -1.048064,-0.914392 -1.777515,-2.00973 -1.742649,-3.452934 0.360683,-2.593808 1.895563,-3.182286 4.218811,-4.40192 1.198628,-0.378325 2.381477,-0.272677 3.60626,-0.04686 0,0 -2.144326,1.504473 -2.144326,1.504473 z"
       inkscape:connector-curvature="0" />
    <path
       style="opacity:0.95999995;vector-effect:none;fill:#ff0000;fill-opacity:1;stroke:none;stroke-width:2;stroke-linecap:butt;stroke-linejoin:miter;stroke-miterlimit:4;stroke-dasharray:none;stroke-dashoffset:0;stroke-opacity:0.96078431;paint-order:stroke fill markers"
       id="path911"
       d="m 41.826627,49.432127 c -0.812279,-0.13277 -1.683229,-0.143438 -2.469002,0.143084 -0.211429,0.07709 -0.799738,0.412012 -0.606272,0.297048 0.536869,-0.319027 1.091796,-0.606637 1.637692,-0.909955 -1.267272,0.867698 -1.802675,2.121469 -1.980126,3.599058 0.09155,1.717241 0.863227,2.571734 2.356969,3.282895 0.629796,0.08433 0.714997,0.169592 1.334508,-0.04174 0.238763,-0.08145 0.907804,-0.440563 0.682578,-0.326911 -0.506003,0.255334 -0.958916,0.723823 -1.52499,0.752002 -0.309806,0.01543 0.425249,-0.454126 0.605941,-0.706255 0.202213,-0.282163 0.359246,-0.594112 0.538869,-0.891167 0.719987,-1.408512 0.977437,-2.960931 1.203592,-4.507103 0,0 2.28523,-1.124096 2.28523,-1.124096 v 0 c -0.215794,1.568762 -0.466601,3.144073 -1.150247,4.59073 -1.182142,2.119159 -1.307682,1.949154 -3.984807,3.487214 -0.684213,0.393094 -1.415042,0.408201 -2.150938,0.189791 -1.557102,-0.801251 -2.370535,-1.753521 -2.509674,-3.556829 0.13462,-1.523687 0.623859,-2.853584 1.878645,-3.81214 2.284897,-1.33041 3.433934,-2.394146 5.996358,-1.970095 0,0 -2.144326,1.504473 -2.144326,1.504473 z"
       inkscape:connector-curvature="0" />
    <path
       style="opacity:0.95999995;vector-effect:none;fill:#ff0000;fill-opacity:1;stroke:none;stroke-width:2;stroke-linecap:butt;stroke-linejoin:miter;stroke-miterlimit:4;stroke-dasharray:none;stroke-dashoffset:0;stroke-opacity:0.96078431;paint-order:stroke fill markers"
       id="path913"
       d="m 44.378554,39.742459 c 0.08113,2.330304 0.395507,4.642757 0.710785,6.95035 0.184292,1.859327 0.560914,3.684347 1.075946,5.477462 0.144574,0.292113 0.228547,0.709578 0.524854,0.905933 0.04604,0.03052 0.10645,0.0521 0.16056,0.04099 0.06374,-0.0131 0.220379,-0.138099 0.162999,-0.107413 -0.69252,0.370351 -1.379389,0.751174 -2.069084,1.126758 0,0 2.438524,-0.972498 2.438524,-0.972498 v 0 c -2.144823,1.24419 -2.667727,2.367786 -3.498595,0.247177 -0.486866,-1.818114 -0.865791,-3.658852 -1.038853,-5.536793 -0.31198,-2.31004 -0.621926,-4.620852 -0.793689,-6.946532 0,0 2.326553,-1.185436 2.326553,-1.185436 z"
       inkscape:connector-curvature="0" />
    <path
       style="opacity:0.95999995;vector-effect:none;fill:#ff0000;fill-opacity:1;stroke:none;stroke-width:2;stroke-linecap:butt;stroke-linejoin:miter;stroke-miterlimit:4;stroke-dasharray:none;stroke-dashoffset:0;stroke-opacity:0.96078431;paint-order:stroke fill markers"
       id="path915"
       d="m 49.013649,48.915094 c 1.066192,0.238078 2.127782,0.226193 3.205591,0.115195 0.337868,-0.101973 0.378534,-0.09947 0.679805,-0.241239 0.07538,-0.03547 0.292854,-0.158946 0.220318,-0.117978 -3.73363,2.108734 -2.325819,1.690754 -1.887193,0.902515 0.209481,-0.659424 -0.431956,-0.991468 -0.921729,-1.263174 -1.123275,-0.471273 -1.609688,-0.633124 -2.690207,0.0013 0.587431,-0.308689 1.132766,-0.716153 1.762289,-0.926071 0.199279,-0.06645 -0.2921,0.304239 -0.412885,0.476107 -0.558929,0.795309 -0.739436,1.761501 -0.904615,2.696747 -0.247285,1.808168 0.06285,2.457252 1.76785,3.097882 1.104064,0.240089 2.059199,-0.07231 3.095146,-0.414221 0,0 -2.013992,1.557743 -2.013992,1.557743 v 0 c -1.089105,0.315798 -2.086496,0.597651 -3.22204,0.291906 -1.818228,-0.753771 -2.175275,-1.436507 -1.948831,-3.398395 0.1349,-0.850535 0.483991,-2.803406 1.229841,-3.338163 0.855218,-0.613175 1.785009,-1.115021 2.677515,-1.67253 1.092028,-0.497414 1.79325,-0.289845 2.847181,0.206542 0.594003,0.35246 1.253151,0.787649 1.118695,1.574221 -0.332115,1.370785 -2.233736,1.799473 -3.491941,2.118624 -1.093939,0.09138 -2.173952,0.04433 -3.255124,-0.162637 0,0 2.144326,-1.504473 2.144326,-1.504473 z"
       inkscape:connector-curvature="0" />
    <path
       style="opacity:0.95999995;vector-effect:none;fill:#0000ff;fill-opacity:1;stroke:none;stroke-width:2;stroke-linecap:butt;stroke-linejoin:miter;stroke-miterlimit:4;stroke-dasharray:none;stroke-dashoffset:0;stroke-opacity:0.96078431;paint-order:stroke fill markers"
       id="path921"
       d="m 43.785641,88.955228 c -0.481272,2.159484 -0.40219,4.355076 -0.175096,6.537777 0.340437,1.992929 0.849974,4.169109 2.335189,5.653065 0.225907,0.22571 0.495678,0.40277 0.743519,0.60416 0.739926,0.50428 1.098449,0.64673 1.966023,0.64115 0,0 -1.479732,1.06657 -1.479732,1.06657 v 0 c -0.833858,-0.0671 -1.312762,-0.24125 -2.004449,-0.75772 -0.251846,-0.21248 -0.526098,-0.40095 -0.755539,-0.63745 -1.48404,-1.5297 -2.010172,-3.728242 -2.360104,-5.756456 -0.239406,-2.184937 -0.333754,-4.375364 0.0705,-6.55066 0,0 1.659689,-0.800436 1.659689,-0.800436 z"
       inkscape:connector-curvature="0" />
    <path
       style="opacity:0.95999995;vector-effect:none;fill:#0000ff;fill-opacity:1;stroke:none;stroke-width:2;stroke-linecap:butt;stroke-linejoin:miter;stroke-miterlimit:4;stroke-dasharray:none;stroke-dashoffset:0;stroke-opacity:0.96078431;paint-order:stroke fill markers"
       id="path923"
       d="m 38.656064,91.673433 c 0.756041,-0.684543 1.429551,-1.45166 2.198486,-2.122109 1.423294,-1.084027 2.053013,-1.695916 3.258148,-0.619861 0.575633,0.670597 1.002535,1.458389 1.406276,2.240979 0.203126,0.466987 0.110451,0.24113 0.28026,0.676648 0,0 -1.61127,0.896024 -1.61127,0.896024 v 0 c -0.157975,-0.428098 -0.07084,-0.206938 -0.263924,-0.662469 -0.388475,-0.763688 -0.801892,-1.53381 -1.37273,-2.177976 -0.222126,-0.182665 -0.284758,-0.266763 -0.547722,-0.368286 -0.330004,-0.127405 -0.509381,-0.0302 -0.496903,-0.03929 0.331324,-0.241379 1.989986,-1.226473 1.05256,-0.635987 -0.783228,0.651986 -1.465808,1.406192 -2.190488,2.121032 0,0 -1.712693,0.691296 -1.712693,0.691295 z"
       inkscape:connector-curvature="0" />
    <path
       style="opacity:0.95999995;vector-effect:none;fill:#0000ff;fill-opacity:1;stroke:none;stroke-width:2;stroke-linecap:butt;stroke-linejoin:miter;stroke-miterlimit:4;stroke-dasharray:none;stroke-dashoffset:0;stroke-opacity:0.96078431;paint-order:stroke fill markers"
       id="path993"
       d="m 95.852333,58.972074 c -0.705053,-0.323327 -1.433928,-0.0615 -2.11133,0.198016 -0.193873,0.09645 -0.390202,0.188119 -0.581617,0.289359 -0.03401,0.01799 0.138554,-0.06327 0.108569,-0.03916 -1.067541,0.858123 -0.343204,0.143883 -1.418011,1.127635 -0.740606,0.677868 -0.817726,0.808578 -1.494665,1.577226 -1.405613,1.701599 -2.415649,3.662143 -3.23487,5.699046 -0.216263,0.518581 -0.363268,1.053555 -0.459619,1.604812 0,0 -0.81108,0.395118 -0.81108,0.395118 v 0 c 0.105508,-0.563126 0.262197,-1.109115 0.487622,-1.638221 0.834417,-2.040935 1.841886,-4.014459 3.241474,-5.732994 0.245708,-0.283424 0.481243,-0.576001 0.737124,-0.850276 1.169908,-1.254011 2.555494,-2.279859 4.125568,-2.980951 0.710108,-0.261073 1.454375,-0.49471 2.183704,-0.158129 0,0 -0.772869,0.508522 -0.772869,0.508522 z"
       inkscape:connector-curvature="0" />
    <path
       style="opacity:0.95999995;vector-effect:none;fill:#0000ff;fill-opacity:1;stroke:none;stroke-width:2;stroke-linecap:butt;stroke-linejoin:miter;stroke-miterlimit:4;stroke-dasharray:none;stroke-dashoffset:0;stroke-opacity:0.96078431;paint-order:stroke fill markers"
       id="path995"
       d="M 85.830451,63.276813 C 85.723816,64.58619 85.64841,65.89805 85.59276,67.2106 c -0.04024,1.109875 -0.09021,2.220482 0.0085,3.328295 0.01185,0.05842 0.02962,0.248904 0.09962,0.306938 0.06239,0.05173 0.305099,-0.10522 0.23382,-0.06666 -0.636648,0.344448 -0.715303,0.41729 -0.186446,0.05044 1.125778,-0.831024 2.318504,-1.561846 3.50498,-2.300996 0.190315,-0.123905 0.380632,-0.247809 0.570947,-0.371713 0,0 0.819134,-0.319532 0.819134,-0.319532 v 0 c -0.191492,0.125007 -0.382987,0.250018 -0.574482,0.375025 -1.17892,0.734293 -2.36829,1.454399 -3.48244,2.286532 -0.539988,0.390811 -0.568159,0.428704 -1.378755,0.845423 -0.295507,0.151916 -0.393176,-0.169839 -0.415004,-0.385569 -0.07321,-1.118915 -0.01725,-2.237613 0.02434,-3.357007 0.05433,-1.305671 0.130746,-2.610075 0.189569,-3.915468 0,0 0.823883,-0.409498 0.823883,-0.409498 z"
       inkscape:connector-curvature="0" />
    <path
       style="opacity:0.95999995;vector-effect:none;fill:#ffcc00;fill-opacity:1;stroke:none;stroke-width:2;stroke-linecap:butt;stroke-linejoin:miter;stroke-miterlimit:4;stroke-dasharray:none;stroke-dashoffset:0;stroke-opacity:0.96078431;paint-order:stroke fill markers"
       id="path1007"
       d="m 235.85392,95.17171 c -0.18634,1.77825 -0.24131,3.5659 -0.28854,5.35212 -0.0344,1.61384 -0.0458,3.22815 -0.0328,4.8423 0.0124,1.03669 0.2034,0.98225 -1.67272,1.29361 -0.12052,0.02 -0.0329,-0.24213 -0.047,-0.36349 -0.0181,-0.15629 -0.033,-0.31294 -0.0495,-0.46941 -0.0149,-0.1803 -0.0299,-0.3606 -0.0448,-0.5409 0,0 1.62027,-0.84321 1.62027,-0.84321 v 0 c 0.016,0.17801 0.0319,0.35603 0.0479,0.53404 0.0182,0.15348 0.034,0.30728 0.0547,0.46045 0.0159,0.11775 0.14289,0.27216 0.055,0.35217 -1.90574,1.73593 -1.59784,1.46113 -1.59785,0.40848 0.026,-1.62401 0.0453,-3.24814 0.0828,-4.87195 0.0429,-1.77206 0.0839,-3.54541 0.22206,-5.3132 0,0 1.65058,-0.84101 1.65058,-0.84101 z"
       inkscape:connector-curvature="0" />
    <path
       style="opacity:0.95999995;vector-effect:none;fill:#ffcc00;fill-opacity:1;stroke:none;stroke-width:2;stroke-linecap:butt;stroke-linejoin:miter;stroke-miterlimit:4;stroke-dasharray:none;stroke-dashoffset:0;stroke-opacity:0.96078431;paint-order:stroke fill markers"
       id="path1009"
       d="m 234.30114,97.36395 c 0.47383,-0.81816 0.97656,-1.82099 1.82972,-2.31766 0.65546,-0.38158 1.3386,-0.71347 2.0079,-1.07021 0.13727,0.0291 0.29102,0.0159 0.4118,0.0874 0.99717,0.58979 0.50748,2.67786 0.35662,3.54982 -0.29121,1.36524 -0.76064,2.68495 -1.24565,3.99151 -0.0725,0.20012 -0.15732,0.40264 -0.23406,0.5988 0.68158,0.3896 1.33732,0.82569 1.9514,1.31463 0.67902,0.66084 1.27685,1.59237 0.87081,2.56952 -0.0802,0.19294 -0.2181,0.35643 -0.32716,0.53465 -0.1666,0.16284 -0.31704,0.34407 -0.49982,0.48853 -0.19786,0.15639 -0.41493,0.28851 -0.63627,0.4094 -1.23466,0.67435 -1.88107,1.2215 -3.1215,1.37032 -0.67154,0.0806 -0.97172,0.006 -1.62843,-0.0721 -0.7734,-0.1663 -1.67236,-0.47244 -2.03634,-1.2573 -0.069,-0.14877 -0.0779,-0.31858 -0.11689,-0.47787 0,0 1.6152,-0.86729 1.6152,-0.86729 v 0 c 0.0261,0.13836 0.0222,0.28599 0.0784,0.41508 0.32498,0.74585 1.22107,0.99414 1.93263,1.14128 0.65729,0.0638 0.9193,0.12918 1.5885,0.0259 0.27513,-0.0424 0.80924,-0.48161 0.81003,-0.20323 0.001,0.33137 -0.60088,0.31989 -0.80896,0.57778 -0.29662,0.36763 1.49193,-0.98886 1.15533,-0.82062 0.11598,-0.15971 0.25786,-0.30352 0.34795,-0.47915 0.4598,-0.89638 -0.12988,-1.77636 -0.76754,-2.38321 -0.64733,-0.50161 -1.3581,-0.9048 -2.02938,-1.36561 -0.1307,-0.25935 0.1051,-0.48864 0.18627,-0.74484 0.51916,-1.2961 1.00211,-2.61515 1.30468,-3.98036 0.11589,-0.65489 0.63479,-2.89128 -0.24846,-3.27511 -0.10754,-0.0467 -0.23421,-0.0119 -0.35132,-0.0178 0.37631,-0.24517 0.74441,-0.5034 1.12892,-0.7355 0.16136,-0.0974 -0.31641,0.20709 -0.45856,0.33086 -0.59163,0.51511 -1.02261,1.20603 -1.38706,1.89089 0,0 -1.67877,0.77144 -1.67877,0.77144 z"
       inkscape:connector-curvature="0" />
    <path
       style="opacity:0.95999995;vector-effect:none;fill:#ffcc00;fill-opacity:1;stroke:none;stroke-width:2;stroke-linecap:butt;stroke-linejoin:miter;stroke-miterlimit:4;stroke-dasharray:none;stroke-dashoffset:0;stroke-opacity:0.96078431;paint-order:stroke fill markers"
       id="path1011"
       d="m 243.3025,102.42973 c -0.10259,1.02304 -0.19647,2.17284 0.24375,3.13926 0.075,0.16465 0.19022,0.30782 0.28533,0.46172 0.32486,0.33331 0.70927,0.66338 1.2177,0.57428 0.1559,-0.0273 0.57695,-0.25832 0.43928,-0.18024 -1.44243,0.81815 -1.38477,0.87067 -0.81653,0.15295 0.47333,-0.89261 0.7566,-1.90095 0.58622,-2.91018 -0.0263,-0.0801 -0.0482,-0.16175 -0.0789,-0.24024 -0.007,-0.0169 -0.11315,-0.25064 -0.15256,-0.27876 -0.0189,-0.0135 -0.0894,0.0212 -0.0689,0.0104 1.62419,-0.85613 1.88967,-1.23352 1.43385,-0.65166 -0.30431,0.72257 0.14369,1.40223 0.56264,1.968 0.68892,0.83086 1.49287,1.5792 2.06293,2.50423 0.50642,0.82177 0.55018,1.08958 0.88844,2.00985 0.70001,2.48558 0.14967,4.95947 -1.18122,7.13873 -0.32836,0.53767 -0.72684,1.02925 -1.09026,1.54387 -1.22996,1.49582 -2.65985,2.80524 -4.33544,3.78811 -1.56189,0.91618 -2.84658,1.7518 -4.5687,2.13493 -0.47548,0.10578 -0.96741,0.11498 -1.45112,0.17246 -0.43779,-0.0669 -0.89224,-0.0636 -1.31339,-0.20067 -1.35402,-0.4406 -2.24982,-1.58172 -2.58111,-2.93784 -0.34397,-1.40804 -0.12681,-2.03662 0.0499,-3.46646 0.56098,-1.76971 0.50622,-1.96984 1.49448,-3.57345 0.33485,-0.54334 0.74465,-1.03675 1.11697,-1.55513 0,0 1.57296,-0.6806 1.57296,-0.6806 v 0 c -1.23255,1.67421 -2.17074,2.95839 -2.64039,5.04676 -0.17954,1.38921 -0.39708,2.0047 -0.0648,3.3728 0.3163,1.30249 1.1856,2.3816 2.49319,2.77778 0.41078,0.12446 0.85098,0.11286 1.27648,0.16929 2.65106,-0.35671 0.1853,0.0658 2.9316,-0.69684 0.0338,-0.009 0.0542,0.0804 0.0845,0.0627 1.67289,-0.97883 3.12993,-2.23263 4.36032,-3.73065 0.36329,-0.50591 0.76088,-0.98887 1.08988,-1.51772 1.32269,-2.12622 1.89302,-4.54524 1.20222,-6.98562 -0.33346,-0.89657 -0.37751,-1.16165 -0.8777,-1.95942 -0.57778,-0.92149 -1.39357,-1.65931 -2.08846,-2.48632 -0.46515,-0.61541 -0.92555,-1.33366 -0.68546,-2.1366 0.44777,-1.29678 1.97353,-1.73629 2.18521,-0.46642 0.1866,1.05094 -0.092,2.09625 -0.5395,3.04985 -0.70755,1.07225 -0.31394,0.62638 -2.30424,1.69367 -0.67951,0.36438 -1.35099,-0.11595 -1.78795,-0.59978 -0.10044,-0.16702 -0.22129,-0.32336 -0.30131,-0.50106 -0.44446,-0.987 -0.37067,-2.14891 -0.30506,-3.19831 0,0 1.65524,-0.81762 1.65524,-0.81762 z"
       inkscape:connector-curvature="0" />
    <path
       style="opacity:0.95999995;vector-effect:none;fill:#ffcc00;fill-opacity:1;stroke:none;stroke-width:2;stroke-linecap:butt;stroke-linejoin:miter;stroke-miterlimit:4;stroke-dasharray:none;stroke-dashoffset:0;stroke-opacity:0.96078431;paint-order:stroke fill markers"
       id="path1013"
       d="m 261.67259,99.56409 c -0.33904,1.19992 -0.49583,2.44781 -0.35005,3.68694 0.16323,0.66976 0.48581,1.81293 1.36727,1.84265 0.13131,0.004 0.25825,-0.0486 0.38737,-0.0728 0.12864,-0.0736 0.52279,-0.27752 0.38587,-0.2208 -0.40915,0.1695 -0.76475,0.51039 -1.20483,0.56008 -0.18114,0.0204 0.21592,-0.29561 0.29908,-0.45781 0.3088,-0.60213 0.3959,-1.21143 0.43982,-1.87472 0,0 1.62176,-0.81552 1.62176,-0.81552 v 0 c -0.0879,2.16872 -0.75181,3.03597 -3.01694,3.90347 -0.14398,0.003 -0.29014,0.0352 -0.4319,0.01 -0.92533,-0.1651 -1.26691,-1.26005 -1.45428,-2.03091 -0.16053,-1.25695 -0.007,-2.51195 0.28093,-3.74346 0,0 1.6759,-0.78705 1.6759,-0.78705 z"
       inkscape:connector-curvature="0" />
    <path
       style="opacity:0.95999995;vector-effect:none;fill:#ffcc00;fill-opacity:1;stroke:none;stroke-width:2;stroke-linecap:butt;stroke-linejoin:miter;stroke-miterlimit:4;stroke-dasharray:none;stroke-dashoffset:0;stroke-opacity:0.96078431;paint-order:stroke fill markers"
       id="path1015"
       d="m 265.75521,99.27507 c -0.1706,1.24752 -0.21912,2.50774 -0.2582,3.76501 -0.0293,1.03065 -0.0317,2.06173 -0.0285,3.0927 0,0.10208 0.003,0.20415 0.003,0.30622 0.003,0.13944 0.029,0.46927 0.009,0.47826 -1.75363,0.79112 -1.66674,1.2494 -1.65187,0.36052 -0.0111,-1.47134 0.0874,-2.93798 0.36533,-4.38286 0.33137,-1.21266 0.71573,-2.56578 1.66521,-3.46117 0.13126,-0.12378 0.29041,-0.2142 0.43561,-0.3213 0.67527,-0.33373 1.31368,-0.75581 2.02584,-1.00118 0.15155,-0.0522 0.32139,0.0621 0.45841,0.14523 0.85424,0.51846 1.06397,1.69006 1.27979,2.56707 0.3592,1.33404 0.17913,2.96465 0.88609,4.18095 0.0661,0.0242 0.13224,0.0484 0.19836,0.0726 0,0 -1.54919,1.01162 -1.54919,1.01162 v 0 c -0.081,-0.0559 -0.16208,-0.11177 -0.24312,-0.16766 -0.68287,-1.28734 -0.52311,-2.85531 -0.8753,-4.24195 -0.17661,-0.71254 -0.31903,-1.4879 -0.81793,-2.06401 -0.10956,-0.12652 -0.23879,-0.2436 -0.38894,-0.31754 -0.1229,-0.0605 -0.49329,0.0311 -0.40439,-0.0731 0.29708,-0.34818 0.75399,-0.51905 1.13099,-0.77858 -0.15288,0.0941 -0.32062,0.16748 -0.4586,0.2823 -0.99444,0.82747 -1.38197,2.19731 -1.72538,3.38199 -0.28982,1.42481 -0.38499,2.87608 -0.33811,4.32979 0.0138,0.9394 0.0918,0.33349 -1.65356,1.32443 -0.0236,0.0134 0.003,-0.0542 0.003,-0.0813 0.003,-0.13542 0.003,-0.27087 0.005,-0.40631 0,-0.10307 0.003,-0.20615 0.003,-0.30922 0.007,-1.03603 0.0164,-2.07215 0.0458,-3.10784 0.0435,-1.25773 0.0957,-2.51582 0.22067,-3.76862 0,0 1.65938,-0.81606 1.65938,-0.81606 z"
       inkscape:connector-curvature="0" />
    <path
       style="opacity:0.95999995;vector-effect:none;fill:#ffcc00;fill-opacity:1;stroke:none;stroke-width:2;stroke-linecap:butt;stroke-linejoin:miter;stroke-miterlimit:4;stroke-dasharray:none;stroke-dashoffset:0;stroke-opacity:0.96078431;paint-order:stroke fill markers"
       id="path1017"
       d="m 276.68367,99.82514 c -0.8841,-0.24981 -1.79303,-0.11844 -2.64642,0.19113 -0.2627,0.0953 -0.9118,0.57422 -0.76898,0.334 0.15856,-0.26673 0.55057,-0.28643 0.82584,-0.42965 -0.94771,0.72726 -1.88483,1.69639 -1.98046,2.95891 -0.0156,0.20743 0.0206,0.41554 0.0311,0.62332 0.26834,1.13313 1.18147,1.93485 2.35323,2.05814 0.26273,0.0276 0.52829,-0.007 0.79245,-0.01 0.64302,0.25445 1.1044,-0.66917 1.69116,-0.57075 0.26575,0.0446 -0.76488,0.64629 -0.71252,0.38195 0.063,-0.31778 0.52258,-0.38583 0.75748,-0.60892 0.60782,-0.57722 0.68201,-0.79248 1.1194,-1.49134 0,0 1.6407,-0.72597 1.6407,-0.72597 v 0 c -0.16004,0.27056 -0.29813,0.55539 -0.48016,0.81169 -1.2079,1.70069 -3.458,2.87459 -5.4769,3.26281 -0.27369,-0.008 -0.55018,0.0162 -0.82108,-0.0235 -1.23516,-0.18131 -2.17824,-1.05494 -2.47825,-2.24871 -0.0169,-0.22121 -0.0608,-0.44203 -0.0505,-0.66364 0.0607,-1.30197 0.97612,-2.3274 1.93564,-3.10223 1.89269,-1.11713 3.52702,-2.36569 5.7986,-1.77743 0,0 -1.53032,1.03006 -1.53032,1.03006 z"
       inkscape:connector-curvature="0" />
    <path
       style="opacity:0.95999995;vector-effect:none;fill:#ffcc00;fill-opacity:1;stroke:none;stroke-width:2;stroke-linecap:butt;stroke-linejoin:miter;stroke-miterlimit:4;stroke-dasharray:none;stroke-dashoffset:0;stroke-opacity:0.96078431;paint-order:stroke fill markers"
       id="path1019"
       d="m 277.01342,88.6236 c -0.0985,2.26533 0.0204,4.52459 0.21339,6.78114 0.29231,2.92477 0.76186,5.83317 1.54797,8.66682 0.21484,0.55233 0.71466,2.55743 1.57856,2.51096 0.1185,-0.006 0.22455,-0.0768 0.33681,-0.11526 -1.3648,0.69323 -1.52683,0.95509 -0.88725,0.25723 0,0 1.68486,-0.71409 1.68486,-0.71409 v 0 c -0.78205,0.99419 -0.1684,0.31128 -2.26396,1.5687 -0.13128,0.012 -0.26363,0.0568 -0.39383,0.0361 -0.95919,-0.15252 -1.3484,-1.99026 -1.61592,-2.69562 -0.75707,-2.85462 -1.22404,-5.77522 -1.53,-8.71152 -0.20574,-2.24399 -0.33684,-4.48904 -0.32121,-6.74345 0,0 1.65058,-0.84102 1.65058,-0.84102 z"
       inkscape:connector-curvature="0" />
    <path
       style="opacity:0.95999995;vector-effect:none;fill:#ffcc00;fill-opacity:1;stroke:none;stroke-width:2;stroke-linecap:butt;stroke-linejoin:miter;stroke-miterlimit:4;stroke-dasharray:none;stroke-dashoffset:0;stroke-opacity:0.96078431;paint-order:stroke fill markers"
       id="path1021"
       d="m 283.08574,102.61935 c 0.96499,-0.10155 1.92241,-0.3761 2.78379,-0.82265 -0.41548,0.23646 -0.82283,0.48783 -1.24643,0.70937 -0.0921,0.0482 0.1718,-0.118 0.24887,-0.18767 0.27855,-0.25178 0.38312,-0.55687 0.41137,-0.9193 -0.12673,-0.82854 -1.05661,-1.04415 -1.74966,-1.21636 -0.50443,-0.004 -0.58298,-0.0493 -1.06886,0.12532 -0.1864,0.067 -0.71282,0.34554 -0.53729,0.2538 1.67796,-0.8769 1.04613,-0.63855 0.57737,-0.0405 -0.14052,0.17924 -0.24418,0.38454 -0.36626,0.57681 -0.49229,1.08054 -0.78431,2.33009 -0.28247,3.46742 0.0906,0.2053 0.22458,0.38855 0.33687,0.58283 0.8899,1.0273 2.18461,1.32506 3.48321,0.96102 0.31356,-0.0879 0.60849,-0.23225 0.91273,-0.34838 1.14261,-0.60823 1.20301,-0.62875 0.15576,-0.11133 0,0 1.67045,-0.65226 1.67045,-0.65226 v 0 c -2.61377,1.58026 -1.51405,0.99598 -3.23673,1.86549 -0.31313,0.10825 -0.6174,0.24674 -0.93943,0.32473 -1.37049,0.33193 -2.70856,-0.0521 -3.61701,-1.13235 -0.11824,-0.20551 -0.25842,-0.39988 -0.35478,-0.61652 -0.52398,-1.17808 -0.26511,-2.4644 0.21286,-3.60608 0.80679,-1.40585 1.13744,-1.40734 2.87583,-2.40118 0.51906,-0.29675 1.10202,-0.35983 1.68344,-0.28518 0.79018,0.21475 1.72135,0.50407 1.89368,1.41914 0.007,1.38227 -1.42463,1.80089 -2.49584,2.37505 -0.89498,0.41364 -1.86442,0.69414 -2.85015,0.7677 0,0 1.49868,-1.08887 1.49868,-1.08887 z"
       inkscape:connector-curvature="0" />
    <path
       style="opacity:0.95999995;vector-effect:none;fill:#ffcc00;fill-opacity:1;stroke:none;stroke-width:2;stroke-linecap:butt;stroke-linejoin:miter;stroke-miterlimit:4;stroke-dasharray:none;stroke-dashoffset:0;stroke-opacity:0.96078431;paint-order:stroke fill markers"
       id="path1023"
       d="m 287.36934,102.39568 c 1.20986,-0.87188 2.78567,-2.0357 4.38918,-1.57542 0.19486,0.0559 0.37253,0.16006 0.55877,0.24009 1.35054,0.98776 1.09366,1.96618 0.26437,3.21849 -0.17444,0.17729 -0.33284,0.37187 -0.52326,0.53187 -0.19905,0.16726 -0.41514,0.31538 -0.64011,0.4457 -1.12432,0.65126 -2.34101,1.4937 -3.70168,1.59628 -0.22643,0.0171 -0.45392,-0.0147 -0.68088,-0.022 -0.6409,-0.0977 -0.99023,-0.41942 -1.3856,-0.8918 0,0 1.56718,-0.9427 1.56718,-0.9427 v 0 c 0.371,0.4317 0.69311,0.70257 1.28898,0.76902 0.66693,-0.005 0.69439,0.0382 1.3635,-0.1515 0.24283,-0.0688 0.8156,-0.48634 0.71268,-0.25587 -0.13779,0.30858 -0.57385,0.3582 -0.84717,0.557 -0.40254,0.29281 1.65367,-1.03077 1.18258,-0.91191 0.7977,-1.09155 1.18465,-2.0433 -0.11536,-2.92912 -0.61732,-0.23673 -1.11524,-0.34233 -1.78024,-0.19088 -0.21032,0.0479 -0.7633,0.36273 -0.61267,0.20834 0.28392,-0.29097 0.68844,-0.43267 1.0365,-0.64272 0.12539,-0.0757 -0.24553,0.15965 -0.3683,0.23948 0,0 -1.70847,0.70766 -1.70847,0.70766 z"
       inkscape:connector-curvature="0" />
    <path
       style="opacity:0.95999995;vector-effect:none;fill:#ffcc00;fill-opacity:1;stroke:none;stroke-width:2;stroke-linecap:butt;stroke-linejoin:miter;stroke-miterlimit:4;stroke-dasharray:none;stroke-dashoffset:0;stroke-opacity:0.96078431;paint-order:stroke fill markers"
       id="path1025"
       d="m 296.70668,99.19501 c -0.12179,-0.0211 -0.24218,-0.0532 -0.36534,-0.0634 -0.56049,-0.0464 -1.11493,0.0712 -1.62137,0.31644 -0.21463,0.10395 -0.84574,0.42611 -0.6151,0.36541 0.32467,-0.0855 0.60343,-0.2945 0.90514,-0.44174 -1.33366,1.07877 -1.90931,2.43075 -2.173,4.08446 -0.0695,1.37732 0.54057,2.61206 1.90709,3.08546 0.32383,0.11219 0.67024,0.14339 1.00537,0.21508 2.16027,0.0456 3.77459,-0.67722 5.67195,-1.59499 0,0 -1.35504,1.07972 -1.35504,1.07972 v 0 c -1.91841,0.90121 -3.60987,1.63781 -5.78363,1.53191 -0.34761,-0.0825 -0.70782,-0.12327 -1.04283,-0.24741 -1.41759,-0.5253 -2.06814,-1.83036 -2.02197,-3.27489 0.24095,-1.71786 0.77602,-3.05009 2.1124,-4.21526 1.46164,-0.91111 3.06028,-2.355 4.92207,-1.85784 0,0 -1.54574,1.01704 -1.54574,1.01704 z"
       inkscape:connector-curvature="0" />
    <path
       style="opacity:0.95999995;vector-effect:none;fill:#ffcc00;fill-opacity:1;stroke:none;stroke-width:2;stroke-linecap:butt;stroke-linejoin:miter;stroke-miterlimit:4;stroke-dasharray:none;stroke-dashoffset:0;stroke-opacity:0.96078431;paint-order:stroke fill markers"
       id="path1027"
       d="m 260.84801,93.27053 c -0.57853,-0.21283 -1.20962,-0.22701 -1.81975,-0.19832 -0.005,0.009 -0.01,0.0182 -0.0143,0.0273 0,0 1.48325,-1.13705 1.48325,-1.13705 v 0 c 0.0106,0.005 0.0209,0.0102 0.0315,0.0153 0.63114,0.006 1.27418,0.0292 1.86513,0.27574 0,0 -1.54575,1.01704 -1.54575,1.01704 z"
       inkscape:connector-curvature="0" />
    <path
       style="opacity:0.95999995;vector-effect:none;fill:#0000ff;fill-opacity:1;stroke:none;stroke-width:2;stroke-linecap:butt;stroke-linejoin:miter;stroke-miterlimit:4;stroke-dasharray:none;stroke-dashoffset:0;stroke-opacity:0.96078431;paint-order:stroke fill markers"
       id="path1029"
       d="m 58.75779,96.056044 c -0.51154,1.761831 -0.96021,3.54104 -1.447212,5.309736 -0.385176,1.47069 -0.78055,2.93852 -1.139534,4.41592 -0.224288,0.95422 -0.0272,0.78798 -1.804623,1.18667 -0.101306,0.0227 0.01114,-0.20765 0.02648,-0.31034 0.02318,-0.15501 0.0593,-0.30782 0.08896,-0.46172 0.471458,-1.97437 0.748561,-3.98825 1.01469,-5.99852 0.282504,-1.821789 0.26665,-3.671965 0.452781,-5.501297 0.1529,-0.971992 0.456012,-1.010732 1.926043,-1.355677 0.140504,-0.03297 0.854583,1.610622 0.899832,1.716537 0.902028,2.261627 1.689862,4.567566 2.532573,6.851967 0.537215,1.31772 0.946287,2.68516 1.571667,3.96553 0.450205,0.68783 0.599903,0.29017 -1.587045,0.96943 -0.0799,0.0248 -0.1173,-0.11934 -0.17595,-0.17901 0,0 1.578043,-0.96414 1.578043,-0.96414 v 0 c 0.0637,0.066 0.254543,0.13173 0.191104,0.19796 -1.358112,1.41799 -1.188633,1.61159 -1.60949,0.88344 -0.589269,-1.30608 -0.988642,-2.68335 -1.518981,-4.01337 -0.827831,-2.28409 -1.612751,-4.587181 -2.550964,-6.828784 -0.256778,-0.569312 -0.33284,-0.809662 -0.657079,-1.301276 -0.06046,-0.09166 -0.286764,-0.178187 -0.208402,-0.255104 0.410821,-0.403267 0.950897,-0.649782 1.439828,-0.953669 0.139973,-0.087 -0.72971,0.645448 -0.192273,0.455504 -0.251693,1.832401 -0.217278,3.700394 -0.507986,5.530723 -0.256921,2.001016 -0.517081,4.006456 -0.949701,5.978456 -0.02776,0.14719 -0.05888,0.29378 -0.08327,0.44156 -0.01452,0.088 0.03983,0.21461 -0.03342,0.26549 -2.20359,1.53066 -1.727335,1.35968 -1.501267,0.47309 0.396309,-1.4819 0.802984,-2.96101 1.192115,-4.44479 0.483502,-1.75459 0.931785,-3.518192 1.383289,-5.281241 0,0 1.669801,-0.793075 1.669801,-0.793075 z"
       inkscape:connector-curvature="0" />
    <path
       style="opacity:0.95999995;vector-effect:none;fill:#0000ff;fill-opacity:1;stroke:none;stroke-width:2;stroke-linecap:butt;stroke-linejoin:miter;stroke-miterlimit:4;stroke-dasharray:none;stroke-dashoffset:0;stroke-opacity:0.96078431;paint-order:stroke fill markers"
       id="path1031"
       d="m 55.896089,103.49135 c 1.302792,0.17419 2.608781,0.23746 3.916822,0.10772 0,0 -1.454327,1.07687 -1.454327,1.07687 v 0 c -1.327488,0.10934 -2.651482,0.0362 -3.973811,-0.11899 0,0 1.511316,-1.0656 1.511316,-1.0656 z"
       inkscape:connector-curvature="0" />
    <path
       style="opacity:0.95999995;vector-effect:none;fill:#0000ff;fill-opacity:1;stroke:none;stroke-width:2;stroke-linecap:butt;stroke-linejoin:miter;stroke-miterlimit:4;stroke-dasharray:none;stroke-dashoffset:0;stroke-opacity:0.96078431;paint-order:stroke fill markers"
       id="path1033"
       d="m 63.248386,93.785985 c 0.308943,1.787538 0.464603,3.60254 0.682342,5.404758 0.263802,1.992757 0.514426,4.020457 1.464659,5.816877 0.302014,0.36778 0.643374,0.90092 1.189376,0.91828 0.141227,0.005 0.528918,-0.18088 0.411284,-0.1026 -1.83325,1.21992 -1.232053,0.67687 -0.745482,0.15695 0.519996,-0.68754 0.752779,-1.49181 0.995363,-2.30279 0,0 1.620615,-0.76932 1.620615,-0.76932 v 0 c -0.228365,0.82491 -0.451205,1.64435 -0.939469,2.36333 -0.129943,0.16274 -0.218305,0.37011 -0.389827,0.48821 -0.705678,0.4859 -1.919933,1.64447 -2.921915,1.00398 -0.346305,-0.22137 -0.546055,-0.54046 -0.792755,-0.85733 -0.933167,-1.83057 -1.193541,-3.87449 -1.460612,-5.89199 -0.22166,-1.77991 -0.386945,-3.576764 -0.73538,-5.335159 0,0 1.621801,-0.893196 1.621801,-0.893196 z"
       inkscape:connector-curvature="0" />
    <path
       style="opacity:0.95999995;vector-effect:none;fill:#0000ff;fill-opacity:1;stroke:none;stroke-width:2;stroke-linecap:butt;stroke-linejoin:miter;stroke-miterlimit:4;stroke-dasharray:none;stroke-dashoffset:0;stroke-opacity:0.96078431;paint-order:stroke fill markers"
       id="path1035"
       d="m 68.427081,93.527239 c -0.475015,1.761733 -0.640345,3.585249 -0.714047,5.402032 0.01402,1.833569 0.211285,3.747269 1.047855,5.410609 0.131438,0.26134 0.298855,0.50297 0.448284,0.75445 0.514006,0.57864 1.369621,1.73695 2.318017,1.44386 0.106357,-0.0329 0.187854,-0.1195 0.281781,-0.17925 -2.207789,1.08532 -1.333269,1.0271 -1.199782,0.30685 0.02424,-0.1308 -7.94e-4,-0.26606 -0.0013,-0.39909 0,0 1.632403,-0.83969 1.632403,-0.83969 v 0 c 0.09048,1.30017 -0.394296,1.21882 -1.872943,2.08041 -0.109517,0.037 -0.21371,0.0978 -0.328552,0.11113 -1.024654,0.11883 -1.820333,-0.95368 -2.385896,-1.62406 -0.151209,-0.25956 -0.320516,-0.5094 -0.453628,-0.77869 -0.836454,-1.6922 -1.043498,-3.62672 -1.069181,-5.487337 0.06008,-1.818965 0.229491,-3.633398 0.621027,-5.414166 0,0 1.675884,-0.787058 1.675884,-0.787058 z"
       inkscape:connector-curvature="0" />
    <path
       style="opacity:0.95999995;vector-effect:none;fill:#0000ff;fill-opacity:1;stroke:none;stroke-width:2;stroke-linecap:butt;stroke-linejoin:miter;stroke-miterlimit:4;stroke-dasharray:none;stroke-dashoffset:0;stroke-opacity:0.96078431;paint-order:stroke fill markers"
       id="path1037"
       d="m 64.284174,100.18403 c 1.100891,-0.364185 2.259962,-0.489867 3.406383,-0.621087 0,0 -1.450493,1.079707 -1.450493,1.079707 v 0 c -1.14984,0.13573 -2.31684,0.26941 -3.405397,0.68695 0,0 1.449507,-1.14557 1.449507,-1.14557 z"
       inkscape:connector-curvature="0" />
    <path
       style="opacity:0.95999995;vector-effect:none;fill:#0000ff;fill-opacity:1;stroke:none;stroke-width:2;stroke-linecap:butt;stroke-linejoin:miter;stroke-miterlimit:4;stroke-dasharray:none;stroke-dashoffset:0;stroke-opacity:0.96078431;paint-order:stroke fill markers"
       id="path1039"
       d="m 71.948783,104.44016 c 0.08719,0.70674 0.166719,1.41434 0.242808,2.12235 0.100764,0.70554 0.155432,0.30454 -1.622378,0.8932 -0.0726,0.024 0.01225,-0.15276 0.01003,-0.2292 -0.0052,-0.17824 -0.05638,-0.60926 -0.07315,-0.76335 -0.06354,-0.86078 -0.271788,-1.70075 -0.432419,-2.54632 -0.02588,-0.14457 -0.07126,-0.3187 -0.04242,-0.46845 0.154032,-0.79999 1.734092,-1.35321 2.463879,-1.66568 0.600707,-0.19066 0.29106,-0.0923 0.928939,-0.29504 0,0 -1.444855,1.12025 -1.444855,1.12025 v 0 c -0.639287,0.20928 -0.331539,0.10258 -0.923917,0.31814 -0.619895,0.30053 -1.197161,0.59315 0.946623,-0.60614 0.125616,-0.0703 -0.258548,0.16242 -0.315825,0.29447 -0.05171,0.11922 -4.5e-5,0.32284 0.01738,0.43479 0.14782,0.85284 0.347088,1.69866 0.428011,2.56161 0.0082,0.0648 0.132504,0.98698 0.102045,1.00929 -1.211046,0.88699 -1.610543,1.60577 -1.684266,0.7989 -0.05823,-0.70742 -0.128802,-1.41412 -0.236061,-2.116 0,0 1.63558,-0.86282 1.63558,-0.86282 z"
       inkscape:connector-curvature="0" />
    <path
       style="opacity:0.95999995;vector-effect:none;fill:#0000ff;fill-opacity:1;stroke:none;stroke-width:2;stroke-linecap:butt;stroke-linejoin:miter;stroke-miterlimit:4;stroke-dasharray:none;stroke-dashoffset:0;stroke-opacity:0.96078431;paint-order:stroke fill markers"
       id="path1041"
       d="m 76.937813,102.25746 c 0.167442,1.06774 0.607367,2.06595 1.06434,3.03697 0.177919,0.29135 0.305969,0.70578 0.583575,0.93233 0.04471,0.0365 0.108863,0.0687 0.164587,0.0537 0.05674,-0.0153 0.172485,-0.15444 0.119055,-0.12999 -0.490657,0.22451 -0.96138,0.49025 -1.442069,0.73538 0.02863,-0.11334 0.05727,-0.22669 0.0859,-0.34004 0,0 1.6539,-0.80625 1.6539,-0.80625 v 0 c -0.01543,0.13364 -0.03084,0.26727 -0.04626,0.40091 -1.816889,1.22971 -1.860476,1.79933 -2.708889,0.054 -0.459944,-0.98807 -0.895528,-2.00035 -1.109724,-3.07414 0,0 1.63558,-0.86282 1.63558,-0.86282 z"
       inkscape:connector-curvature="0" />
    <path
       style="opacity:0.95999995;vector-effect:none;fill:#0000ff;fill-opacity:1;stroke:none;stroke-width:2;stroke-linecap:butt;stroke-linejoin:miter;stroke-miterlimit:4;stroke-dasharray:none;stroke-dashoffset:0;stroke-opacity:0.96078431;paint-order:stroke fill markers"
       id="path1043"
       d="m 78.74201,93.93521 c -0.209675,2.01209 -0.03043,4.041227 0.08996,6.053775 0.124438,1.524875 0.296206,3.045705 0.49087,4.563115 0.124561,0.94076 0.277559,0.72537 -1.603081,1.13057 -5.29e-4,1e-4 -0.04461,-0.3016 -0.09301,-0.63181 -0.122216,-1.9644 1.464522,-2.32752 3.019621,-3.19623 1.024078,-0.31477 2.289622,-0.70024 3.310162,-0.14306 0.153752,0.0839 0.273828,0.21854 0.410742,0.32782 0.07201,0.14555 0.183446,0.27756 0.216022,0.43665 0.338354,1.65239 -2.814987,2.96407 -3.604469,3.41004 -0.95703,0.34433 -2.271993,0.85428 -3.23496,0.21052 -0.12042,-0.0805 -0.203314,-0.20637 -0.304972,-0.30956 0,0 1.566855,-0.96102 1.566855,-0.96102 v 0 c 0.08714,0.0841 0.158035,0.18924 0.261413,0.25234 0.945359,0.57706 2.211131,0.0232 3.117654,-0.32166 -0.271933,0.17253 -0.509984,0.41664 -0.815803,0.51759 -0.241683,0.0798 0.425776,-0.28212 0.615704,-0.45154 0.359389,-0.32058 0.874665,-0.89827 0.803064,-1.44173 -0.01754,-0.13322 -0.11262,-0.24402 -0.168932,-0.36603 -0.123991,-0.0936 -0.232994,-0.21136 -0.371977,-0.28075 -1.006653,-0.50263 -2.241548,-0.0813 -3.221011,0.25545 0.327742,-0.208 0.643723,-0.4358 0.983228,-0.62398 0.161491,-0.0895 -0.31288,0.20017 -0.447201,0.32686 -0.42404,0.39993 -0.54229,0.93722 -0.505838,1.49718 0.01733,0.11183 0.0336,0.22382 0.05196,0.33548 0.01611,0.0979 0.125929,0.22763 0.05143,0.29314 -1.75481,1.54328 -1.560193,1.58552 -1.66668,0.58754 -0.150339,-1.53364 -0.309126,-3.06657 -0.436631,-4.60232 -0.115922,-2.012792 -0.297651,-4.033795 -0.165515,-6.049844 0,0 1.651394,-0.818536 1.651394,-0.818536 z"
       inkscape:connector-curvature="0" />
    <path
       style="opacity:0.95999995;vector-effect:none;fill:#0000ff;fill-opacity:1;stroke:none;stroke-width:2;stroke-linecap:butt;stroke-linejoin:miter;stroke-miterlimit:4;stroke-dasharray:none;stroke-dashoffset:0;stroke-opacity:0.96078431;paint-order:stroke fill markers"
       id="path1045"
       d="m 86.915875,101.01021 c 0.04784,1.29786 0.4767,2.4769 1.16463,3.56331 0.432199,0.54757 1.013666,1.00101 1.745409,0.73473 0.151542,-0.0551 0.57024,-0.29936 0.420859,-0.2386 -0.394359,0.16039 -0.772083,0.35897 -1.158126,0.53846 0.738111,-0.96059 0.948917,-2.16015 1.094533,-3.33247 0.0011,-1.43992 -0.671441,-0.3266 1.463726,-1.50073 -0.143513,0.80494 0.22021,1.54144 0.650946,2.19402 0.589693,0.75155 1.406702,1.18545 2.349437,1.27989 0.111863,-0.0162 0.223729,-0.0323 0.335592,-0.0485 0,0 -1.4809,1.09602 -1.4809,1.09602 v 0 c -0.118496,0.004 -0.236992,0.008 -0.355486,0.0127 -0.976839,-0.16185 -1.817571,-0.6207 -2.427973,-1.41603 -0.454951,-0.69443 -0.831667,-1.45667 -0.747127,-2.3121 1.570087,-1.09822 1.824971,-1.734801 1.85606,-0.11681 -0.159041,1.20048 -0.36508,2.42246 -1.050319,3.45018 -1.701086,1.12532 -2.736065,2.41773 -4.267229,0.5739 -0.690166,-1.106 -1.139757,-2.30312 -1.229612,-3.61517 0,0 1.63558,-0.86282 1.63558,-0.86282 z"
       inkscape:connector-curvature="0" />
    <path
       style="opacity:0.95999995;vector-effect:none;fill:#0000ff;fill-opacity:1;stroke:none;stroke-width:2;stroke-linecap:butt;stroke-linejoin:miter;stroke-miterlimit:4;stroke-dasharray:none;stroke-dashoffset:0;stroke-opacity:0.96078431;paint-order:stroke fill markers"
       id="path1047"
       d="m 94.954547,88.047805 c -0.255903,2.417143 -0.215572,4.850056 -0.107829,7.274036 0.191172,1.716217 0.379106,3.474127 0.972476,5.109339 0.269902,0.74381 0.442288,0.99455 0.814901,1.66256 0.498443,0.65191 1.272365,1.6093 2.231324,1.45224 0.110516,-0.0181 0.205272,-0.0896 0.307906,-0.13442 -1.434264,0.73 -1.606563,1.09287 -1.140484,0.38935 0,0 1.68198,-0.74909 1.68198,-0.74909 v 0 c -0.491889,0.9807 -0.06259,0.26977 -1.998514,1.48777 -1.208857,0.25003 -1.99553,-0.65632 -2.642407,-1.54943 -0.371197,-0.68517 -0.544991,-0.94691 -0.813816,-1.70662 -0.585703,-1.655208 -0.773163,-3.428139 -0.967338,-5.160935 -0.113892,-2.417598 -0.155196,-4.839213 0.01402,-7.255806 0,0 1.647764,-0.818994 1.647764,-0.818994 z"
       inkscape:connector-curvature="0" />
    <path
       style="opacity:0.95999995;vector-effect:none;fill:#0000ff;fill-opacity:1;stroke:none;stroke-width:2;stroke-linecap:butt;stroke-linejoin:miter;stroke-miterlimit:4;stroke-dasharray:none;stroke-dashoffset:0;stroke-opacity:0.96078431;paint-order:stroke fill markers"
       id="path1049"
       d="m 93.590815,98.191395 c 0.731192,0.135951 1.470867,0.02492 2.201529,-0.05082 0,0 -1.459235,1.082807 -1.459235,1.082807 v 0 c -0.750898,0.07388 -1.507646,0.162819 -2.258563,0.03183 0,0 1.516269,-1.063824 1.516269,-1.063824 z"
       inkscape:connector-curvature="0" />
    <path
       style="opacity:0.95999995;vector-effect:none;fill:#0000ff;fill-opacity:1;stroke:none;stroke-width:2;stroke-linecap:butt;stroke-linejoin:miter;stroke-miterlimit:4;stroke-dasharray:none;stroke-dashoffset:0;stroke-opacity:0.96078431;paint-order:stroke fill markers"
       id="path1051"
       d="m 100.13013,100.63609 c 1.12724,0.042 2.25001,-0.0578 3.34609,-0.32082 0.61075,-0.15685 2.33065,-0.95372 -0.38996,0.38397 -0.072,0.0354 0.13293,-0.0964 0.17589,-0.16404 0.10543,-0.16614 0.0142,-0.21917 -0.0715,-0.35811 -0.76355,-0.694642 -1.76389,-0.954531 -2.7649,-1.057512 -0.41934,0.01783 -0.693571,0.0013 -1.097391,0.126502 -0.16545,0.0513 -0.625886,0.295426 -0.475819,0.208907 1.93235,-1.11407 1.19946,-0.775528 0.837239,-0.206819 -0.09859,0.1548 -0.161417,0.329668 -0.242125,0.494501 -0.365107,1.010771 -0.404111,2.141751 0.548005,2.851371 0.242271,0.18057 0.528111,0.29378 0.792161,0.44067 2.81597,1.01656 5.67922,0.46791 8.5175,-0.12533 0,0 -1.34999,1.02349 -1.34999,1.02349 v 0 c -2.89284,0.59089 -5.81041,1.13345 -8.671345,0.0804 -0.277606,-0.15936 -0.578622,-0.28354 -0.832815,-0.47808 -0.992463,-0.75957 -1.019339,-1.942 -0.663216,-3.03431 0.09399,-0.22205 0.305504,-0.816916 0.527773,-0.977579 1.221129,-0.882666 2.150003,-1.510366 3.596103,-1.456984 1.04741,0.138695 2.09745,0.428218 2.8778,1.182841 0.1155,0.191963 0.25588,0.323498 0.17882,0.570918 -0.0265,0.08498 -0.0918,0.16052 -0.16672,0.208554 -0.98855,0.63376 -1.70658,1.13955 -2.77412,1.38936 -1.11698,0.23878 -2.254013,0.32657 -3.396145,0.307 0,0 1.498695,-1.08887 1.498695,-1.08887 z"
       inkscape:connector-curvature="0" />
    <path
       style="opacity:0.95999995;vector-effect:none;fill:#0000ff;fill-opacity:1;stroke:none;stroke-width:2;stroke-linecap:butt;stroke-linejoin:miter;stroke-miterlimit:4;stroke-dasharray:none;stroke-dashoffset:0;stroke-opacity:0.96078431;paint-order:stroke fill markers"
       id="path1053"
       d="m 101.63468,46.544867 c 0.65749,2.362375 1.42659,4.689536 2.20054,7.015792 0.33077,1.072042 0.68265,2.137447 1.05146,3.196971 0.1525,0.438126 0.26455,0.953421 0.55497,1.323737 -0.51075,0.240258 -0.98603,0.578514 -1.53224,0.720773 -0.13079,0.03406 0.12866,-0.239038 0.17292,-0.366742 0.0859,-0.247856 0.15113,-0.50255 0.21641,-0.756618 0.34174,-1.330238 0.63245,-2.676681 0.9379,-4.015478 0.60808,-2.722245 1.27126,-5.443511 2.19889,-8.076891 0.34758,-0.732737 0.15779,-0.425934 0.52928,-0.944036 0,0 1.68928,-0.721577 1.68928,-0.721577 v 0 c -0.42608,0.477362 -0.21138,0.187 -0.592,0.90731 -0.9889,2.618618 -1.6558,5.349837 -2.25784,8.079451 -0.29189,1.330688 -0.57423,2.664584 -0.87499,3.993229 -0.0572,0.252651 -0.12641,0.502444 -0.18629,0.75447 -0.0369,0.155382 0.0255,0.374304 -0.10411,0.467678 -0.5415,0.390244 -1.19337,0.598262 -1.79006,0.897392 -0.27153,-0.421878 -0.38066,-0.921432 -0.53464,-1.396711 -0.34657,-1.069764 -0.69,-2.140617 -1.01542,-3.217048 -0.76852,-2.323645 -1.53096,-4.649216 -2.27749,-6.979475 0,0 1.61343,-0.882227 1.61343,-0.882227 z"
       inkscape:connector-curvature="0" />
    <path
       style="opacity:0.95999995;vector-effect:none;fill:#0000ff;fill-opacity:1;stroke:none;stroke-width:2;stroke-linecap:butt;stroke-linejoin:miter;stroke-miterlimit:4;stroke-dasharray:none;stroke-dashoffset:0;stroke-opacity:0.96078431;paint-order:stroke fill markers"
       id="path1055"
       d="m 113.12743,52.934097 c -1.05551,-0.527365 -1.8285,-0.531075 -2.90941,-0.0838 0.34385,-0.177966 0.64592,-0.499313 1.03155,-0.5339 0.23189,-0.0208 -0.35137,0.308248 -0.50134,0.486344 -0.6518,0.774054 -0.93425,1.728597 -1.17166,2.68899 -0.11538,0.862134 0.0568,1.99196 1.04439,2.274839 0.15707,0.04499 0.3255,0.02881 0.48824,0.04321 -0.20333,0.293939 1.44825,-0.572032 1.10747,-0.381455 -0.32126,0.179668 -0.62069,0.518496 -0.98792,0.493395 -0.2419,-0.01654 0.34756,-0.339503 0.50174,-0.526627 0.40904,-0.496427 0.48993,-0.709311 0.79372,-1.269341 0.2464,-0.710512 0.7582,-1.493935 0.63455,-2.283211 0.53646,-0.21934 1.04568,-0.523344 1.60939,-0.658016 0.0902,-0.02156 -0.022,0.185068 -0.0176,0.277722 0.006,0.130244 0.025,0.259945 0.0493,0.388054 0.10445,0.550884 0.33116,1.022834 0.58014,1.520235 0.51391,0.805873 1.18774,1.538176 2.03326,1.998062 0.0842,0.02162 0.16584,0.06852 0.25274,0.06485 0.0785,-0.0033 0.14655,-0.05652 0.21982,-0.08478 -0.46341,0.250859 -0.92683,0.501721 -1.39024,0.752581 0,0 1.72192,-0.676564 1.72192,-0.676564 v 0 c -0.94848,0.545447 -1.42703,1.317054 -2.34875,0.947918 -0.85325,-0.510194 -1.54184,-1.264372 -2.07162,-2.100218 -0.32176,-0.63528 -0.61023,-1.256974 -0.69229,-1.973082 -0.0121,-0.10577 -0.0972,-0.253508 -0.0133,-0.319104 0.52144,-0.407934 1.14056,-0.672584 1.71084,-1.008877 0.14118,0.83925 -0.36039,1.65213 -0.62823,2.412376 -0.96131,1.869551 -1.30041,2.001231 -3.38503,3.171256 -0.46139,0.258961 -0.6748,0.242191 -1.17415,0.309149 -0.17548,-0.03277 -0.35925,-0.03578 -0.52646,-0.09832 -1.02211,-0.382281 -1.25446,-1.531924 -1.14426,-2.490277 0.23852,-1.020236 0.69517,-2.665 1.61268,-3.295499 0.67071,-0.460894 1.39675,-0.835581 2.09512,-1.253371 1.15922,-0.403617 1.91522,-0.335161 3.02116,0.190415 0,0 -1.54574,1.017043 -1.54574,1.017043 z"
       inkscape:connector-curvature="0" />
    <path
       style="opacity:0.95999995;vector-effect:none;fill:#0000ff;fill-opacity:1;stroke:none;stroke-width:2;stroke-linecap:butt;stroke-linejoin:miter;stroke-miterlimit:4;stroke-dasharray:none;stroke-dashoffset:0;stroke-opacity:0.96078431;paint-order:stroke fill markers"
       id="path1057"
       d="m 117.06709,43.671217 c -0.60905,1.692095 -0.60842,3.474437 -0.51441,5.244653 0.16308,2.409925 0.74423,4.74341 1.67515,6.965042 0.37563,0.6623 1.15813,2.35008 2.15378,2.246852 0.13962,-0.01447 0.2602,-0.105359 0.3903,-0.158041 -0.40627,0.203388 -0.77311,0.521973 -1.21881,0.610161 -0.1711,0.03385 0.21941,-0.273965 0.3004,-0.428439 0.45239,-0.86287 0.4951,-1.907199 0.53714,-2.855598 0.0269,-1.228677 -0.12161,-2.451047 -0.52949,-3.611301 -0.0836,0.223576 -0.0638,-0.411421 -0.16433,-0.337063 -0.0383,0.02832 -0.0222,0.159322 0.0218,0.141153 0.52791,-0.217948 0.97398,-0.631841 1.52556,-0.779984 0.12281,-0.03299 -0.0323,0.252706 -0.0357,0.379828 -0.005,0.19109 0.007,0.382246 0.0106,0.573368 0.0222,1.540949 0.46971,3.021369 1.11075,4.409448 0.23512,0.343056 0.44362,0.931576 0.90752,1.054311 0.30094,0.07962 0.67371,-0.254833 0.57681,-0.214185 -0.42541,0.178443 -0.83321,0.396258 -1.24981,0.594386 0.87118,-1.17372 1.06529,-2.655795 1.23533,-4.068262 0.0463,-0.543854 0.10383,-1.089298 0.10705,-1.635845 9e-5,-0.01492 -0.0177,-0.03865 -0.004,-0.04462 0.54911,-0.239593 1.10925,-0.45308 1.66388,-0.679622 -0.0272,1.285915 0.13235,2.567808 0.48547,3.802719 0.47823,1.184444 1.09761,2.093539 2.3575,2.469002 0.46666,0.08684 0.78098,-0.08451 1.15812,-0.32466 0,0 -1.43024,1.15415 -1.43024,1.15415 v 0 c -0.41709,0.199874 -0.77311,0.324733 -1.24331,0.199191 -1.28167,-0.464725 -1.93342,-1.389705 -2.42841,-2.632578 -0.36016,-1.243509 -0.52741,-2.52912 -0.55421,-3.823811 0.55427,-0.33216 1.10323,-0.67333 1.66281,-0.996479 0.013,-0.0075 -0.0107,0.02839 -0.0123,0.04332 -0.008,0.07237 -0.0102,0.145188 -0.0151,0.217792 -0.0329,0.483494 -0.0684,0.966859 -0.12347,1.448474 -0.17288,1.435024 -0.36147,2.927739 -1.16731,4.165214 -0.6272,0.420225 -1.23958,0.863465 -1.8816,1.260674 -0.10346,0.06401 -0.22439,0.107074 -0.34562,0.117268 -0.66439,0.05587 -1.00485,-0.768268 -1.27879,-1.214149 -0.63947,-1.409864 -1.09612,-2.910398 -1.15246,-4.467823 -0.009,-0.151979 -0.0669,-0.928343 -0.0196,-0.974886 1.11948,-1.101778 1.50882,-1.767417 1.89578,-0.725612 0.38932,1.190392 0.54844,2.43513 0.52759,3.687612 -0.0217,0.661524 -0.17806,2.980565 -0.7479,3.412929 -0.60388,0.458192 -1.29044,0.795758 -1.93566,1.193636 -0.14828,0.02713 -0.29436,0.09015 -0.44485,0.08139 -1.07484,-0.0626 -1.77132,-1.64233 -2.20331,-2.417387 -0.91894,-2.246336 -1.51199,-4.59636 -1.69182,-7.023701 -0.11069,-1.770623 -0.13986,-3.556706 0.41936,-5.265449 0,0 1.66981,-0.793075 1.66981,-0.793075 z"
       inkscape:connector-curvature="0" />
    <path
       style="opacity:0.95999995;vector-effect:none;fill:#0000ff;fill-opacity:1;stroke:none;stroke-width:2;stroke-linecap:butt;stroke-linejoin:miter;stroke-miterlimit:4;stroke-dasharray:none;stroke-dashoffset:0;stroke-opacity:0.96078431;paint-order:stroke fill markers"
       id="path1059"
       d="m 130.10038,54.176638 c 1.18622,-0.07745 2.31555,-0.465894 3.38749,-0.957985 1.22551,-0.736631 -0.24625,0.160343 -0.70828,0.336622 -0.1346,0.05135 0.22066,-0.186407 0.31833,-0.292299 0.29688,-0.321855 0.43659,-0.647255 0.5488,-1.061532 0.0776,-1.094147 -0.43208,-1.462272 -1.43437,-1.666412 -0.19723,0.01191 -0.39803,-0.0035 -0.59168,0.03572 -0.22059,0.04469 -0.43475,0.122503 -0.64042,0.213898 -0.2191,0.09736 -0.86189,0.404442 -0.62841,0.349943 0.33856,-0.07903 0.62081,-0.530582 0.95222,-0.425527 0.24642,0.07812 -0.37601,0.356695 -0.54063,0.556001 -0.16625,0.201266 -0.29917,0.427876 -0.44876,0.641815 -0.56841,1.069023 -0.9907,2.483456 -0.20916,3.577426 0.15745,0.220393 0.37821,0.387824 0.56732,0.581737 0.27079,0.159374 0.5262,0.348388 0.81238,0.478123 1.66547,0.755026 3.61797,0.621657 5.35955,0.235284 0.52074,-0.115531 1.02602,-0.292193 1.53903,-0.438291 0,0 -1.37861,1.059995 -1.37861,1.059995 v 0 c -0.51745,0.140872 -1.02756,0.312188 -1.55235,0.422617 -1.78677,0.375983 -3.77556,0.485846 -5.47154,-0.306131 -0.29885,-0.139552 -0.56417,-0.341818 -0.84626,-0.512726 -0.20085,-0.209134 -0.43453,-0.39108 -0.60254,-0.627401 -0.81181,-1.141878 -0.44342,-2.604447 0.12727,-3.747759 0.95248,-1.458989 1.32425,-1.540383 3.10425,-2.629604 0.60087,-0.367683 1.24466,-0.567288 1.95094,-0.505399 1.0815,0.279217 1.61872,0.734232 1.58713,1.910503 -0.33411,1.675405 -1.81283,2.144869 -3.23996,2.943675 -1.09898,0.476954 -2.25204,0.85439 -3.45796,0.914778 0,0 1.49622,-1.087067 1.49622,-1.087067 z"
       inkscape:connector-curvature="0" />
    <path
       style="opacity:0.95999995;vector-effect:none;fill:#ffcc00;fill-opacity:1;stroke:none;stroke-width:2;stroke-linecap:butt;stroke-linejoin:miter;stroke-miterlimit:4;stroke-dasharray:none;stroke-dashoffset:0;stroke-opacity:0.96078431;paint-order:stroke fill markers"
       id="path864"
       d="m 304.87646,100.94793 c 2.64292,0.38339 5.05386,-0.7307 7.29176,-1.99963 -0.25649,0.1104 -0.93827,0.553656 -0.76949,0.331205 0.32814,-0.432387 0.86715,-0.654087 1.28101,-1.005287 0.39013,-0.331052 0.76525,-0.680093 1.12905,-1.039873 0.94433,-0.933919 1.72443,-1.940296 2.46068,-3.039393 0.57034,-1.116497 1.68537,-2.73865 1.58332,-4.056886 -0.0339,-0.01669 -0.0678,-0.03341 -0.10176,-0.05011 0,0 2.23756,-1.38139 2.23756,-1.38139 v 0 c 0.0621,0.07318 0.12425,0.146352 0.18634,0.219528 0.15984,1.392997 -0.97552,3.060636 -1.57202,4.246774 -2.10394,3.226996 -4.95543,5.57191 -8.38716,7.351402 -2.36294,1.29006 -4.7176,2.29275 -7.47046,1.93191 0,0 2.13117,-1.50825 2.13117,-1.50825 z"
       inkscape:connector-curvature="0" />
    <path
       style="opacity:0.95999995;vector-effect:none;fill:#ffcc00;fill-opacity:1;stroke:none;stroke-width:2;stroke-linecap:butt;stroke-linejoin:miter;stroke-miterlimit:4;stroke-dasharray:none;stroke-dashoffset:0;stroke-opacity:0.96078431;paint-order:stroke fill markers"
       id="path868"
       d="m 311.36669,91.107934 c 1.78295,-0.3888 3.4576,-1.161114 5.10045,-1.937184 1.14083,-0.610593 2.2637,-1.251895 3.42181,-1.829946 0.14639,-0.06871 0.31025,-0.174202 0.46124,-0.180583 0.041,0.08533 0.0956,0.165369 0.12298,0.256005 0.0505,0.167333 -0.0308,0.495686 -0.0246,0.658048 0.0143,0.37623 0.0578,0.470387 0.14742,0.858255 0.52935,1.538505 1.06712,3.079515 1.71905,4.571125 0.35285,0.87517 0.81296,1.710697 1.40777,2.445049 0.86725,0.944959 -1.03944,1.077068 -2.33439,1.578848 -0.15769,0.0611 -0.57727,-0.40049 -0.62122,-0.442429 -0.086,-0.122862 -0.17206,-0.245726 -0.25807,-0.368588 0,0 2.24882,-1.327169 2.24882,-1.327169 v 0 c 0.0769,0.105696 0.15373,0.211392 0.23059,0.317088 0.0878,0.07198 0.16468,0.159721 0.26329,0.215929 0.0868,0.04948 0.36115,0.03261 0.28395,0.09601 -1.92638,1.581705 -1.68527,1.758426 -2.07206,1.275606 -0.5746,-0.775568 -1.0395,-1.630116 -1.3942,-2.527564 -0.65238,-1.505583 -1.19107,-3.058644 -1.7645,-4.595384 -0.005,-0.01648 -0.45337,-1.984825 -0.0624,-1.412237 -0.0813,0.08671 -0.28033,0.152566 -0.40066,0.219405 -1.13872,0.570058 -2.24094,1.207077 -3.3758,1.784408 -1.67454,0.772917 -3.37597,1.550758 -5.19287,1.919772 0,0 2.09347,-1.574466 2.09347,-1.574466 z"
       inkscape:connector-curvature="0" />
  </g>
</svg>
